<svg xmlns="http://www.w3.org/2000/svg" xml:space="preserve" viewBox="0 150 1500 700">
  <g fill="#ececec">
    <path d="M103 512.7h-1.5l-.1.6c0 .2-.4.3-.4.5l1.6.6c-.2-.1.5-.4.5-.4v-1.3ZM240 243.3l-1.8 4.7c-.9 2.1-1.8 4.3-3.4 5.9 3 .3 5.8 1 8.6 2 .5.2 1 .4 1.4.9.6.5.7 1.4 1 2 .2.8.7 1.6 1.5 1.6.5 0 1-.4 1.4-.7a12.2 12.2 0 0 1 3.5-1.9c1-.4 2.4-.3 3.4-.8s1-1.4 1.2-2.4c.4-1.3.9-2.6 1.8-3.6.6-.7 1.4-1.3 2.2-1.8l3.7-2.6c2-1.4 3.9-2.7 6.1-3.2 2-.5 4.5-.5 5.5-2.2-.9-.3-1.8-.7-2.5-1.2-1.2-.8-2-2-3.1-2.9-2-1.4-4.8-1.2-7.2-1-2.6 0-5.2-.2-7.5-1.1-1.3-.5-2.4-1.2-3.8-1.4-1-.1-2 0-3 .2l-11 1.7c2.3.5 3.5 2.8 4.6 4.8-1.4.3-2 1.7-2.6 3ZM55.6 311.3a7.2 7.2 0 0 0 1.7-.4l1-.2c.6 0 1 .3 1.6.6.9.5 1.8 1.2 2.7 1.6.8.4 1.7-.3 2.5-.6.7-.3 1.4-.8 1.4-1.6a6.5 6.5 0 0 1-6-1.7l-.5-.4a1.2 1.2 0 0 0-.5 0c-.6 0-1.2.2-1.8.4-.5.1-1 .3-1.4.2l-.6-.3-1.6-.8a6.5 6.5 0 0 0-.2 1.5c0 .5 0 1 .4 1.4.4.3.8.3 1.3.3ZM76 332.9h.2a13.6 13.6 0 0 0 2.1-1.1l.2-.1a.3.3 0 0 0 0-.1l-.1-1.7c0-.5-.1-.5-.7-.5l-3-.3c-1.3 0-2.6.5-3.9.9a14.3 14.3 0 0 1 5.3 2.9ZM116.2 518.6c-.6-.3-1.3-.3-1.9-.6a.8.8 0 0 0-.3 0c-.3 0-.4.2-.5.4v.3c.4.2.6.5.7.7.1.2.3.5.5.4h.1c.4-.2.9 0 1.3-.1.4-.3.5-.8 0-1ZM108.5 515h-.1c0-.1-.1 0-.2 0l-1.3.5.6.5c.2.1.2.4.5.6.3.2 1.6.2 1.8-.3.1-.4-1.1-1-1.3-1.3ZM113.4 517.3h-.5a3.3 3.3 0 0 1-1.1-.3h-.4c-.2.3-.5.5-.5.7l2.3.1h.1c.2 0 .2-.4 0-.5ZM348 206.3c.2 0 .4.2.5.3.3 0 .6 0 .8-.2l5-2.2 1.1-3.2v-.3a.5.5 0 0 0-.1-.2 16 16 0 0 0-3.7-1.9c-2.5-1-5.2-2-7.8-1.6a3 3 0 0 1-1.4 2.5c.8 1.9 2 3.7 3 5.5 1 .2 1.9.7 2.7 1.3ZM247.8 220.4c.8.4 1.7.2 2.5.3 1 .2 1.7.8 2.7 1a8 8 0 0 0 4.2-.4c2.4-.7 4.7-1.4 6.9-2.6 1.2-.6 2.3-1.3 3.7-1.5.9 0 1.9.1 2.7-.3 1.2-.5 1.6-2 2.6-2.7l.3-.4c.2-.2.2-.4.2-.6v-2.9c0-.6 0-1.5-.3-2-.5-.6-1.2-.3-1.8-.2l-2.9.7c-2 .5-4.4 1-6.3 0-2 1.4-4.3 2.5-6.2 4-2.2 1.8-3.8 4.2-6.1 5.7l-2.3 1.3-.2.2c0 .2.2.4.3.4ZM288.1 201.3h.2c2.2-.4 4.5.6 6.7.1 1-.2 1.8-.6 2.6-1 .5-.2 1.3-.4 1.4-1.1 0-1.3-3.1-1.5-4-1.7-1.3-.3-2.6-.6-3.8-.1a7 7 0 0 0-1.4.8l-2.1 1.5.3 1.4.1.1ZM336.5 216c-.3.2-.3.5-.4.8-.3.6-1.1.7-1.8.8-2.4.1-4.7.6-7 1.3a16.1 16.1 0 0 0-.2 6h.6c2.1-.4 4.4-.5 6.5-.2.3.9-.4 1.8-.3 2.7.2 1 1.3 1.7 2.3 2a15 15 0 0 0 6.3.7c.7 0 2 0 2.5-.5.6-.5.5-2 .6-2.7l1.1-3.7c.2-.7.4-1.4.3-2 0-1.1-.6-2-1.2-2.9l-2-3c-.2 0-.2.2-.2.4 0 .3-.4.3-.7.3a32 32 0 0 0-6-.2 1 1 0 0 0-.4.2ZM316.9 197l.3.1c1.2.1 2.3.4 3.3 1 0 0 .2 0 .2.2v.3c-.8 1.3-1.8 2.6-3.2 3 2.8.2 5.8-1.2 8.4-.2l.4.2.2.3c.3.4.7.6 1.2.8l3.8 1.7 1.3.4h3.7l2 .6c1 .2.7-.3.3-.9-.5-.5-1-1-1.4-1.7l-.5-1-1-2.1c-.1-.4-.3-.8-.6-1.1-.5-.5-1.2-.6-2-.7-1.2-.2-2.5-.4-3.7-.8-1.5-.4-2.9-1-4.4-1.2-.7 0-1.3 0-2-.2-1.3-.2-2.4-.8-3.6-1.3a7 7 0 0 0-3.8-.7l1 3.1a.5.5 0 0 0 0 .2ZM120.6 522.8l-.6-.3a5.5 5.5 0 0 1-1.6-1c-.3-.3-.6-.7-1-.8-.3 0-.9.2-.8.6l.2.6c0 .2-.3.4-.4.6-.5.4-.5 1.2-.2 1.7.2.3.5.6.4.9 0 .3-.3.5-.2.8l.3.2 1.1.4c0-.5.4-.9.8-1l1.5-.6c1.2-.1 1.5-1.4.5-2ZM272 220.5a32.3 32.3 0 0 0-3.3 4.4c-.7 1.3-2 3.3 0 4a5 5 0 0 0 1.9.2l12.7-.4c2.3-.1 4.5-.2 6.8-.5-.5.6-1.3.4-2 .5-.8 0-1.4.4-2 .8l-3 1.9a1 1 0 0 0-.4.3 1 1 0 0 0 0 .6v2c1.4.6 3 .5 4.5 0 1.4-.4 2.8-1 4.2-1.6 1.8-.6 3.7-.9 5.7-1.2l8.5-1.2c1.6-.2 3-.5 4.6-.5 1 0 2 .1 3-.3 1.5-.7 2.1-2.4 2.2-4a8.2 8.2 0 0 0-.8-3.8 12.4 12.4 0 0 0-7.5.9l-1.9-4.8c-.3-1-.7-2-1.5-2.7-1.4-1-3.4-.7-4.9.1a4.9 4.9 0 0 0-2.3 2.3c1 1.1 1.4 2.8 2 4.1.8 1.4 1.9 2.5 3 3.7-2.8-.1-5.7-.3-8-1.8l-2-1.6c-3-2.3-7-2.7-10.8-3.7-1.6-.4-3.5-1-5 0-.5.3-.8.7-1.4 1l-1.3.4c-.4.2-.7.6-1 1ZM290 208.9l.4.2c.4.2.8 0 1.1 0a48.2 48.2 0 0 0 6-2.2c.3-.3 1-1.7.7-2-.2-.5-2.2-.3-2.7-.3-.4 0-.9 0-1.3-.2l-.9-.7c-.6-.3-1.3-.2-2 0l-2.3.3c-.3 0-.6 0-1 .2-.4.1-.7.4-1.1.7a6.6 6.6 0 0 0-2 2l3.3 1.2c.6.2 1.2.4 1.7.8ZM127.9 342.9c-1.8.3-3.2 1.8-4.8 2.5a9 9 0 0 1-1.5.4l.1 1.8c0 .2 0 .5.2.8l.4.4c.8.8 1.9 1.6 3 1.3.8-.3 1.3-1 2-1.4.5-.4 1.1-.5 1.7-.8 1-.5 3.3-2 2.6-3.3-.7-1.3-2.4-2-3.7-1.7ZM482.1 404.2c-.5-.2-.8-.6-1-1-.3-.4-.6-1.4-1-1.6-.6-.4-1.1.5-1.5.8-.1.1-.3.3-.3.5l.2.2 1 1.4.7.6c.3.3.8.4 1.1.5 1.4.4 3 .8 4.3.4a6 6 0 0 0 2.3-1.6h-4.5c-.4 0-.9 0-1.3-.2ZM472.9 528.3c-.3-.2-.6-.2-1-.3-1.4-.2-3-.2-4.5.2-.1.3-.5.6-.6 1 0 .2 0 .4.2.6l.3.7a.5.5 0 0 0 .1.2h.3l1.6-.1a10.5 10.5 0 0 1 2.6-.1c1 0 1.1 0 1.7-.7a.8.8 0 0 0 .2-.4l-.2-.5-.7-.6ZM488.9 561.2c-.6.6-.8 1.4.3 1.3l2.6-.2c.3 0 .6-.1.6-.4v-.3c-.4-.6-.1-1.3-.2-2a.5.5 0 0 0-.2-.3.6.6 0 0 0-.2-.1 5 5 0 0 0-2-.1l-.5.1v.5l.2.5c0 .4-.3.7-.6 1ZM427.3 497c0 .4.4.7.8.6a8 8 0 0 0 .6-2.6v-.3a.8.8 0 0 0-.3-.3 13 13 0 0 0-3-2.1c-.1.2 0 .6-.3.8h-.3c-1.5 0-3 .3-4.5.7l.5 1.3c.3.4.4.4.9.3l3.2-.6.2-.1c.3-.2.3-.6.3-1 .4-.1.9.2 1.2.6.5.5 1 1.3.8 2l-.1.7ZM430 528.9c-1.5-.6-3.2 0-4.7-.5-.6-.2-1.2-.4-1.6 0-.2 0-.3.3-.4.6-.1.2-.3.5-.2.7l.3.3 3.1 1.5c.6.2 1.2.4 1.7 0l.5-.5c.4-.2.8-.2 1.2-.2.3 0 1.3.2 1.5-.1.2-.3-.5-.8-.6-1l-.5-.6-.3-.2ZM434.5 522.6c1.6.2 3.2.5 4.6-.2l.5-.5c.2-.4-.1-1-.5-1.3a5.9 5.9 0 0 0-4.7-1.2c.2-.6.4-1.3 0-1.8-.4-.3-.9-.3-1.4-.3a9.9 9.9 0 0 1-6.6-2.7c-.6-.6-1.1-1.2-1.8-1.7-.6-.5-1.4-.9-2.2-.7l-1.2.3c-.7 0-1.3-.4-1.9-.8-1.9-1.4-3.8-3-6.2-3.1-1.8 0-3.5.8-5.3.8-.7 0-1.4-.2-2 0l-1.4.8c-1.4.6-3.3 0-4.3 1.1-.4.5-.6 1.1-1.1 1.5-.3.3-.8.4-1.2.6-.4.2-.8.6-.8 1 1.1-.3 2.4.6 3.3 0 .5-.2.7-.6 1.1-.9.7-.5 1.8-.5 2.5-1 .4-.3.7-.9 1.2-1.1.3-.2.7-.2 1-.3.9 0 1.7.1 2.4.3.2.3-.2.7-.5.6-.2.4.3.7.7.8 1.4.4 2.9.6 4.4.8.5 0 1 0 1.5.2l1.3.6c1.5.8 3.3 1.2 5 1.3l.8.1.6.6c.7 1 1.3 2.1 2.4 2.4h1c.9.2 1.6.8 2.2 1.5 0 0 .2.1.2.3 0 .3-.2.5-.4.7-.4.2-2 .9-1.3 1.4.4.3 2-.2 2.5-.2 1.9-.2 3.8-.1 5.6 0ZM489 390a.7.7 0 0 0-.2-.3 3.6 3.6 0 0 0-1.6-.9l-2-.6c-2.3-.7-4.7-1.6-7-2-.5.9 2.2 2.3 2.9 2.7 1 .6 2.3.9 3.5 1.2l2.3.6c.6.1 1.3.3 1.8-.1.2-.1.3-.4.3-.6ZM243.4 394.7c.6 0 1.2-.2 1.5-.7l.1-.1v-.2l-1.5-1.8a6.6 6.6 0 0 0-2.4-2.3c-.8-.4-1.8-.4-2.5-1-.4-.2-.7-.6-1-1l-1.8-2.7a1.3 1.3 0 0 0-.4-.5c-.3-.1-.6 0-.8 0-2 .2-3.8-.4-5.6-.8-.9-.2-1.7-.4-2.4-.8-.3-.2-.6-.5-1-.3s-.3.9-.3 1.2c.1.5.4 1 .6 1.4l.7 1c0 .2.1.4.3.5.2.2.7.3 1 .4l2.2.3c.4 0 .8 0 1 .4l.5.7c.4.6 1.2.7 1.9 1 .9.2 1.6.8 2.2 1.6l.6.9c.7.8 2 .9 3 1 1 .3 2 .6 2.7 1.1l1.4.7ZM513.6 379.3c.2-.3.6-1 .4-1.4-.3-.4-1.5-.4-2-.3l-.6.3-3.5 2-.6.5a3 3 0 0 0-.5.8l-2.1 4.4c-1.6 3.2-3.3 6.5-6.4 8.4l1.6 1.5.2.4-.3.4-1.6 1.3 1.5 1.3 1 .5 1.2-.1a27.7 27.7 0 0 1 9-.5l.9.3 1.8.9a9.1 9.1 0 0 1-1.8 1.8l2.5.1h.4a.9.9 0 0 0 .3-.3 24 24 0 0 1 2.9-3.1c.2-.3.5-.5.9-.5.6 0 .8 1 .7 1.6 0 .6-.2 1.3-.4 2-.1.2-.2.5 0 .8l.3.3a6.8 6.8 0 0 0 4.4.6 40.3 40.3 0 0 0 1.5-4.9c0-.3-.2-.5-.4-.8a14.9 14.9 0 0 1-1.8-5.2 4.8 4.8 0 0 1-2 1.4 2.9 2.9 0 0 1-.1-2c0-.5.3-.9.3-1.3 0-.8-.9-1.3-1.6-1.6a5.2 5.2 0 0 0-1.5-.6c-.6 0-1.2.1-1.5.5l-.5.6c-.3.3-.9.4-1.4.3-.4-.1-.8-.4-1.3-.7-.4-.2-1-.6-.8-1.2 0-.6.9-1 .6-1.6l-.5-.4-2-.8-2 1.2c.7-1.5 1.5-2.9 2.5-4 .8-1 1.7-1.8 2.3-2.9ZM213.2 373.1c-.8-.9-1.6-1.9-1.8-3a27.1 27.1 0 0 1 1.2-6 9.5 9.5 0 0 1-6.4.3c-.4 1.4.2 3 1 4.1l2.9 3.4 1 1.4 1 .8c.5.3 1.5 1.4 2 .8.6-.6-.6-1.4-.9-1.8ZM475.5 843a113 113 0 0 1-8.4-3.4c-2.3-1.7-3.2-4.5-4.7-7-.3-.5-1-.7-1.6-.8-.8-.2-1.8-.3-2.6 0-.5 0-1 0-1.5.2-.4 0-.8.2-1.2.4-.3.2-.5.6-.7 1-.6 1.2-.8 2.7-1.2 4-.2.7-.6 1.3-1 1.8l-.5.1a7.4 7.4 0 0 1-3.4-.6l-1.7-1-1-.8a17.6 17.6 0 0 0-3.2-2c-1.5-1-3.2-2-5-1.8l3.8 4.5a21.6 21.6 0 0 0 3.6 3.7l1.8 1.2a61.9 61.9 0 0 0 4.6 2.3l1.8.3 2.1.3c1 .2 1.8.6 2.4 1.3 1.5 1.6 4 1.3 6.3 1.3.6 0 1.4 0 2-.4.3-.1.5-.4.8-.7.5-.7 1-1.5 1.2-2.3.6 0 .9.7 1.3 1.1 1.1 1.1 4.5 1 5.5 0 .5-.6.6-1 .5-1.4.1-.2.3-.5.3-.8a.5.5 0 0 0 0-.3l-.3-.3ZM504 825.6c-.5-1-2-.9-2.9-1.7l-1.6 1.9c0 .1-.2.3-.4.3s-.4 0-.6-.2a11 11 0 0 0-2.6-1 2.9 2.9 0 0 0-1.3-.2c-.7.1-1.3.7-1.8 1.3l-2 2.3c2 1.2 2.7 2 4.6.1.2-.1.3-.3.5-.3.3 0 .6.2.7.4.7.7 1.2 1.8 2.1 2 1.4.3 2.4-1.3 3.7-1.6.4-.1 1-.1 1.3-.4.6-.4.6-1.2.6-2a2.4 2.4 0 0 0-.2-.9Z"/>
    <path d="M594 626.6a6.8 6.8 0 0 1-.7-3l-.1-.5c-.2-.3-.5-.3-.7-.4l-2.9-.4c-3.9-.3-6.5-4.4-9.7-6.6a13 13 0 0 0-1.9-1.1c-1.6-.7-3.4-.6-5.2-.9l-2.7-.5c-1 0-1.9 0-2.7.5a6.6 6.6 0 0 0-3.5-1.8l-1.7-.2H561l-1.3.4-2.5.5.3-1.7a.7.7 0 0 0 0-.4.7.7 0 0 0-.3-.3c-1-.8-2.3-1.4-3-2.5-.1-.3-.3-.7-.6-1-1.4-.7-3-1-4.5-1.6l-1.7-.7c-.7-.2-1.4-.2-2.1-.2H544a.7.7 0 0 0-.3.2.8.8 0 0 0-.2.2c-.6 1-1.3 2-2.4 2.4l-.2-.2.1-3.7-6.4-.4h-.3a.8.8 0 0 1-.2-.2c-.4-.4-.7-1-1.2-1.1.7-.6 1.4-1.2 1.9-2l.5-.8c.5-1 .5-2.4.4-3.6-.7 0-1.5-.1-2.2-.3-.4-.9-.3-1.9-.4-2.8a13.4 13.4 0 0 0-2.8-6l-.5-.1H529l-.2-.2-.6-1.4c-.8-2-3.3-3.4-5.2-4.4-1.2-.6-2.5-.8-3.8-1a61.2 61.2 0 0 0-4.6-.7 3.8 3.8 0 0 0-1.6 0c-.5.2-1 .7-1 1.2-1-1-2.7-.2-4-.7-1-.4-1.6-1.3-2.3-2-.6-.9-1.4-1.6-2.4-1.7h-.5c-.5-.2-.6-.8-.6-1.3s.2-1 0-1.5c-.3-.4-.8-.7-1.3-.8a10 10 0 0 1-4.1-2.6c-.4-.4-.7-1-1.2-1.2-.4-.4-1.2-.4-1.5 0l-.5.7c-.3.1-.6 0-.8-.3-.2-.3-.2-.6-.2-.9l-.2-2.2c-.8-.5-1.4-1.5-2.3-1.9a3.7 3.7 0 0 0-1.4-.1H486.7a.8.8 0 0 1-.2-.2 4.8 4.8 0 0 1-1.1-1.7c1-.2 2-.5 2.8-1-2.5-.2-5.1-.3-7.7-.1-.6 0-1.3 0-1.7.6l-.4.5-.6.4-1.5.5c-1 .4-2 .7-3 .3-.9-.5-1.3-1.5-2.2-2-.8-.5-1.8-.3-2.7-.2l-4.7.6V559l-.3-.2c-1-.4-1.4-1.5-2.2-2a1.1 1.1 0 0 0-.4-.2h-.4l-2 .1h-.3l-.2-.3-1.3-2.8-1.3 1.2a.5.5 0 0 0-.1.1v.3l.3 1.8-2.4 1c-.6.4-1.3.9-2 .8-.1.8-.2 1.7-.1 2.5 0 .4 0 1 .3 1.3.3.4 1 .7 1 1.3l-.2.5-.5 1.3a.4.4 0 0 1-.1.2h-.2c-.2.1-.3.3-.5.3l-.5-.1c-.6-.3-1-.9-1.3-1.5a4.3 4.3 0 0 1-.5-1.1c-.1-.4-.1-.9.1-1.2.3-.5.8-.7 1-1.1.3-.4.4-.9.4-1.3l.1-1.5v-.3l-.3-.1a1.3 1.3 0 0 1-.9-1c.7 0 1.3-.2 2-.4a.9.9 0 0 0 .3-.2l.2-.5c.2-.8.6-1.6 1-2.3-.5.2-1-.5-1.5-.8-.6-.3-1.4-.2-2 .3-.6.4-1 1-1.5 1.5a9.3 9.3 0 0 1-7.6 3c-.1.3-.6.3-1 .3a4.9 4.9 0 0 0-4 2.2 6 6 0 0 0-.8 4.6c-.4.4-1 .6-1.5.7h-.6c-.4.2-.5.7-.8 1a3 3 0 0 1-3.1 1.4 6 6 0 0 1-1.9-.9l-1.9-1.1c-1-.7-2.2-1.4-3.4-1 0-.3-.3-.5-.6-.5l-1.4-.2a2.1 2.1 0 0 0-.8 0c-.5.2-.8.6-1.1 1-.6.5-1.5.7-2.3.8-.4.1-.8.2-1 .4l-.7.4a2.3 2.3 0 0 1-2.7-.2c-.2-.2-.4-.4-.6-.3l-.3.3c-.3.2-.7 0-.9-.4l-.4-1-.6-.5c-1-.6-1.4-1.7-2-2.5l-2.2-2a4.3 4.3 0 0 1-1.4-2.5c0-.4 0-.8.3-1.1l.3-.3c.4-.6 0-1.4 0-2.2 0-.6.6-1.1 1.2-1.2a6.1 6.1 0 0 1-.3-2.5l.4-1.1.4-3.2.2-.7v-.7a1299 1299 0 0 1 0-2l-.2-.4c0-.2-.4-.3-.7-.4-.6-.3-1.2-.6-1.7-1.1l-.8-.9c-.5-.3-1-.4-1.5-.8a4.6 4.6 0 0 0-2-.7l-.4.2c-.7.3-1.5.3-2.2.3a2 2 0 0 1-.8-.2l-.4-.2c-.4-.1-.8 0-1.1.2l-1 .5c-.3.2-.6.2-.9.2a47.9 47.9 0 0 1-3.4.2c-.5-.1-.8-.5-1.3-.6a1.4 1.4 0 0 0-1.1.2l-.4.3-.4-.1-.5-.5H383.2l-.5.6c-.4-.2-.9-.3-1-.7l.1-.2a1.7 1.7 0 0 1 1.7-1.1c0-.7.1-1.3.5-1.8l.5-1c.3-.8 0-1.6 0-2.4 0-.3.1-.5 0-.8l-.2-.8c0-.5.3-1 .5-1.4v-.2c0-.2-.1-.2-.3-.2h-.4c0-.3.3-.5.6-.5.2 0 .5.3.6.5l.5.7 1.1-3c.3-.6.6-1.4.3-2.1l-.3-.7c-.1-.5.2-1.1.5-1.6l2-3.5c.2-.7.6-1.4.3-2-.3-.6-.9-.8-1.5-.8l-1.6.3c-1.4.2-2.8 0-4.1 0a11 11 0 0 0-6.2 2.1c-.2.3-.2.5-.2.8-.3 1.1-1.4 2-1.6 3v1.3c-.1 1-.9 2-1.6 2.9-.3.3-.5.6-.9.8a18.9 18.9 0 0 1-3.4.7c-1.1 0-2.2 0-3.3.2l-2.4.9-2.2 1-1.6-.7a7.1 7.1 0 0 1-1-.4c-.7-.5-1.2-1.1-2-1.4-.4-.2-.9-.2-1.4-.3-.4 0-.9-.2-1.2-.5l-.3-.6c-.9-1.9-1.7-3.8-3.2-5.3l-.7-1.7-1.8-3.8a14.2 14.2 0 0 1-1-2.4l-.3-2.6c0-1.6-.2-3.3.1-4.8.6-2.7 2.5-5 2.8-7.6.1-1.2-.6-2.2-.7-3.3a11 11 0 0 1 3-7.1c1.3-1.2 3.5-1 4.7-2.2l1-1.2a8 8 0 0 1 2.7-2c1.3-.6 2.8-.6 4.3-.8.3 0 .5-.1.8 0 .5 0 1 .4 1.5.6 1 .3 1.9 0 2.8-.2.9-.2 2-.4 2.7.1l1 1.1a4 4 0 0 0 4.2 1.1c.5-.2 1-.5 1.6-.4l1 .2c.4 0 .9-.2.9-.5s-.4-.5-.6-.8c-.5-.6 0-1.6-.5-2.2-.1-.2-.4-.4-.4-.7 0-.4.6-.5 1-.5l11.6-.4c1 .7 2.4.8 3.4 1.6.6.6 1 1.4 1.8 1.6.7 0 1.3-.3 1.8-.8.5-.4 1-.8 1.7-.9.5 0 1 .2 1.3.4a8.9 8.9 0 0 1 4.1 4.9c.2.6.3 1.1.3 1.7l-.3 2.1c0 1.5 1.1 2.7 1.6 4 .3 1 .9 1.7 1.4 2.5l1.2 1.6c.2.4.3.8.6 1 .4.5 1.1.7 1.4 1.3.1.3 0 .8.4 1.1.2.2.4.2.6.2.6 0 1.1.2 1.6 0 .6-.4 1-1 1-1.7.2-.7.2-1.4.5-2 .1-.5.4-1 .6-1.4.2-.5.2-1 .2-1.6 0-1.6 0-3.3-1-4.5-.3-.4-.7-.8-.9-1.3l-.1-1.1a4 4 0 0 0-.8-1.8c-2-3-3-7.8-2.5-11.4.4-3.5 2.6-7 6-8.2 1.4-.5 3-.6 3.9-1.8.3-.5.4-1 .8-1.3.8-.7 2-.2 3-.3 1-.1 1.7-.7 2.5-1.3 2.2-1.7 4.7-3.6 5.3-6.4.6-2.4-.3-4.9-1.2-7.2l-2.7-6.9a8.8 8.8 0 0 1 4.9 6.8 8.8 8.8 0 0 0-1-9.8c.4-.1 1.1-.4 1.6-.4h1c.3 0 .7.3.7.6l.1.8c.2.3.6.6.5 1 1.1-1 1.2-2.6 2.2-3.7.4-.4 1-.7 1.3-1.1.4-.5.6-1.2.3-1.7-.4.2-.8-.3-.7-.7.2-.4.6-.5 1-.5s.7.3 1 .5l.5.2.5-.1 5.8-1.5-.6-1-.3-.2a.6.6 0 0 0-.3 0l-4 .6c-.2-.2 0-.5.1-.7l.7-.4c2-.5 4.2 0 6.1-.6.8-.3 1.4-.8 2.2-.9l2.5.2c.8 0 1.8-.4 1.9-1.2 0-.8-.8-1.4-1.5-1.7v1.2a2.7 2.7 0 0 1-1.6-.4l-.3-5c0-.7 0-1.4.3-2a37.7 37.7 0 0 1 5.8-2.9l3.2-1a21.9 21.9 0 0 0 4.4-2c.3-.2.6-.4.6-.7 0-.3-.3-.6-.4-.9 0-.3.3-.7.6-.8h1c3 0 6-.1 9-.7-1.8 1.3-3.9 2-5.9 3l-.5.4-.2.4c-.4 1.3-.8 2.7-.3 4 0 0 0 .2.2.3l.5.2 2.8.5h.5l.5-.2c1.4-1 2.4-2.7 3.9-3.7 1.1-.8 2.5-1.2 3.9-1.5l5.1-1.3c2.3-.6 3.7-2.8 5.8-3.8.8-.4 1.7-.8 2.3-1.4a8.8 8.8 0 0 1-2-1.4 1.6 1.6 0 0 1-.4-.4 1.7 1.7 0 0 1-.2-.8v-3.5c-1 .8-1.3 2.3-2 3.4-.4.8-1.1 1.4-1.6 2.2l-.7.8c-.5.4-1.1.3-1.7.2a18 18 0 0 0-4.4 0c-.8.2-1.6.3-2.3 0-.7-.2-1.1-.7-1.7-1.1-.7-.6-1.7-1-2.6-1.2.1-1.7-.7-3.4-1-5.1a17.8 17.8 0 0 1-.2-2.1 5 5 0 0 1 .4-2.7 5 5 0 0 1 1.1-1.2l1.2-1.2c-1-.6-2-1.5-3-2.2-.7-.5-1.5-1-2.4-1a4.9 4.9 0 0 0-1.9.4l-3 1.1-2 1c-2.2 1.1-3.6 3.3-5.8 4.4-.7.4-1.5.7-2 1.2-1.2.8-1.7 2.3-2.7 3.4a4.4 4.4 0 0 1-4 1.2c3-3.6 7.7-5.8 10.7-9.5.6-.7 1-1.5 1.8-2.2 1-1 2.6-1.6 3.9-2.3 2.3-1.4 4.3-3.7 7-4 1.5 0 3 .5 4.5 1a28.8 28.8 0 0 0 16.9-.2c2-.7 2.6-3.1 4.3-4.3.8-.5 1.7-.8 2.6-1 3.3-1 6.8-1.7 9.3-4 .1-1.4-.2-2.9-.1-4.2l.1-1.4a4.1 4.1 0 0 0-2.8-4c-.4 0-.9-.1-1.3-.3a3.1 3.1 0 0 1-1.7-1.5c-.4-.8-.4-1.8-1-2.6-.8-1.2-2.5-1.3-3.9-1.5a18.5 18.5 0 0 1-4.1-1.3 42.2 42.2 0 0 1-9.6-5.8l1.4-3 .4-1c0-.7-.4-1.4-.9-2a124.5 124.5 0 0 1-9.4-14.9c-.8-1.4-1.6-2.9-2.8-4-.4 1.5-1.5 2.5-2.4 3.7a16.5 16.5 0 0 0-2.5 4.4c-.2.5-.4 1-.8 1.5l-1 .7-5 2.7c-1.4-.7-2-2.2-3.1-3.1-1-.7-2.2-1-3.4-1-.4-1.4-.5-2.8-.5-4.3l-.6-8.5a213 213 0 0 1-6.4.5c-.8-.2-1-1.2-1.4-2a5.4 5.4 0 0 0-1.3-1.3 56.4 56.4 0 0 0-6.5-4.7c-.4-.3-.8-.5-1.3-.5l-.8.2-4 2c-3.1-1.4-6.4-2-9.7-2.5a.9.9 0 0 0-.5 0l-.2.2-1.3 1.1-.4.5c-.2.5 0 1 .2 1.5 1.3 2.9 1.1 6.2 1.9 9.3.4 1.8 1.2 3.8.5 5.5-.7 1.6-2.3 2.4-3.6 3.4-.2 0-.3.2-.3.4-.1.3.2.6.4.8 1.3.9 2.7 1.6 3.7 2.7.5.5 1 1 1.3 1.7a21.2 21.2 0 0 1 2.3 5.7 5.8 5.8 0 0 1 0 3.2l-.8 1.3a29.4 29.4 0 0 1-9.7 7.2l-2.6 1.4c0 .4.5.7.8 1 .5.5.8 1 1 1.7l1.4 3a11 11 0 0 1 1.4 5c-.1 2.1-1.5 4-2.8 5.7-.5.8-1.4 1.6-2.2 1.2a28.4 28.4 0 0 1-6-6.7 14.4 14.4 0 0 1-1.6-3.6c-.8-3.5-.4-7.2-.7-10.7l-11-.3a3 3 0 0 1-.8 0l-1-.8a11.3 11.3 0 0 0-5.4-2.5c-1-.1-2-.2-2.8-.7-.7-.4-1.1-1-1.6-1.7a17.6 17.6 0 0 0-4.9-3.8c-2-1.2-4.2-2.2-6.5-2-1.7 0-3.2.8-4.8 1.5-1.6-.5-2.4-2.5-3-4.1l-1.2-4c-.3-.8-.6-1.7-1.3-2.1-1-.7-2.5 0-3.7-.4-1-.4-1.8-1.5-2-2.6-.1-1 .2-2.2.5-3.2 1.8-5.9 5.4-11 9-15.9a5 5 0 0 1 2-1.8c.9-.4 2-.2 3-.7 2.2-1.1 1.5-5 3.6-6.3 1.6-1.1 4-.2 5.6-1.2.6-.4 1-1 1.4-1.5 3.7-4.7 9.6-8.1 11.4-13.9 1.6 1 3.5 2 5.3 1.7 1.2-.3 2.2-1 3.3-1.7 1.8-1 3.9-1.6 5.5-3 1.7-1.2 2.8-3.6 1.6-5.4-.5-.7-1.3-1.3-1.5-2.1-.2-1.2.9-2.2 1.6-3.1a5.7 5.7 0 0 0 .7-5 20.9 20.9 0 0 0-11.3-4c-2 0-3.8.3-5.6.5a18.3 18.3 0 0 0-1.3 7.4v1.2l-.8 1.3-5 7.6c0-2-1.4-4-3.2-4.7a10.3 10.3 0 0 1 .5-4.5c.1-.2.2-.4.1-.6 0-.2-.2-.3-.4-.5l-3.6-3-.6-.5c-.7-.2-1.4 0-2 .5-.5.4-.9 1-1.3 1.5a8.7 8.7 0 0 1-2.6 2.1v-5.6a13.7 13.7 0 0 0-6.8-1.9 14 14 0 0 0 2.8-3.6c-1.4-2.4-3.9-4-5.4-6.2-.8-1.2-1.3-2.5-2.3-3.5-1.8-1.7-4.5-2-7-2h-.6l-.4.4-2.8 4.6c-.3.3-.5.7-.6 1l-.3 1.4-.6 6.4c2.3-.1 4.4 1.1 6.4 2.4.8.5 1.7 1 2.3 1.7.9 1 1.4 2.2 1.8 3.3a13.2 13.2 0 0 0-2.2 5.3c-1.3-.4-3-.7-3.8.3-.3.3-.5.8-.6 1.3l-1.1 3.2V280c0-.3 0-.6-.2-.8-.1-.2-.4-.4-.7-.5l-4.5-1.9a2.6 2.6 0 0 0-.9-.3l-1 .3-2.1.7c-.2.1-.5.2-.6.4-.2.2-.2.4-.2.6l-.1 3.4-6.7.2c-1 0-2 0-3 .4-.6.3-1.2.6-1.8.6a3 3 0 0 1-1.2-.5c-1-.6-1.9-1.3-3-1.8a5.4 5.4 0 0 0-3.3-.6c-1.2.2-2.1.9-3.3.7-.8-2.5-3.2-4-5.6-5a3.7 3.7 0 0 0-1-.3l-1.5.1c-1.4.4-2.8.4-4.2.2-.5 0-1.1-.2-1.7 0a44 44 0 0 0-4 2.4 7.5 7.5 0 0 0 3.7 3c-1.6 0-2.2 2.5-3.7 2.9-1.2.3-2.2-.6-3-1.5-.8-.9-1.9-1.9-3-1.6-.7 0-1.2.6-1.8.9-.8.3-1.7.3-2.6.3l-15.7-.4c.6-1.1 1.8-1.7 3-2.3 1.1-.5 2.3-1.3 2.6-2.5a6 6 0 0 1-3.5-1.8l-.6-.4-.8.3c-1.3.7-3 .4-4-.8-3.8 0-7.2-2.6-11-3.2-1.1-.2-2.3-.2-3.3-.7-.7-.4-1.3-1-2-1.3a7.6 7.6 0 0 0-2.6-.8 43 43 0 0 0-5.3-.5l-.9.1-.7.8c-.4.4-1 .6-1.6.8-1.4.7-2.8 1.6-3.8 2.8l-.8-6.4c-1.2.5-2.7.2-3.7 1-.4.2-.6.6-1 1-.5.8-1 1.4-1.8 2l-2.3-3.5a3.6 3.6 0 0 0-.5-.7c-.5-.4-1.2-.6-1.8-.9-.8-.3-1.5-1-2.3-1.3-.9-.3-2 0-2.3.8l-.1 1.3c-.2.4-.4.6-.7.8a93.8 93.8 0 0 1-2 1.6l-2-2.3a2 2 0 0 0-.6-.5h-1c-2 .3-3.9.8-5.8 1.8l-4.3 2.2-.9.3c-.6.1-1.2-.1-1.8-.2a7.8 7.8 0 0 0-3.2.2l-2.8.6c-1 .3-2 .5-2.9 1a8.2 8.2 0 0 0-3 2.5l-.5.5h-.8c-2.7-1-4.9-3.1-7.7-3.9-2.3-.6-4.8-.4-7.2-.6a6.8 6.8 0 0 1-3.4-1l-1.3-1c-.9-.4-2-.3-3-.5-1 0-1.9-.3-2.8-.7l-1.1-.4c-.7-.1-1.3 0-2 .2-1.7.6-3.6 1.1-5.3.5-1-.3-1.9-.9-2.9-1.2-.8-.2-1.7-.1-2.5-.2-2.7-.2-5.2-1.7-8-1.9-1.4 0-2.9.2-4.4 0-.7-.1-1.2-.3-1.9-.2-.7.2-1.3.4-2 .4-.6 0-1.1-.2-1.7-.3-1.1-.3-2.3-.4-3.5-.3-.3 0-.6 0-.8-.2a.8.8 0 0 1-.1-.4l-.1-1.6c-2.2 0-4.4-.1-6.5-.6h-.8c-.4.1-.6.5-1 .7-.6.3-1.3 0-1.8-.6-.5-.5-.8-1.1-1.4-1.5-1-.6-2.1-.4-3.2-.8-.9-.4-1.9-1.2-2.7-.8-.4.2-.6.7-.9 1a5.7 5.7 0 0 1-2.6 1.6c-1.6.6-3.3 1-4.9.7-.5-.1-.9-.3-1.4-.3a4 4 0 0 0-1.6.3c-2 .8-3.6 2-5.7 2.8l-3.2 1a13 13 0 0 0-1.9.9A6.7 6.7 0 0 0 89 269c-.2.6-.3 1.2-.7 1.7-.6.7-1.5.9-2.2 1.4-.8.6-1.3 1.5-2.2 2-.8.4-1.7.4-2.5.4l-5.2-.2a5.4 5.4 0 0 0-2 4c1.7.3 3.3.8 4.8 1.6a18.3 18.3 0 0 1 3.7 3.3l2.7 2.8 1.3 1.1c.7.4 1.7.5 2.4 1 .5.2.9.6 1.2 1l3.3 4c-.5-.5-1.3-.4-1.9-.4l-6.5.8c-.2-1.1 0-2.3.6-3.3-1.4-.4-2.8.1-4.2.6-2.5 1-5 1.9-7.6 2.7-2 .5-3.8 1-5.4 2.3 2.8.8 5.2 3.7 5.2 6.6.8.6 1.8.6 2.8.8 2.3.3 4.7 1.3 6.8.4.7-.2 1.3-.7 2-.6.4 0 .7.2 1 .4l2.7 1.4c.4-1 1-2.3 2-2.8.7-.3 1.4-.3 2.1-.3 1.2 0 2.4 0 3.6.2-.7.7-1.3 1.5-1.8 2.3 1 .2 1.5 1.1 2 2 .2.1.4.3.4.6 0 .2 0 .5-.2.8-.3.8-.7 1.7-1.5 2.1-1 .5-2.3 0-3.4.2-1 .3-1.8 1-2.6 1.9-.2.2-.4.5-.7.5l-.7-.3c-1.2-.7-2.7-.4-4-.1a4 4 0 0 0-1.9.7c-.7.7-1 1.8-1.4 2.7-.6 1-1.6 1.7-2.4 2.7a13.7 13.7 0 0 0-2.2 4.4l1.9 1.3c.4.4.8.9 1 1.4.2.8-.3 1.7-.3 2.5v.5l.3.3c1.5 1.5 4 2 5.2 3.7l.3.3h.2l2.6-.8a5.8 5.8 0 0 1 2.6-.3c1.1.2 2 1.2 3 1.7.3.4.1 1-.2 1.3l-.8 1c-.3.3-.4.7-.4 1.1l-.3 2.1a15 15 0 0 1 3.4 0c.3.1.6.2 1 .1.3 0 .6-.3 1-.5l1.6-1.4c.4 1.1 1 2.2 2 3.1a8.7 8.7 0 0 1 .9-2.1h.1c.6.3 1.1.7 1.5 1.3.2.3.4.8.7 1 .2.3.5.4.7.3l.3-.4c.3-.6.7-1 1.2-1.5l.4-.2.4.2.6.6.7.3c.5.1 1-.2 1.3-.6.9-.7 2-1.2 3-1.6a8.6 8.6 0 0 0-1.8 4c-.2 1.4-.2 3-1.2 4-.6.7-1.5.9-2.1 1.5-.4.3-.7.8-1 1.2-1.1 1.4-3.1 2-4.5 3.2l-1.4 1.4a6.6 6.6 0 0 1-3 1.6c-1.7.4-3.8 0-5.3 1.1l-1.2 1.1-1.6 1-8.3 4.3.3 1.2c2 0 4-.4 5.8-1.1 2-.7 3.7-1.6 5.6-2.2 1.3-.5 2.6-.8 3.8-1.5 1.3-.6 2.4-1.6 3.8-1.8h2.2c.7 0 1.5 0 2-.6l.5-.7a10 10 0 0 1 3.4-2.8c1.5-1 3-1.8 4.7-2.4l1-.5c.6-.6.5-1.8 1.1-2.4l1-.7 5.6-2.9c.9-.5 1.8-1 2.5-1.7.5-.4.8-.9 1.2-1.4l1.6-2.3c-.8-1-1.7-1.8-2.7-2.6l2.3-1.1a5 5 0 0 0 1.5-1.3l.7-1.3c.3-.7.8-1.3 1.2-1.9a21.7 21.7 0 0 1 6.3-5.4c.4-.2.7-.4 1.1-.3.3 0 .5.2.6.4l.7.8-2.2 1c-.9.3-1.9.8-2.5 1.6l-.8 1.4-.5.8a20.3 20.3 0 0 0 .9 7c1-.2 1.8-.7 2.7-1.2a45.4 45.4 0 0 1 11.4-4.4 21.2 21.2 0 0 0-.6-3.7c1.3-.3 2.4-1.3 3.7-1.3l1.2.3a85.1 85.1 0 0 1 11.4 4.4l.5.1.8-.1c1.5-.7 3.3-.2 5-.2a22.1 22.1 0 0 1 10.7 3.7l1.5 1.3a51.2 51.2 0 0 0 10.8 5.6l2.5-.4c2.4-.2 4.8.9 7.2 1 .2 0 .4 0 .6.2.2 0 .4.3.5.5a9.3 9.3 0 0 1 1.8 4.2v.4l.3.2 2.6 2.5 1.5 1.6.3.3.1.6a35.5 35.5 0 0 0 .6 4.2c.2.4.7.4 1.1.5.6.1 1 .4 1.5.7l3.4 2.6a8.5 8.5 0 0 0 0 2.2c0 .2.2.3.4.3 1.3.6 2.2 2 3.3 2.8l1 .8c.3.5.4 1.1.5 1.8l.5 3.3c1.6.7 3.3 1.3 5 1.8a6 6 0 0 0-.2 4 14 14 0 0 0 1.8 4l.5.1c.4 0 .7.2 1 .3l5 1.7 1 .5c.5.3.8.7 1.1 1a18 18 0 0 0 7.8 5.3l1 .5.6.8c.5.7 1.1 1.3 1.4 2l.3 1.1c.4 1.6.7 3.2.5 4.8 0 .4-.2 1-.6 1a9.6 9.6 0 0 0-1.5-3.6 3.8 3.8 0 0 0-.7-.8c-.9-.7-2.1-.7-3.3-1a7.5 7.5 0 0 1-1.9-.6h-.5l-1.3 1.4a14.3 14.3 0 0 1 2.4 4.6c.4 1.2.5 2.4.5 3.7 0 4.8-.9 9.5-1.2 14.3-.1 1.1-.1 2.3-.5 3.4 1.4 3.3 1.6 7.2.5 10.7l-.1.6.2.7c.6 1 1.5 1.8 2.5 2.3v2.6a9.4 9.4 0 0 0 1.1 2.6l1 1a37.5 37.5 0 0 1 3.2 3.5c.3 2.9 1.3 5.7 3.4 7.8l2.2 2c.7 1 1 2.1 1.4 3.2l.4.7c.2.3.5.5.6.8a5 5 0 0 0 1.8.3c.7 0 1.3 0 1.9.2l.7.5c.7.5 1.7.7 2.6.6l.5.1c.2.2.1.5.2.7 0 .4.4.6.7.8l4.6 2.9c.3 1.7.9 3.3 1.4 4.9.6 1.6 1.2 3.2 2 4.8 1 1.9 2.4 3.8 2.8 6 1.7.7 3.4 1.7 4.7 3l.7 1a2.5 2.5 0 0 1 .1 1.6 1.1 1.1 0 0 1-.2.3l-1.3 1.1a.4.4 0 0 1-.1.1h-.3a3.5 3.5 0 0 0-1.5-.3 5.8 5.8 0 0 0 2.4 3.5l1.5 1c.6.2 1.3.4 1.6 1 0-.4.5-.5.8-.3l.8.6.9.6 1.5 1c.3.3.7.5.8.9.2.4.3.8.3 1.3 0 1.2-.2 2.4-.5 3.6 1.3.2 2.5.9 3.6 1.7l3.1 2.5 1.2 1.1c.4.5.5 1.2.8 1.8.3.5.8 1 1.4 1.1.5 0 1-.3 1.4-.7.4-.3.8-.7.8-1.2 0-.3-.2-.7-.4-1-.7-1-1.2-2.1-2.1-2.9-.6-.4-1.4-.3-2.2-.3h-.2v-.3c-.1-1-.1-2.2-.6-3.2-.2-.6-.6-1-.9-1.5-.6-1-1-2-1.4-3a17.3 17.3 0 0 0-5.4-6.2l-.6-2.4c0-.2-.2-.5-.4-.5h-.3c-.2 0-.2-.3-.3-.4 0-.3-.3-.6-.4-.9a20.5 20.5 0 0 0-3.3-4l-1.5-1.5c-1.1-1.3-1.3-3.2-1.8-4.8l-.2-.8.1-.6.6-2.4 1 1 .2.3h1.9c.2 0 .4 0 .6.2.2 0 .4.3.6.5l1 .7.6.4c.6.7.1 1.7.4 2.6l.5.8c.5.7 1 1.4 1.2 2.2.3.7.6 1.6 1.3 2l.5.4c.3.3.2.9.1 1.3a9.3 9.3 0 0 1 2.3 2.6c.3.5.4 1 .8 1.5.3.3.8.6 1.3.6s1-.1 1.5.1c.5.3.6.8.7 1.3 0 .5.1 1 .5 1.4l.7.7.4.6.7.5 2.8 1.7-.3 2c0 .5.1 1 .4 1.2.2.3.5.4.8.5l1.4 1 .9.7.8 1.2 1 1.3a94.8 94.8 0 0 0 4.3 3.6l1.6 1.6c1 1.2 2 2.5 2.7 3.8l1 2 .6 1c.3.2.6.5.8.9.2.3.3.7 0 1.1-.2.5-1 .6-1.4 1 .2.4.4.8.3 1.2 0 .4-.4.8-.8.7l.8 1.7c0 .3.1.6.3.8.3.4 1 .6 1.2 1a8.5 8.5 0 0 1 2.6 2.5c.7.8 1.4 1.7 2.3 2.4 1.7 1.4 4 1.8 6.3 2 .5 0 1 .1 1.5.4.6.2 1 .7 1.4 1.2a12.6 12.6 0 0 0 7.3 3.7c.9.1 1.9.2 2.6.7.7.5 1.2 1.4 2 1.6a59.5 59.5 0 0 0 8.4 1.6l2-.8c1.4-.6 2.8-.6 4.3-.7a5.3 5.3 0 0 1 2 .1c.7.3 1.3.9 2 1.4l2.8 1.7c2.3 1.3 4.4 3.2 6.7 4.7a5 5 0 0 0 2 .7l1.3.1 1.4.6c1.8.9 3.8 1.6 6 1.8l1.6.3c.5.2 1 .4 1.5.4-.2-.2 0-.5.2-.7h.9c.3 0 .6.2.9.4.2.2.4.5.3.8-.1.2-.4 0-.6-.1-.2 0-.2.5-.5.5.8.4 1.2 1.2 1.7 2 1.5 2.3 3.7 4.1 6.2 5.2a3 3 0 0 0-1.3 1c.3-.2.7.1.8.5v1.1a5.1 5.1 0 0 0 0 1.8v.2l.3.1c.9.2 1.7.7 2.3 1.4.3 0 .6-.4.7-.8 0-.3 0-.7-.2-1 .3 0 .5.3.7.6a6.3 6.3 0 0 0 3.8 2.8c.3 0 .6.1.7.3v1.8c.6 1.2 1.7 2 3 2.3a.7.7 0 0 1 0-.6l3.5.3c.1 0 .3 0 .5.2.4.3.2 1 .6 1.3.1.2.3.2.4.3.7.2 1.4.4 2 0l.3-.2c.3 0 .4.3.4.5l-.1.7c-.1.8.8 1.3 1.6 1.2.7-.1 1.3-.7 1.9-1.3l.2-.4c0-.4-.6-.4-.9-.5-.3-.2-.5-.6-.5-1l.2-1c.5.2.9-.2 1.2-.5l1.8-1.8c.2-.2.3-.3.5-.3h.5c.8 0 1.6 0 2.2.6.4.4.7 1.2 1.3 1.3.3 0 .7 0 .8.4v.4c-.5 1-.2 2.1.5 2.8l1 .8c.7.7 1 2 1.5 2.8.6 1 .6 2 0 3l-.2.5.1.4c.2.7 0 1.5.1 2.2.2.6.6 1 .6 1.6 0 .8-.7 1.6-.4 2.3.2.5 1 1 1.5 1.2a20.9 20.9 0 0 1-2.7 3.3c-.4.4-.8.7-1.2.8h-.9c-.6 0-1 .8-1.1 1.4 0 .7 0 1.4-.2 2-.3.6-1 1.1-1.6.8.3.7-.2 1.5-1 1.7a4 4 0 0 1-2.1 0 24 24 0 0 0-3 6.4c-.1.4-.3.8-.6 1l-.6.3c-.6.4-.5 1.4-.1 2.1.3.7.8 1.6.4 2.2-.2.4-.6.6-.6 1 0 .3.4.6.7.8l1.3.8c.2.1.5.3.7.2.3 0 .5-.3.8-.5.4-.2 1.1.1 1.2.7a11.7 11.7 0 0 1-5.7 5.3 2.6 2.6 0 0 0-1.5 2.9c.2.9.8 1.6 1.3 2.4.4.8.6 1.9 0 2.6-.2.2-.5.4-.5.7 0 .2.1.4.3.5 1.6 1.5 4.4 1.4 5.6 3.3l.5 1.4c.4.8.9 1.4 1.4 2 2.6 3.5 5 7 7 10.8.9 1.5 1.6 3 2 4.6.6 2.3 1.2 4.9 2.4 7 .7 1.1 1 2.6 1 4v1.4l.7 1a20.8 20.8 0 0 0 4.6 2.8c3.9 2 8 3.4 11.9 5.4.5.3 1 .5 1.3 1l.8.8.8.5c1.3.7 3.1 1.4 3.1 2.8l.1 12c0 2 0 3.8-.4 5.7-.3 1.4-.8 2.8-1 4.1a29.5 29.5 0 0 0-.6 4.8c-.3 4.2 0 8-.1 12.1-1.3 1.7-2.8 3.6-2.5 5.7.2 1.3 1 2.6.7 3.9l-.8 1.7c-.6 1.5 0 3.3.2 5a11.7 11.7 0 0 1-.6 6c-.8 1.8-2 3.4-2.8 5.3-1.8 4.6-.5 10-3 14.2l-1-1.4c-.2 3.5 0 6.9.7 10.3.2.7-.6 1.4-1.3 1.2a26.4 26.4 0 0 0-4 14.5c.1.9.2 1.8.6 2.5.4.8 1.3 1.3 2.2 1 .8-.1 1.3-1 1.6-1.7.3-.7.5-1.6 1-2.2.6-.6 1.7-.7 2.2 0 .3.3.3.9.2 1.4l-.3 2.7a8.8 8.8 0 0 1-.8 3.4c-.5 1-1.7 1.9-2.8 1.7-1.2-.2-2.2-1.2-3.3-1.3l-.8 5.1c-.2 1.3-.4 2.5-1.1 3.6l-1.6 1.8c-.5.7-.8 1.5-.5 2.3 1.6 0 3 1.4 4 2.8a21 21 0 0 0-6 8.4c-1 3.3-.8 7.2 1.4 10 .3.3.6.7.8 1.2.5 1.4-1 3-.4 4.4.3.7 1 1 1.6 1.5l10.7 6.4c1.1.7 2.4 1.4 3.7 1.3.5 0 1-.1 1.2-.5.2-.3.2-.8.2-1.1l-.2-3.1.1-1c.3-.5.9-.8 1.4-1 3.3-.9 6.9-.7 10 .6l-1.2-2.4-.3-.6-.3-.8-.8-3c-.3-1.1-.6-2.3-.2-3.3a4.4 4.4 0 0 1 1.8-1.7c.6-.4 1.2-.8 1.9-1 .4 0 .7 0 .8-.5 0-.5.2-1 .4-1.4a44.3 44.3 0 0 1 2-4.4c0 .1.2 0 .2 0l3.7-2 .8-.6c.3-.5.3-1 .4-1.6.2-1 .7-2 1.3-3v-.3c0-.3-.2-.3-.5-.4-1.7-.2-3.4-.5-5-1-.7-.8-1.1-1.9-1.6-2.8a2.6 2.6 0 0 1-.4-1c0-.9.7-1.5 1-2.3.3-.6.4-1.4 1-1.8l.6-.4 1.3-.5a7.5 7.5 0 0 1 1.8-.6l1.8-.1.5-.1.5-.5.3-1.4.3-2.4c.1-1-.2-2.1.3-3 .1-.4.4-.7.6-1l1.4-1.4c.4-.4.8-.8 1.2-1 1-.6 2.1-.6 3-1.2l-1.2-2.8-1.7 1.3a.3.3 0 0 1-.2 0h-.2c-.7-.7-1.8-.7-2.5-1.3a.7.7 0 0 1-.3-.2.9.9 0 0 1 0-.4l.2-3.9v-.4a.7.7 0 0 1 .4-.2c.4-.3 1-.5 1.5-.6h.3l.3.3.9 1.2c.3.4.8.6 1.3.6s.9-.2 1.3-.4c1-.4 2-.5 3-.8 1-.2 2-.6 2.5-1.5l-.7-1c-.1-.2-.3-.5-.3-.8 0-.3.2-.5.4-.8a5 5 0 0 0-.6-5.7 11.5 11.5 0 0 1 3.4 0l1.2.1c1.5.3 3 .3 4.4 0 1.4-.2 2.6-1.2 3.8-1.8a6.8 6.8 0 0 1 1.8-.6c.7-.2 1.5 0 2.2-.3.7-.2 1-1 1.6-1.4l1.4-1.3a15.5 15.5 0 0 0 2.5-3.7c.2-.3.3-.7.3-1.2 0-.3 0-.6-.2-.9a.7.7 0 0 0 0-.2l-.3-.2a6.8 6.8 0 0 1-2-1.5c0-.7-.1-1.4.1-2l.3-.8c0-.5-.6-.9-1.1-1.1-1-.6-2-1.2-2.8-2a3.3 3.3 0 0 1-1.2-1.7 3 3 0 0 1 .3-1.7l2.3 2.5.2.3h.5l1.8-.3c.9 0 1.4.8 2.1 1.3.7.5 1.5.7 2.3.6.8-.1 1.5-.5 2.3-.4.9 0 1.7.7 2.5.6a3.6 3.6 0 0 1 1.7-1.4l1.4-.5a11 11 0 0 0 2.7-1.7l.4-.6c.8-1.5 1.5-3 2.5-4.2.3-.4.6-.7.8-1.2.3-.7.2-1.7.8-2.2l-.3.2c2.7-2.5 5.5-5 8.4-7.3 1.4-2 2-4.4 3.3-6.3a11 11 0 0 1 2.3-2.5l.8-2.2c.2-.6.5-1.1.6-1.7.2-.7.2-1.4.2-2l-.1-2.8V708c.2-.7.6-1.3 1-1.8 2.2-2.6 4.8-4.9 7.1-7.4 1.9-.1 3.8-.3 5.6-.6.7-.2 1.4-.3 2-.9l.5-.7a3.4 3.4 0 0 1 1.2-.8c2.4-1 5-1.3 7.6-1h.5l.3-.4c.4-.4.6-1 .9-1.4.4-.8.8-1.8 1.7-2 .4-.2 1-.2 1.2-.5l.1-.5.7-4.8c.4-.4.6-1 .9-1.5a7.5 7.5 0 0 1 3.5-3.2l-.2-2.4.1-1.5.6-1.4c.5-.8 1-1.7 1.6-2.3 0-3.8-.2-7.5.8-11 .2-.9.5-1.7.4-2.6 0-.8-.5-1.6-.4-2.4.2-1 1.2-1.6 1.2-2.6h1.4c.6-1.3 1-2.5 1.8-3.6 1.5-2.2 3.6-4 5.3-6.1 1.6-2 3-4.3 5-5.8.2-1.6.5-3.1.9-4.7.2-.8.5-1.7.6-2.6.1-.9.1-1.8-.2-2.6-.3-.9-1-1.6-1.3-2.4Z"/>
    <path d="M428.6 287c1-.8 2.5-.5 3.8-.8a8.2 8.2 0 0 0 3.7-2.4l.2-.7c0-1 0-2-.5-2.7l-1-.7c-.7-.4-1.6-1.4-1.6-1.4l-3.7 1.5s-2 2.4-2 3.5v.6c0 .2.2.4.3.5.7 1 .7 2.8.7 2.5ZM816.5 206.3l-1.7 1.4a20 20 0 0 0 7.8 1.9c.6-.1 1.1-.4 1.7-.7 1.4-.8 2.9-1.4 4.5-1.9.7-.2 1.5-.4 2-1-1.1-.4-2.5-.5-3.7-1-1-.4-1.8-1-2.4-2-.5-.6-.6-1.7-1.5-1.9-1.2-.1-2.8.3-4 .4l-4.3.7 1.7 1.7c.3.3.6.7.6 1 0 .6-.4 1-.8 1.4ZM803.5 187.6l.4.4.7.2c2 .5 4.2.6 6.4.3h.8l.7.7a5.1 5.1 0 0 0 1.8 1.6c1.4.7 3 .7 4.5.8l10 .2h4a13.1 13.1 0 0 0 7.8-4c1.6-2-2.4-2.4-3.6-2.7a29 29 0 0 1-5.9-2.2c-.8-.4-1.5-.8-2.4-1a9.3 9.3 0 0 0-2.5 0c-1.8 0-3.7.1-5.1 1.1l-1.5.9c-.8.2-1.7-.4-2.3-1-.7-.5-1.4-1.2-2.2-1.3-.8-.2-1.6.2-2.3.5a25 25 0 0 1-6.5 1.6c-1.4.2-2.8.2-4 .7-.4 0-.7.3-.7.6l.2.2 1.7 2.4ZM916.7 185l4 2.2 5-1.3 1-1.8 8.6-1.6 1.5-1.7-5.8-2-3.9 1.3-2 2-1-2h-6.8l-7 1.4 8.7.6-2.3 3ZM710.2 352.4c.4.6.5 1.4.6 2l.5 4.2c.2-.9.8-1.7 1.6-2.2.7.5 1.5 1.2 1.3 2-.1.6-.7 1-.7 1.7 0 .4.3.8.6 1.2.5.5 1 1 1.7 1.3l1.2.1c2 .3 3.9 2 4.2 4.1 0 .4 0 1-.3 1.2l-.8.1h-4.4c-.6 1.2-1 2.5-1 4 .8.4 1.2 1.3 1.5 2.2l-3.3 1.3c-.2 0-.4.2-.5.4 0 .3.2.5.5.8.5.5 1 1.2 1 2 1.7-.4 3.4 1 5 .4-.8 1.2-2.6 1.1-3.8 1.9-1 .6-1.5 1.6-2.2 2.4a12.7 12.7 0 0 1-3.2 2.4c.9 0 1.7.5 2.5.8l2.4-1.7.9-.5a2.9 2.9 0 0 1 1.4 0c1.2.3 2.5.5 3.3-.4.4-.3.6-.9 1-1.2.9-.6 2 .1 3 .4 1.6.3 3.2-.5 4.7-1 2.2-.6 4.6-.4 6.8-.4.3 0 .7 0 .9-.2.3-.2.4-.5.6-.8.5-.6 1.6-.9 1.7-1.7.1-1-1.3-1.8-1-2.7.3-.7 1.4-.7 1.9-1.3.6-.6.3-1.6.2-2.4l-.3-1c-.6-1.1-2.2-1.2-3.4-1.7-2-.7-3-2.8-3.7-4.7l-1.4-3.2c-.3-.7-1.3-.6-1.9-1l-.7-.8a28 28 0 0 1-3-5.1c0-.2-.2-.4-.3-.5l-.8-.4-3.1-.7c.6-1.4 2-2.3 2.8-3.6 1-1.8.7-4 1-6-3.2-.6-6.2 1.9-9.5 1.7l3-2.4c1.3-1 1.5-3.2 2.4-4.7-2.7-.2-5.4 1.6-8 .9-2 1.6-2.8 4.3-3.4 6.8l-.6 2.6a3.1 3.1 0 0 0-.1 1.4c.1.8.8 1.3 1.2 2Z"/>
    <path d="M693.7 377.1c2.6-.7 5.5.3 8-.7.7-.2 1.2-.5 1.8-.8l2.5-1.5.8-.5a5 5 0 0 0 1-1.3c.8-1.3 1.7-2.7 1.5-4.2 0-.6-.2-1.1-.3-1.7-.2-1.4.3-2.5 1-3.7.8-1.2-1-2-1.8-2.8-.3-.5-.6-1-1-1.2a2.9 2.9 0 0 0-1.5-.3h-1.9l-.5.1-.7.4c-1.4 1-3 1.6-4.4 2.6a7.5 7.5 0 0 0-3.3 3.7l-.1.8c-.1.7.2 1.5.5 2.2l.7 1.7.4 1.2c0 .8-.3 1.7-.7 2.5a31.8 31.8 0 0 1-2 3.5ZM782.8 203.5c1.1.7 2.4 1 3.6 1.5 1.3.4 2.4 1 3.6 1.6.3.2.6.4.5.7 0 .2-.1.4-.3.5a8.7 8.7 0 0 1-2.2 1.5c-.3.2-.6.4-.6.7l.3.2c3 1.9 7 2.1 9.4 4.7.2.2.4.4.6.4h.7l1.8-.6c.4 0 .7-.2 1-.4l.5-.9c.8-2 .7-4.6 2.4-6l1.6-1c1.3-1.2 1.3-3.1 2.2-4.6 1.1-1.8 3.3-2.6 5.4-3.2l5.8-1.8c-2-1.6-4.5-2.2-7-3a41.9 41.9 0 0 1-11.7-6.6c-.4-.2-.7-.5-1.1-.6h-.9l-3.5.7c-.2 0-.3 0-.4.2-.2 0-.3.3-.4.5l-.8 1.4-.4.5a.9.9 0 0 1-.4 0l-5.2-.2c-.5 0-1-.1-1.4-.4-.7-.6-.7-2-1.6-2.2l-.9.3c-1.8 1-3.7 1.7-5.6 2.2-1.4.3-2.7.3-4 .8l5.3 8.6c1 1.7 2 3.4 3.7 4.5ZM940.5 250.5s-2.8 1-3.7 1.3c-.7 1.8 0 4.7 1.9 5.3l5.5 1.4s.3 2.4 1.4 2.8c1.1.5 2.4.2 3.6.2 2.7-.1 5.4.6 8.2.7.7 0 3-.7 3-.7l-2.4-2-5.1-3.9-.6-6.5s1.2-.9 5.8-6.2c4.6-5.4 7-9.7 15-13.3a90.2 90.2 0 0 1 21-6.8c1.8-.3 3.6-.6 5.3-1.3a12.5 12.5 0 0 0 5.7-4.6 22 22 0 0 1-3.1-3.8c-2.6 1.3-5.8 1-8.5 2-1.3.5-2.4 1.3-3.7 1.8-2.3.9-4.7 1-7.1 1.2-10.7.9-17.3 4.6-30 10.5.6 1 1 3.7 1 3.7l-.7.8c-2.8 2.4-5.4 3.5-8.3 5.9 1.2.2 3 1 3 1l-7.2 6.4v4ZM1312.2 229.3c2 .6 4.2 1.3 6 2.3l.7.2h.5c1-.2 2-.3 3-.2l2.2.2a5.4 5.4 0 0 0 1.7-.7l.6-.3.6-.8c.4-.6 1-1.1 1.8-1.2a217.2 217.2 0 0 1-10.5-2.3l-2.5-.6a23 23 0 0 0-3.5-.3l-1-.1c-.3-.1-.3.1-.4.4l-1 2c-.2.3-.4.6-.3 1a7 7 0 0 1 2.1.4ZM373.4 173.7a22.8 22.8 0 0 1 5.7 5l1.1 1.2c1 .7 2.4.6 3.6 1 1.2.4 2.2 1.2 3.4 1.5.9.3 1.8.2 2.7.2l9.5-.6c3.3-.2 6.8-.4 9.6 1.4-1 .5-2.1.7-3.2 1-1 .3-2 .9-2.6 1.8a11.2 11.2 0 0 0-3.7-1.1h-2.8c-2.5 0-5 .5-7.3 0l.9 2.4c.4 1 .7 2 1.5 2.7 1 .9 2.5 1.1 3.7 1.9a2 2 0 0 1 .7.8c.2.3.2.8.1 1.2a7 7 0 0 1-.5 1.8 1 1 0 0 1-.3.4l-.5.2-5.4.9c-.5 0-1 .2-1.5.5s-.7.8-1 1.3l-1 2.3c1.7.7 3.4 1.2 5.2 1.8l.4.2.4.4c1.2 1.5 2.7 3 4.1 4.3-2.4-.5-4.7-1.3-6.9-2.4-.7-.4-1.4-.8-2.2-.7l-.8.1-2.6.6a9.7 9.7 0 0 1 2.1 6.1c-2 0-4 .3-5.9 1-.5.2-1 .4-1 .9V217.5c4.6 0 9.2.3 13.7 1l2 .2c1 0 2-.4 3-.7 1.6-.5 3.4-1 5.1-1.1 2.7-.3 5.5.3 8 1.5 1.1.6 2.2 1.3 3.5 1.6 1.9.3 3.8-.6 5.5-1.6 1.6-1 3.2-2.3 5-2.9l.4-2.6c-2.4.6-5-.3-7.3.4a3.6 3.6 0 0 0-.5-1.6v-.3l.3-.3 4.5-1.1c.4-.1.8-.2 1-.5.5-.3.6-.8.8-1.3.4-1 .8-2.1 1.7-2.8.9-.8 2.2-1 3.3-1.4 1.2-.3 2.3-1 3.4-1.5 1.1-.6 2.4-1.4 2.9-2.6a8.8 8.8 0 0 1-2.8-4.4l2.7-1.4c-2 .3-4 0-5.8-.9a45 45 0 0 1 11-1l1.6-.1 1-.7c1.4-1 3.2-1.1 5-1.3l2.2-.1c.4 0 .8 0 1-.4l.5-1.3a23.5 23.5 0 0 1 1.7-3 10 10 0 0 1 3.4-3.3c1.3-.8 2.8-1 4.3-1.5a41.7 41.7 0 0 0 5.3-1.7c3.4-1.4 6.4-3.6 9.6-5.3-.4-.4-1-.2-1.6 0l-2.9.3-6-.1c.1-.3.3-.5.6-.7a12.9 12.9 0 0 1 4.4-2 95.3 95.3 0 0 1 10.8-2.6l1-.5a46.2 46.2 0 0 1 6.5-2.7v-2.7c-2.5-.4-4.7-1.7-7-2.3-1.8-.4-3.6-.4-5.4-.5a141 141 0 0 1-7.1-.8c-1.8-.2-3.5-.4-5.2-.8-1.8-.4-3.6-1-5.4-1.2-2.6-.2-5.2.5-7.8.7-2.1 0-4.3-.2-6.4-.6a14 14 0 0 0-8 .7c-.8.4-1.6.8-2.4.8-1 0-2-.7-2.9-1.1a8.1 8.1 0 0 0-3.8-.3c-3 .3-6.2 1.1-9.3 1h-4.7a16.4 16.4 0 0 0-5.6 1.8l-1.4 1c-1.2 1.2-1 3.5-2.4 4.4-1-1.3-2.7-2-4.3-2.4a26.4 26.4 0 0 0-4.8-.9 1.5 1.5 0 0 0-.7 0l-.5.5a33.5 33.5 0 0 1-3.7 3c-.5.3-1 .4-1.5.5l-7.4 1.4-2.6.3h-2.5l-1.9.7c-1 .2-2.2.1-3 .9.5 1 .2 2.4 1 3.3.3.5.9.8 1.4 1ZM1440.5 261.2c.4.3 1 .2 1.6 0 .5-.3 1-.6 1.6-.6l.8.1c.3 0 .5 0 .6-.3.2-.5-.6-.8-.8-1.3v-.3c.2-.2.4-.1.7 0 .4 0 .8-.5.8-1 0-3.2-6.1.4-6.1.5l.1 1.4c0 .5.2 1.2.7 1.5ZM1276 228.8l2 .7a9.2 9.2 0 0 1 4.5 3.2 20.7 20.7 0 0 1 9.3-2.7c4-.2 8.1.8 12.2.7.6-2 1.5-3.8 2.6-5.5l-5.3-2c-2.3-.7-4.5-1.5-6.9-2-3.7-.7-7.4-.7-11.2-.7l-1.2.1-.8.3c-1.4.6-3 .8-4.4.6l-2.4 5.8a.3.3 0 0 0 0 .2l.1.1 1.5 1.2ZM1098.7 186.4c.3.3.4.6.5 1l2.2 4.8c.1.4.2.7.5 1l.8.4 4.7 1.8 2.5.9c1.4.3 2.8.2 4.2.5 2 .3 3.9 1.2 6 1.4 1.2 0 2.5-.2 3.8-.4l1.9-.4h2c.7-.4.6-2.5.7-3.3l.6-4.3v-1a2.2 2.2 0 0 0-.6-.8l-1.9-1.9c-2.3-2.3-4.7-4.6-7.6-6.2-1.5-.8-3-1.4-4.4-2.4-1-.7-1.8-1.7-3-1.8a4.9 4.9 0 0 0-2.3.4c-1.5.5-3 1-4.4 1.3-.8 0-1.6.1-2.3.4-.7.2-1.3.7-2 1-2.5 1.8-5 3.4-7.2 5.4 1.5.1 3 .8 4.4 1.5l1 .7ZM1296 238.7a4 4 0 0 0-1.4-.4c-.5 0-1 .1-1.3.3-1.3.3-2.5.4-3.8.5h-.3l-.3.3a7.3 7.3 0 0 1-3.1 2.6c.4.3.8.3 1.3.3 2.3.1 4.7.7 7 .8h3.7l2 .1c.4 0 1 .3 1-.4l-.4-2c-.8-.2-1.4-.6-2.1-1l-2.3-1.1ZM1126.6 204.4c-.3.5-.6.9.1 1 .6.2 1.4 0 2 0 2.6-.4 5.2-1.1 7.8-1.6 3.8-.7 7.7-.9 11.4-1.7a3 3 0 0 0 1-.4l.5-.5c.5-.7.8-1.5.8-2.4 0-.1 0-.3-.2-.4l-.4-.2c-1.5-.5-3-1.3-4.4-2a117.7 117.7 0 0 0-7.2-3 1 1 0 0 0-.4-.2l-.4.1c-1 .4-2 .6-3 .4a1 1 0 0 0-.6 0c-.2.1-.2.3-.3.4l-1.5 2c-.5.7-1.2 1.2-1.8 1.9-.7.8-1.1 1.8-1.6 2.7l-1.8 3.8ZM457.6 262.8c-2.1-.7-4.5-1.2-6-3-1.2-1.4-1.8-3.7-3.7-4.2-.9-.3-1.8 0-2.7.2l-5.2 1.5c.4-2.6-2-4.9-4.5-5.9s-5.2-1.4-7.4-3c-.5-.5-1-1-1.7-1.2-1.3-.3-2.5.6-3.6 1.4a17.4 17.4 0 0 1-8.7 3 5.9 5.9 0 0 0 .7-5.2 10.4 10.4 0 0 0-2-3.2c-1.4-1.5-3-3-5-3.3-1.4-.3-2.8 0-4.3.4-2 .5-4.3 1.1-5.7 2.8-1.4 1.6-1.8 4-3 5.7-.4-2.5-4-4-3.4-6.5.3-1.2 1.6-2 2.1-3.1-3 1-6.2.8-9.3 1.4-3 .7-6.3 2.6-6.8 5.6-.2 1-.1 1.8 0 2.7l.5 9h5.7a4.5 4.5 0 0 0-3.8 4.3c3.5-1 7.2 0 10.5 1.4 3.4 1.4 6.6 3.2 10.1 4 2.3.4 4.7.5 7 .4 3.2 0 6.5-.2 9.7-.6.7 0 1.5-.2 2-.7l.7-.7c.7-.5 1.6 0 2.2.4.6.5 1.1 1.2 1.9 1.5.5.2 1 .2 1.6.3 1.7.2 3 1.5 4.1 2.6.3.3.5.6.6 1 .3 1-.8 1.9-.7 3a17 17 0 0 1 16.2 9.6l-4.7 6.4c-1.1 1.7-2.4 3.7-1.5 5.6 0 .2.3.5.1.8 0 .2-.3.3-.5.3a23.4 23.4 0 0 1-11.5.5c-.7-.2-1.5-.4-2.1 0a2.9 2.9 0 0 0-.8.7c-.8.8-1.6 1.7-2.3 2.7-.1.2-.3.5-.3.8 0 .4.4.7.8 1l3.5 2c3.3 2.1 7-.5 10.9-1.3v-2c1.8.4 2.6 2.3 4 3.5.6.5 1.4.8 2.2 1.2l5.2 2.2-2 1.4c.8 1.7 3 2.1 4.7 2.7 1.5.5 3 1.3 4.4 2a52.3 52.3 0 0 0 15.6 4.5c.3-1.1-.8-2-1.7-2.7a35 35 0 0 1-8.4-8.2c1.3-.1 2.5.7 3.6 1.4s2.3 1.3 3.6 1.8l5 2.4 1.2.3c1.5.1 2.3-1.6 2.5-3a9 9 0 0 0-3.4-7.8c-1.7-1.3-3.8-2-5.4-3.6-1-1-1.7-2.4-3-3.2l-1.1-.8c-1-1-.5-2.7.1-4 2-.6 4.4-1 6 .3.7.6 1.1 1.6 1.6 2.5a12.8 12.8 0 0 0 2.9 3.6c1.5 1.3 3.7 2.2 5.5 1.4 1.3-.7 2-2.1 3-3.2 1-1 2.4-1.8 3.6-2.8 1.1-1 2.1-2.2 2.2-3.7l-.1-.6-.5-.3a19.1 19.1 0 0 0-5.1-1.3c-.5 0-1 0-1.5-.3-1.8-.7-1.9-3.2-3-4.8-1-1.6-2.8-2.4-4.6-2.7-1.8-.3-3.7-.3-5.5-.7-2.7-.6-4.8-2-7.1-3.5a41 41 0 0 0 6.5-3.3c-1-5-5.9-8.2-10.7-9.8Z"/>
    <path d="M352.6 189.8c1 .6 2.4.7 3.3 1.5.3.3.6.8 1 1h.9c2.1-.1 4.4.1 6.6.4a6.1 6.1 0 0 0-3.5 5.4l.1.5.4.4a240.3 240.3 0 0 0 5.5 3.3h1c4.4.1 8.8.3 13.2.7l.6-.1.4-.5.8-1.4c1-1.7 2-3.5 3.4-4.7 2.1-1.8 4.9-2.4 7.5-3a10 10 0 0 0-3.4-2.4l-.9-.5a2.6 2.6 0 0 1-.5-.7l-2.5-5-.5-.6a2.6 2.6 0 0 0-.8-.5 41.3 41.3 0 0 0-10.2-2.7c-.3 0-.6 0-1-.2l-.6-1c-1-1.8-3.3-2.3-4.6-3.8-.2-.2-.3-.5-.6-.6h-.9l-9.1.6c.4.8 1 1.6 1.7 2.2l-2.7.5a3.6 3.6 0 0 0-1.3.5c-.6.3-.9 1-1.3 1.6-1 1.7-2.5 3-4 4.3-.2.2-.5.5-.5.8l.2.5c.5 1.3 1.1 2.7 2.3 3.5ZM342.3 268.9c-1.2.5-4.1 1-3 2.7a6 6 0 0 0 4.6 2.3c.8 0 1.5-.3 2.3-.5 2-.3 4.1.4 5.5 1.8.2.2.3.4.5.4s.3-.2.5-.3l1.9-1.8.2-.3-.1-.6a9 9 0 0 0-2.3-3.3 9 9 0 0 0-1.7-1L346 266c-.7 1.4-2.1 2.2-3.6 2.8ZM320.7 241.4a5.8 5.8 0 0 1-2.5-1.3l-.7-.5h-.9l-3.3.5c-.6 0-2.5.1-2.4 1 0 .6 1.5 1.2 2 1.6a15.1 15.1 0 0 1 3.8 4.3c1.7-1.6 3.5-3.3 4-5.6ZM359.6 232.4c.3.1 1 .5 1.1.4.3 0 .5-1 .6-1.2.3-.5.6-1 1-1.3.3-.2.5-.4.6-.7v-.5a6.7 6.7 0 0 0-.8-2.4c-.3-.5-.7-.8-1.1-1.2l-1.5-1.4a.7.7 0 0 0-.2-.1.6.6 0 0 0-.3 0c-1.2.2-2 1.2-3.1 1.6-1.1.5-2.4.4-3.5 1-.7.4-1.2 1-1.6 1.7l-1 1.3c0 .2-.1.3 0 .4l.2.2c2.5.8 5 1.5 7.7 2 .6 0 1.3 0 2 .2Z"/>
    <path d="M381.1 234.6c.9.2 1.8.2 2.6.2 6.8-.2 13.4-1.8 20.2-1.8.8 0 1.5 0 2.3.2 1 .2 2.2.7 3.2.5.7-.1 1.3-.5 1.9-.8l2-.7 1.8-.3c1-.3 1.9-1 2.4-2 .7-1-.2-2.2-1-3.1a11 11 0 0 0-2.8-2.3 5.8 5.8 0 0 0-2-1h-1.2l-1-.3a19.7 19.7 0 0 0-4.8-.3c-1.5 0-3 0-4.4.3-2 .4-3.8 1.1-5.8 1.6-1.9.6-3.9.6-5.8.5l-7.2-.4a2.6 2.6 0 0 1-.9-.1l-1-.8a8.6 8.6 0 0 0-6-2.8l1-2a2.7 2.7 0 0 0-.4-2.3c-.6-.8-1.6-1-2.3-1.7-.3-.3-.5-.6-.8-.7a2 2 0 0 0-1-.2l-3.6.3c-1.8.3-4 .5-5.3-.8l-1-1a3.3 3.3 0 0 0-1.2-.4 44.6 44.6 0 0 0-7.8-.7h-.3a.6.6 0 0 0-.2.3l-1.4 2.4-.2.4.3.3a19 19 0 0 0 11 3.8l1.6.1c.4.1 1 .4 1.3.7.8.7 2 1.3 2.2 2.4.1.5.5.9.7 1.4.3.7.3 1.6.2 2.4a37.4 37.4 0 0 0 0 4.7c3.8 1 8.8-1 11.6 1.8 1 .9 2 1.8 3.1 2.2ZM416.5 239c-.8.1-1.6.4-2.4.3h-.3v.1l-.6 2.2c-.1.2-.2.5-.1.7 0 .3.3.5.5.7 1.5 1.4 3.3 2.3 4.8 3.7l.3.2h.4l2.3-.5c.7-.2 1.3-.5 2-.6a10 10 0 0 1 2-.1l4.3.3c.4 0 1.6.4 2 .2.3-.3.2-1.3.2-1.7 0-.2 0-.5-.2-.7 0-.2-.3-.3-.5-.4-1.5-.7-3-1.2-4.4-2-1-.7-1.7-1.6-2.8-2a6 6 0 0 0-1.9-.2h-3.6c-.7 0-1.3-.2-2-.1ZM358.6 205.4l-5.4.7c-1 .1-1.2.2-.9 1.2a26.6 26.6 0 0 0 1.4 2.7l.5.1c1.1.1 2.2 0 3.3-.2 1.6-.3 3.3-1 5-1l.6-1-2-1.2c-.5-.2-1-.7-.9-1.2-.5-.3-1-.2-1.6-.1ZM353.8 247.8a13 13 0 0 0 1.5 3.2c.2.2.3.4.6.5l.5.1c1 .2 3 .9 4 .2.6-.3 1-1 1.3-1.5.5-.6 1-1.2 1.3-2l.3-.9a3 3 0 0 1 1.4-1.1 13 13 0 0 1 3.7-1.2c.2 0 .5 0 .6-.2.3-.1.4-.4.5-.6a7.3 7.3 0 0 1 1.8-2.1 16 16 0 0 1 4.5-3.2 16.5 16.5 0 0 0-9.6-3 26.3 26.3 0 0 0-11.3 2.5c-1.3 1-1.7 2.7-1.9 4.2a9.7 9.7 0 0 0 0 2c0 1.1.4 2.1.8 3ZM418.7 321.3h-.3v.1h.3ZM419.3 317.3a2.3 2.3 0 0 0-2.6 0l-.6.8c-.2.5 0 1.2.1 1.9l.2.5.5.3c.5.3 1 .4 1.5.5.1-.7.6-1.3 1-1.9.3-.7.4-1.5 0-2.1ZM351 249.3l-.1-1a2.3 2.3 0 0 0-.8-.8l-3.5-2.6c-.2-.2-.5-.4-.5-.7 0-.2.2-.4.3-.5a64.6 64.6 0 0 1 2.5-2.7c0-.2 0-.3-.2-.4l-.9-1.4-.3-.3a.7.7 0 0 0-.3 0l-5.4.8c-1.4.2-3 .4-4-.4-.4-.4-.8-1-1.3-1-.7-.3-1.4.2-2 .6-.9.8-3.4 2.3-2.7 3.7.5.8 1.4 1.6 2 2.3l2 2.3c-.5-.4-1.2-.3-1.9-.3-.8 0-1.5-.2-2.3-.4l-3.7-.8a8.8 8.8 0 0 0-.2 2.4c0 .1 0 .3.2.4l.3.2c1.6.8 3.3 1.6 4.9 2.6l4 3.2 1.9 1.5c.3.3.6.5 1 .6l.7.2 4 .3h.7c.5 0 1-.4 1.4-.8 1-.8 2-1.4 3.2-1.9l.7-.4c.3-.3.3-.7.3-1.2v-3.5ZM425 500.3h-.2c-.3 0-.7-.2-1 0l-.1 1.1c0 .3-.6 2.5-.7 2.4a3 3 0 0 1 2.4 2.8c0 .2 0 .5.3.5.3.1.5-.3.7-.3.1-1.6.2-3.3-.7-4.7-.2-.4-.5-.7-.5-1.2l-.1-.6ZM404.6 313.6a8.1 8.1 0 0 0-3.2 2.2 1.3 1.3 0 0 0-.3.4c-.1.2 0 .5 0 .8 0 .4.2.8.4 1 .4.5 1 .7 1.6.6a5.1 5.1 0 0 0 1.7-.6c2-1 4.8-2.1 4.5-4.6-1.4.6-3.2-.2-4.7.2ZM414.4 309.7c.5-.2 1.5-.2 2-.5.5-.4 0-1.2-.5-1.6-1.2-1-3-2-4.4-1.1.2-1 .5-2.2-.2-3a3 3 0 0 0-1.3-.8c-3.1-1.2-6.9-1.3-9.2-3.7-.4-.5-.8-1-1.3-1.3-.5-.3-1.3-.3-1.6.1l-.5.7c-.1.3-.5.4-.7.2v-3.3l-3.6 1a1 1 0 0 0-.5.2c-.2.2-.2.5-.2.8 0 2.3.3 4.7-.7 6.8-1 2-3 3.5-2.9 5.7l3.3-.6h.7l.4.7 1 3.2c1 .1 1.8-.3 2.5-.7 2.9-1.7 5.6-3.8 7.3-6.6a3.5 3.5 0 0 0 2.5 2.5c.6.2 1.3.2 2 .3 1.3.4 2.7 1.8 4.2 1.7.6 0 1-.4 1.6-.7ZM331.8 270c1.7-.3 3.5-2.2 2.7-3.8-.6-1-1.9-1.4-3-1.6a52.6 52.6 0 0 1-7.7-2.4 7.6 7.6 0 0 1-3.2-1.8c-1.6-1.9-1.2-4.6-1.5-7a11.6 11.6 0 0 0-5.2-8.3 11.7 11.7 0 0 0-9.7-1.2 7.8 7.8 0 0 0 1.5 5.2c.7 1 1.8 2 1.7 3.3-.2 1.1-1.2 1.9-2 2.5a30 30 0 0 0-6-10.2c-2 1-3.6 2.3-5 4l-4.5-2.9a3 3 0 0 0-1.1-.5 3 3 0 0 0-1.1.2l-7.9 1.8 1.4-3.5c-1-1.3-3-1.1-4.6-.5-1.6.6-3 1.6-4.7 1.7-.6 0-1.1-.1-1.6.1-.6.3-1 1-1.3 1.6-1 1.7-2.8 2.8-4.4 4-1 1-2.3 2-2.8 3.4-.6 1.8.9 2 2.3 2.4 1.5.5 3.1.8 4.8 1 1 .1 3.6.5 4.6 0a27 27 0 0 1-9.5 3.2c.6 1 1.8 1.7 3 1.9 1.3.2 2.5 0 3.8 0a51 51 0 0 1 17.8 1.6 14.5 14.5 0 0 1-7.5 1c-1-.2-1.9-.4-2.8-.4-.9.1-1.7.5-2.5.8a18.6 18.6 0 0 1-7 1l3.6 4.6.8.7c.4.2 1 .1 1.5 0a11.9 11.9 0 0 1 10.9 4.6c.2.3.4.6.7.7s.7 0 1 0l16-3.8c4-1 8.2-2 12.4-1.7 4.2.2 8.5 1.8 11.1 5 1.2-.4 1.9-2 1.7-3.2a4.9 4.9 0 0 0-2.2-3.3c1.8-.3 3.7.2 5.5-.2ZM1256.6 467.2l.2.2 1.6.7a5 5 0 0 0 1.5-2.4c.4-1.7 3.4.3 4 .7l1.6-2.5c.2-.4.4-.8.3-1.2a1.6 1.6 0 0 0-.3-.6c-.5-.7-1.2-1.2-2-1.2-.9 0-1.6.5-2 1.2l-.5.5h-.4l-2.4-.4-1.7 2.6a1 1 0 0 0-.2.3v.4l.2 1.5a.6.6 0 0 0 0 .2ZM444.9 529.9c1.3-.2 2.7-.1 4 .2l.6.3v.4c.2.4.4.7.7.9.3.1.7.1 1-.1l.2-.6c.4-.8.8-1.7 1.6-2.1a.5.5 0 0 1 .3-.1c.2 0 .3.2.4.4.5.6 1.6.6 2.2 0l.3-.3c.2-.2.4-.2.7-.2h1.9c.7 0 1.5 0 2 .6 0 .2.2.4.4.4l.3-.2c.6-.3 2-1.2 1.2-2a6.5 6.5 0 0 0-2.7-1.3h-.3c-.2-.3 0-.7-.1-1-.2-.3-.6-.4-1-.4s-.9 0-1.1-.2c-.3-.3-.3-.8-.6-1h-.9c-.4 0-.7-.4-1-.7-1-.6-2.3 0-3.3-.3-.5-.2-1-.5-1.5-.3l-.4.5c-.4.2-.9.3-1.3.3a7 7 0 0 1-2.5-.3c-.7-.3-1.4-.7-2-.5a2 2 0 0 0-1 .7l-.1.3.2.2 1.5.6c.2 0 .4.1.5.3.2.3 0 .7 0 1 0 .8.7 1.5 1.3 2l-1.3.8-1.5.1c-.9 0-1.8 0-2.7-.3l-.8-.4a2 2 0 0 0-2.3 1 5.8 5.8 0 0 0 4.3 1.7c1 0 1.8-.3 2.8-.4ZM1331.7 615l1.8.8.8.5.4.5c1 1.5 2 3 2.3 4.6.3-.4 1-.6 1.1-1l.2-.6v-1.3l-.1-.7-.6-.5-.8-.7c-.6-.4-1.3-.7-1.8-1.2-.5-.4-.7-1-1.3-1.3l-1.3-.7-.8-.5-.8-.2a2 2 0 0 1-.8-.6 5.4 5.4 0 0 0-1 .6c-.2.2-.5.4-.4.7.6 0 1.1.3 1.6.6l1.5 1ZM1241 613.3c-.5 0-1 0-1.5.4-.3.2-.5.6-.7 1-.2.3-.4.8 0 1 .5.3 1.2.3 1.7.4a25.9 25.9 0 0 0 6 .1h1.5c1 .4 1.5 1.4 2.4 1.4.2-.6-.1-1.2-.4-1.8l-.7-1c0-.2-.2-.4-.4-.5-.1-.2-.4-.2-.6-.2-.7 0-1.3-.4-2-.5a28.8 28.8 0 0 0-5.3-.3ZM1265.5 625c0-.3-.5-.7-.8-1l-.8 1.3-.3.6v.5a7 7 0 0 0 .4 3.3l1-2.2.4-.4.3-.2c.2-.1.2-.4 0-.5l-.2-.6c0-.3.1-.5 0-.8ZM1365.1 635.2a3.3 3.3 0 0 0-1-1.3l-1.3-1-1.2-.6-.9-.3a3.6 3.6 0 0 1-.6-.4l-.4-.3a1 1 0 0 0-.7 0c-.1 0-.5.2-.5.4l.5.5.7.3 1.3 1c.5.4 1.1.8 1.7 1 .9.5 1.8.9 2.4 1.6.2-.2.1-.6 0-.9ZM1241.5 596.4c-.5-.3-1-.6-1.5-.7h-.3l-.1-.2-.7-1.7c-.7 0-1.4.9-1.7 1.5a4 4 0 0 0-.4 2c0 .8.2 1.5.3 2.2.3 1.5.4 3 1 4.3l.6 1c.2.2.5.9.8 1.1.3.2.8-.1 1-.2a.4.4 0 0 0 .2-.1.4.4 0 0 0 .1-.2c0-.4-.1-.7-.3-1l-.7-.9a2.7 2.7 0 0 1-.3-1.9.8.8 0 0 1 .2-.4c.2-.2.4-.2.6-.2h1.3c.2-.5.2-1 .2-1.6v-2.1c.1-.3.2-.5 0-.7a.7.7 0 0 0-.3-.2ZM1355.3 630.7l-1.2-.8-.4-.3a7.8 7.8 0 0 1-1.3-1c-.2 0-.3-.3-.4-.3-.2.2-.5.5-.5.7 0 .2.2.3.3.4l1 .9.6.5.5.2.6.3.6.2h.7l.3-.2-.8-.6ZM1346.8 625.5l-.9-1.2-1.4-2.3-.2.1v.3l-.5.1v.5a11.2 11.2 0 0 0 1.3 4.5l.6 1a4 4 0 0 0 1.5.8c.7.3 1.6.5 2.3 0 .3-.2.5-.6.5-1l-2-1.7-1.2-1.1ZM1295.1 367.2a3.8 3.8 0 0 0-2 2.5v1.6c0 3 0 6 1 8.7.3 1 .8 2 1 3.1.3 1.3.2 2.7 0 4l-.2 4.2-.4 4-.9 5.9c-.1 2 0 4 .9 5.7l2.2-3.3a.9.9 0 0 1 .3-.3c.5-.3 1 .3 1.2.8a5.6 5.6 0 0 0 2.5 2.5c0-1.5.2-3-.4-4.5-.4-.8-1-1.4-1.4-2.1-1-1.4-2-3-1.8-4.6a8 8 0 0 1 1.1-3c.4-.7.8-1.4 1.5-1.6a2.9 2.9 0 0 1 1.6 0l4.3 1.2c-.5-2-1.8-3.7-2.8-5.4a29.4 29.4 0 0 1-3.9-13.4c-.2-3.1 0-6.3-1-9.2-.3-.7-.8-1.4-1.5-1.3-.6.1-1 .7-1.5.7.2.7.8 1.4 1.2 2l.2.7c0 .6-.7.8-1.2 1ZM1303.8 771.5c0-.2 0-.5.3-.6h.7a.5.5 0 0 0 .3-.5c0-.2-.2-.4-.4-.6-.5-.6-1.2-1.3-1.9-.4-.2.3-.3.7-.2 1 0 .4.2.8.6 1l-.4.3h-.2a.1.1 0 0 0 0 .2l.1.5.1.2.3.1a5 5 0 0 0 2.2-.4 4.4 4.4 0 0 1-.9-.3l-.6-.5ZM1289.3 769.4v-.7l.3-1.3c0-.3 0-.6-.3-.8a.8.8 0 0 0-.7 0l-.4.5a3 3 0 0 0-.3 1.8v.3c-.1.1-.3.2-.2.4.1.5 1.4 0 1.6-.2ZM1302.9 773.8c-.7-.2-1.3-.3-2-.2.1.3-.2.5-.6.6l-1-.2a6.5 6.5 0 0 0-1.8-.4 3.1 3.1 0 0 0-1.5.2c-.6.4-1 1-1.2 1.5a9 9 0 0 1-3-1.4c-.6-.5-1.7-1.7-2.3-.6a6 6 0 0 0-.4 3.2c0 .9.4 1.7.5 2.6l.1 1.3c.1.4.4.8 1 1h-1c-.2 0-.5-.1-.6-.4l-.1 2v.4l.4.3c.2.2.2.6 0 .8 0 .3-.2.5-.3.8 0 .6.5 1.1 1 1.6.4.3.8.6 1.3.7.5.1 1.1 0 1.3-.4l.7.5c.4-.3.4-.8.5-1.3.2-.5.5-1 1-1h.8c.3.1.6 0 .6-.2a3 3 0 0 0 1.8.3l.1.6c.5-.6 1-1.3.5-1.9-.2-.2-.4-.3-.4-.5 0-.3.3-.6.6-.8l.6-.3h.3c.2-.1.2-.3.2-.4l.1-1.8c.4 0 .8.3 1.1.5.7-1 1.4-2 1.4-3.1 0-.8-.3-1.6.2-2.3l.5-.7c.1-.2.2-.5 0-.7l-.4-.3Z"/>
    <path d="M1317.4 627.7c-.2-.5-.5-.9-.8-1.2-1-1.1-2.5-1.6-3.9-2l-2.8-1c-.3-.7-.3-1.6-.7-2.3-.3-.6-1-1-1.4-1.3-1.6-1.1-3-2.9-4.8-3.4l-2.4-.4-1.7-.5c-1.8-.6-3.7-.6-5.2-1.7l-1-.8-1-.4c-1-.3-2-.6-3-.5l-4.4-1.3a5.9 5.9 0 0 1-1.5-.6c-.5-.3-1-.8-1.6-1a12.6 12.6 0 0 0-4.2-.3c-1.8.3-3.3 1.3-4.9 2.2a4.7 4.7 0 0 0-2.3 2.7l-.4.8c-.1.3-.4.5-.7.4l-.5-.2a9.9 9.9 0 0 0-4-1.7c0-1.5 0-3.1-.3-4.6-.1-.5-.2-1-.4-1.3l-.9-1.4c-.2-.5-.3-1.1-.8-1.3-.3-.2-.7 0-1.1-.1l-.7-.3a8 8 0 0 0-2.2-.7 3.4 3.4 0 0 0-2.3.3l-1.2.9c-.7.2-1.6 0-2.2.4-1.1.6-2.5.4-3.8.6.7.4 1 1.3 1.6 1.8 1.2 1 3.4.4 4.5 1.5l1 1.4c.5.3 1 .4 1.5.4h5l.2 1.3c-1.2-.1-2.5-.2-3.8 0-1.2.2-2.5.6-3.4 1.5.7.7 2.2.5 2.7 1.4.4.5.2 1.2.2 1.8a2.2 2.2 0 0 0 1.2 1.8c.6.3 1.5.2 2-.4l.5-1c.2-.4.5-.7.9-.6.2 0 .4.2.5.3 1.4 1 3.2 1.2 4.5 2.2l1 .8c.8.4 1.8.1 2.7.4.8.2 1.4.7 2.2 1.1l2.3 1a12.8 12.8 0 0 1 3.5 2.5c.5.5 1.1 1.1 1.2 1.9a6.3 6.3 0 0 1 1.4 3.4c0 .4 0 .8-.3 1-.2.2-.5.2-.7.2-.6 0-1.2.1-1.6.5-.3.2-.5.6-.7.9l-1 1.6c-.2.5-.5 1-.4 1.6 1.3 0 2.7 0 4-.2.6-.1 1.3-.3 1.7-.8l.3-.4a.9.9 0 0 1 .5 0c1.6 0 3.2.7 4.5 1.8 1 .9 2 2.2 3.5 2.3l1.4-.1c.8 0 1.5 0 2.2.3l1.1.3a2 2 0 0 0 1-.4c.9-.5 1.7-1 2.4-1.6a.7.7 0 0 0 .3-.2v-.4c-.2-.7-.5-1.4-.2-2 1.8 0 3.2-1.7 5-1.8 1.3 0 2.6.6 4 .9.6 0 1.3.1 1.7.6.2.2.3.6.4 1a8 8 0 0 0 1.3 2.3 29.1 29.1 0 0 0 2.8 3.4l1.3 1c.9.4 1.9.5 2.8.6 1.6.1 3.1.4 4.6.7.8 0 1.5.2 2 .7l.5.5h.6a9.6 9.6 0 0 0 2.6-.6v-.5a19 19 0 0 0-4.2-2.4l1-.3c0-.2-.3-.4-.5-.5-.7 0-1.4 0-2-.4-.5-.4-.9-1.2-.4-1.7-.8-.2-1.7.5-2.5.1-.4-.2-.7-.6-.9-1a15 15 0 0 0-3.2-4.7c-.6-.4-1.2-.8-1.6-1.4-.6-1-.5-2.1-.4-3.2 1 0 1.9 0 2.8-.2ZM1205.2 557.4c-.5.2-1 1.4-1.3 1.9a50 50 0 0 0-1 1.9c-.5.8-1 1.8-1.7 2.4l-1.5 1a11.2 11.2 0 0 0-4 4.8l2.7-1.8c.6-.3 1.2-.5 1.7-.9a8.6 8.6 0 0 0 1.8-1.7l1.5-1.9c.8-1 1.7-2 2.8-2.2a20 20 0 0 1-.5-2.3c0-.4.1-1.5-.6-1.2ZM1368.2 639.7l-.9-.3-2-.3-.4-.1s-.3-.1-.4 0c-.1 0 0 .1 0 .2l-.2.4v.4c-.1.3.1.6.4.8.5.4 1.2.5 1.8.6h2.6l-.2-1a1.6 1.6 0 0 0-.7-.7ZM1291.3 418a7.8 7.8 0 0 0-4.7 1.2v5.8c-.1 1.1 0 2.4.8 3.1.8.6 2 .5 2.9 0a5.4 5.4 0 0 0 1.7-2.6c.3-1 .6-2 1.1-2.8a24 24 0 0 0 6.6 3.4 31.6 31.6 0 0 1 2.5-4.5l.7-.8.8-.1 3.3-.1c.3 0 .5 0 .7-.2v-.6l-.7-5.2-1.3 1.2-.4.2c-.4 0-.7-.2-1-.5-1.7-2.1-4.2-3.3-6.5-4.6-.7-.4-2.5-2-3.3-2-.8.2-1.7 2.6-2 3.3-.6 1.7-.5 3.5-.5 5.3l-.1.5h-.6ZM1214.2 637.3c1.1-.3 2.2-.8 3.4-.7l.5-.1.4-.5c.2-.5.9-1.4.2-1.8-.6-.3-1.8.4-2.3.6-1 .4-2 .7-2.9.7a4 4 0 0 1-2.5-.4c-.2-.1-.3-.3-.5-.3-.6-.2-1 .3-1.6.5-.7.1-1.4-.1-1.9.4a.9.9 0 0 0-.2.6c0 .4.3.7.6.8.2.2.5.2.7.2 2 .3 4.1.5 6.1 0ZM1339.5 714.6c0-.6.2-1.1 0-1.7l-.2-.5c-.1-.4 0-1 .1-1.3l.7-2 .2-1.3c0-.6-.3-1.2-.4-1.9a5 5 0 0 1-.1-2.3v-.4h-.4c-1.2-.4-1.6-1.5-2-2.4a9.1 9.1 0 0 0-1.4-2 2.4 2.4 0 0 1-2-.4 5.5 5.5 0 0 1-1.3-1.3c0-.6.1-1.2.5-1.8.3-.5.7-1.1.7-1.8a1.6 1.6 0 0 0-1-1.6c0 .3.1.7.4 1-.4-.2-.8.3-1.3.2-.2 0-.4-.3-.5-.5l-1-1.6-.2 1.4c-.3.1-.6 0-.8-.2l-.4-.7-.8-2.2a1 1 0 0 1 0-.5c0-.2.2-.4.4-.4a13.1 13.1 0 0 0-2.8-3.4 8.7 8.7 0 0 0 2.1-.6c-.5 0-1-.4-1.2-.8l-.2-.2c-.2-.2-.6-.1-.9-.1-.7 0-1-.7-1.6-1a2.7 2.7 0 0 0-2.3-.4c.4-.2.5-.6.4-1-.2-.3-.5-.6-.9-.8a.6.6 0 0 0-.2 0c-.2 0-.3 0-.5.2-.5.3-1.2 0-1.5-.5-.4-.4-.7-1-1.2-1.1.1-.7-.4-1.5-.2-2.2 0-.3.2-.6.4-1a3 3 0 0 0 0-2.2l-.4-1a2.1 2.1 0 0 1-.1-.8v-.3c-.1-.2-.4-.3-.6-.3-.5-.2-.9-.7-1-1.1-.1-.8-.2-1.7-.1-2.5v-3c0-.1 0-.3.2-.5l-1-.7-.7-.7-.8-.4c.3 0 .3-.4 0-.6-.2-.1-.5 0-.8 0l-.4.4c-.1-.3-.5-.3-.7-.2-.2 0-.3.2-.4.3a.9.9 0 0 1-.4 0h-.5a.8.8 0 0 1-.5-.5 1.7 1.7 0 0 1 0-.7v-.8l-.1-.2c-.4-.4-.2-1 0-1.4.5-1 0-2.1-.6-3a1.2 1.2 0 0 1-.3-.6l.1-.6c0-.4-.2-.7-.6-.8l-.6-.1c-.1 0-.3-.2-.2-.3-.5-.2-.5-.8-.3-1.2.2-.5.4-1 .2-1.3-.2-.3-.5-.4-.9-.6-.3-.1-.6-.4-.5-.7-.4.2-.5.6-.5 1l-.4 1.8c-.1.7-.3 1.5-1.1 1.8a2.8 2.8 0 0 1-1 1.5c.7.1 1.3.7 1.2 1.3a1 1 0 0 1-.7-.1c-.5.6-.7 1.4-.5 2 0 .3.1.5-.1.6h-.3a.5.5 0 0 0-.2.3c-.6.7-.9 1.6-.7 2.5l.3 1.3-.2 1.3-.1.5-.3.3c-.3.4-.3 1-.3 1.5a6.6 6.6 0 0 1-1.2 3v1.6c-.4 0-.7.2-1 .4a.6.6 0 0 0-.1.1c-.2.3.1.6.1 1s-.5.6-1 .7l-1.4.7c-.3.2-.6.3-1 .3l-.4-.2a3 3 0 0 0-1.3-.3h-.5c-.4-.2-.5-.7-.7-1-.3-.6-1-.8-1.3-1.4l-.4-.5-.7.1c-.4 0-.7-.2-1-.4-.7-.3-1.7-.1-2.4-.4.2-.2-.1-.5-.3-.7l-2.6-2.6a.9.9 0 0 0 0 .2 342 342 0 0 1-1.5-.2 2.3 2.3 0 0 1-.9-.2l-.6-.6a4.3 4.3 0 0 0-1.4-1l-.6-.5c-.2-.2-.2-.5-.2-.7v-1.5l.1-.6c0-.2.2-.4.3-.5l1.4-2h-1.1l.1-.8.1-.4c.2-.5.7-.7 1.2-1 .5.2.8.6 1.2.6.4 0 .7-.2.8-.5 0-.3-.1-.6-.4-.8l-.2-.3.3-.3c.3-.1.8-.2 1.2-.1 0-.5.3-.9.8-1.2l.5-.3a.5.5 0 0 0 0-.8.9.9 0 0 0-1 0l-.5.2c-.5 0-.6-.6-1.1-.7l-.6.3c-.2.2-.5.4-.3.7l.1.2c.2.3-.2.6-.6.6-.6 0-1.1-.4-1.1-1-.2.2-.5.3-.8.3 0-.4.8-.6 1-1 0-.4-.6-.6-1-.7h-.4l-.4.2c-.5.5-1.5.6-2.3.7l-.7-.1-.2-.2-.7.1c-.4.2-1 .2-1.5 0-.5-.3-.9-.8-1.5-.8-.4 0-.9.1-1-.1-.2-.2-.1-.3-.2-.5 0-.3-.4-.6-.8-.6h-1.3c0 .3-.2.5-.4.7-.3.2-.5.4-.4.6 0 .2.2.2.3.3.2.3 0 .6-.4.8s-.7 0-1 .2c-.3 0-.6.3-1 .3-.3 0-.7-.3-1.1-.3-.4 0-.7.1-1 .3-.4.1-.8.2-1.1 0l-.9.7c-.2-.1-.6 0-.7.2.3 0 .5.2.5.4s-.3.3-.6.3a.9.9 0 0 1-.6-.3c-.3.2-.2.6.1.7-.5.4-1.3 0-1.9 0 0 .3.2.5.4.6-.1.2-.4.2-.6.3-.2.1-.4.3-.3.5l.4.3c0 .1.2.4 0 .5a1 1 0 0 1-1-.2c-.2.2 0 .5-.2.7 0 .2-.2.3-.4.4-.7.5-.9 1.3-1.6 1.8l-.6.3c-.2 0-.3.3-.3.5.1.2.4.3.7.4h.8c.2 0 .3.2.3.3 0 .2-.2.2-.4.3-.1 0-.3.2-.2.3.4 0 .8 0 1.2.3l.1.1c0 .1 0 .2-.2.3-.5 0-1-.3-1.3-.7-.2.2 0 .6.2.8l.6 1c-.5.2-1.2 0-1.4-.4l-.3-.4c-.1-.1-.3-.1-.4 0-.1.2-.3.1-.4 0a3.9 3.9 0 0 0-2.3-.8c-.2 0-.5 0-.5.2v.2c0 .2-.3.3-.6.4l-.3-.2.3.9v.2c-.1.1-.3.1-.4 0a.6.6 0 0 1-.2-.3c0 .2 0 .5-.3.6h-.4a4.2 4.2 0 0 0-1.4.4c-.2-.4.3-.7.6-.9.6-.4 1-.9 1.5-1.4.1-.2.2-.4.1-.5 0-.3-.5-.2-.8-.3-.4-.1-.6-.5-.8-.9-.6-1-2-1.4-3.2-1.6-.3-.1-.6-.2-.6-.4-.2.3.3.6.3 1 0 .1-.3.3-.5.3-.3 0-.5-.2-.4-.4l-.6-.2-.3.6-.5-.6c-.4 0-.6.4-.6.7-.1.3-.3.6-.7.6l.7.7c-.2.2-.6.1-.9 0l-.6-.6h-.6l-1.4 1.1c.3.1.5.2.6.4.2.2.3.4.1.6a.8.8 0 0 1-.3.2c-.3.2-.7.3-1 .3h-.3a.4.4 0 0 0-.1.1 2.2 2.2 0 0 0-.3.5h.6c.3.2.2.7-.2.7-.3.1-.7 0-.9-.3 0 0-.1-.2-.3-.2v.1l-1 .8c.4.4.8 1 .4 1.4l-.6.6c-.1.2 0 .6.2.6a.8.8 0 0 1-.3.3c.2.2.5.3.8.2l-.6.7c-.3.1-.7.2-1 0-.2-.1-.3-.4-.4-.6l-.5-.5c-.3 0-.6.2-.5.4-.4 0-.5-.6-1-.6a.5.5 0 0 0-.2.2c-.2.3-.3.6-.3 1h.4c-.2.3 0 .7.4.9h.4v.6l-.2.5c-.3 0-.5-.2-.7-.4l.4 1v.3c0 .3-.8.2-.9.5a58 58 0 0 1-2-4.4l-.1 1.7v.3c-.2.2-.6.2-.9.1l-.8-.2-.2.1-.2.3c0 .4-.6.5-.9.8a1 1 0 0 0-.1.5l-.2 1.8.3.6a9 9 0 0 0-1.5 1l-.2.2v.4c0 .2-.2.4-.5.5-.3 0-.5 0-.8.2-.3 0-.6.3-.8.6l-.2.5c-.2.5-.5 1-1 1.5a8.3 8.3 0 0 1-1.2.8l-.6.2c-.8.2-1.6.4-2.3.8a12.5 12.5 0 0 0-3.5 0l-.7.1-.7.4c-1 .7-2.6.3-3.6.9-.3.2-.6.5-1 .6h-1.3c-1 .2-1.8.7-2.6.5l-.6-.1c-.6 0-1 .4-1.4.6-.5.3-1 .4-1.6.5-.6 0-1.2.2-1.5.6-.2.3-.3.6-.6.8l-.5.2-1.6.5c-.4.1-.9.3-.8.7 0 .4-.6.8-1 1h-.3l.2.7-.3.3h-.5l-.3-.1a.3.3 0 0 1 0-.2c-.1-.2 0-.4.1-.6.1-.2.3-.4.2-.6 0-.2-.3-.4-.5-.4l-.2.2-1 .8c-.2 0-.3.2-.4.3a2 2 0 0 0-.3.8l-.5 1.9v.3h.4c.4.1.6.6.5 1 0 .3-.4.6-.7.9a6.5 6.5 0 0 0-1.5 2.3 3 3 0 0 0-.2 1.3l.2.8.8 2.5c.1.5.3 1 .8 1.2v1.2l.2.2c.2.2.2.5 0 .8l-.5.8c0 .2 0 .3-.2.4-.2.1-.5-.1-.5-.3v-.6c0-.4-.5-.6-.6-1l-.2-.6c0-.3-.1-.5-.4-.6l-.5-.3-.1 1.2v.3c0 .2.2.3.3.4.6.5.9 1.3.8 2a.3.3 0 0 1-.1.2h-.5l-.2-.4c-.3-.6-.9-1-1-1.6-.1.5 0 1.1.3 1.6l.8.7c.3.3.7.6.8 1l.2.6c.3 1.5.4 3 .4 4.6 0 .9.7 1.6 1 2.3.5 1.2 1 2.4.6 3.6-.2.5-.5 1-.5 1.6 0 .4.2.8.3 1.1.2.5.3 1 .2 1.5l.1 1.7c.1.6.7 1 1 1.5.3.4.4 1 0 1.5-.3.3-.8.5-.8.8l.2.6c.3.7-.2 1.4-.6 2 .3.3-.2.8-.5 1-.3.4-.7.8-.4 1.1-.5.1-1 .4-1.2.7a4.4 4.4 0 0 1-.8-.5c-.8.8-.8 2-.8 3 0 .3 0 .7.4.8l.4.1c1.4.2 2 1.5 2.7 2.4 1.2 0 2.4 0 3.6.2.5 0 1 0 1.3.5 0-.3.5-.4.9-.4s.7.2 1 0l.7-.2.9-.6c.3-.2.7-.6.4-.9a2 2 0 0 0 2-.2l.4-.2c.2 0 .3.2.5.3.3.2.9 0 1.2-.2.4-.2.8-.6 1.2-.5a3 3 0 0 0-.4-2.1 3.7 3.7 0 0 1 1.9-.3c.6.1 1.1.7.8 1.2.7 0 1.3-.2 2-.5.5-.3 1.3-.4 1.8-.2.3.2.5.4.8.4l.4-.2c.4-.1.8.1 1.2.2.3.1.9 0 1-.3.2.2.5.4.6.7a2.5 2.5 0 0 1 3 0l2.5-.7c.2-.1.5-.2.6-.4.5-.5 0-1.3.6-1.6l.8-.4.2-.4c.3-.8 1.6-1 2.7-1 1.2 0 2-1 3-1.5 1.1-.4 2.2-1 3.3-1.1h1.5c.6 0 1 .3 1.5.4 1.6.4 3-.6 4.6-.8 1-.2 2.2 0 2.9-.6.3-.2.5-.5.8-.6l.7-.1c2-.1 4 0 5.9.1h1.4l1-.2 1 .3c.7.4 1.5.9 2 1.5l.6.6c.2.2.5.2.8.1l.3-.2c.4-.3 1-.2 1.5 0l1.2.8c.4.1.8 0 1.2-.1 0 .5.6 1 1.2 1.2l1.6 1s.2.2.1.3h-2c0 .8.7 1.5 1.4 2 .4.3.8.5 1 .8.1.4 0 .9-.4 1l1 2.5c0 .3.1.6 0 .8a.7.7 0 0 1-.6.6c-.2.3 0 .7.4 1l1.3.5c.2 0 .4.1.4.3 0 .2-.4.4-.3.6l1-.3c.3-.4-.2-1.1-.8-1.2.3-.4 1-.5 1.3-.8.5-.3.7-.8 1.1-1 .3-.3.7-.3 1-.6.4-.3.3-1 .5-1.4.3-.5.8-1 1.4-1l1.2-.3c.4-.2.6-.7.9-1 .4-.5 1-.9 1.8-1-.1-.7.2-1.5.6-2.1.4.8.7 1.8.5 2.7 0 .7-.5 1.3-.8 2-.3.3-.6.8-1 1-.6.2-1.3.1-1.6.5-.1.2 0 .5 0 .8-.1 1-1 2-1 3.2v.5a.5.5 0 0 1-.3 0c-.5-.1-1-.4-1.1-.8a106 106 0 0 0-.7 0c.2.3.1.7 0 1-.2.2-.4.5-.3.8a13 13 0 0 0 2-.2c0-.2.1-.4.3-.5.1.3.5.5.9.6 0-.7.3-1.3.8-1.8l1.4-1.6c.2-.4.5-.8 1-.8.2 1.2.3 2.3.3 3.5 0 .8-.2 1.8-1 2.2-.5-.1-1 .3-1.2.7.6.1 1.2 0 1.7-.2 1 .2 2-.2 2.6-.8l1.7.2c-.5.2-1 .4-1.3.8l-.2.3a.8.8 0 0 1-.3.1c-.5.2-1.1.3-1.2.7 0 .4.3.6.6 1 .8.9.2 2.2.5 3.4l.2 1c0 .6-.6 1.1-.4 1.7.2.6 1.3.7 1.8 1.3.7.8 0 2.2.9 2.8l.7.4c.8.5 1.3 1.5 2.3 1.5l.6-.6a7 7 0 0 1 3 1.7c.2.3.5.6.9.7l1.1.3c.3 0 .5.2.7.3.5 0 1-.3 1.4-.6.8-.7 2-1.5 3.1-1.3.2-.2 0-.4-.1-.5-.1-.2-.3-.3-.3-.5l.2-.3.7-.6c.4-.3.8-.7 1.3-.8l.7.4c.3 0 .6.3.7.5 0 .3-.1.6-.3.8l-1 .5a1 1 0 0 0-.2.2l-.1.4c0 .2 0 .5.2.6.3 0 .5-.2.5-.5 0-.2.2-.5.5-.5h.7c.2.3.3.7.2 1.1-.6.2-1 .6-1 1.1l.1.2.3.1a2 2 0 0 1 1 1.1l.4.5h.9l.5.5.7 1c.3-.6.4-1.4 0-2-.1-.1-.4-.3-.5-.6-.1-.2 0-.6.4-.6l.2.1c.3.2.5.4.6.7h.8c.7-.7 1.9-.9 2.6-1.5.4-.3.6-.8 1-1.2.3-.4.8-.7 1.4-.6a3.6 3.6 0 0 0-1.8-.2v-.6c.7-.2 1.2.3 1.9.5 1 .3 2-.6 3.2-.7.8 0 1.5.3 2.3.5.8 0 1.8-.2 1.9-.8v-.5c.4-.4 1.3 0 1.5-.5v-.5a3.1 3.1 0 0 1 .6-2.7c.5-.6 1.2-1.1 1.4-1.8v-1c.1-1.8 1.7-3.4 3.2-4.7.7-.6 1.5-1.3 1.5-2.1v-1c.2-.4.5-.6.7-.8a5.9 5.9 0 0 0 2-3.6c-.2 0-.5-.2-.6-.5-.1-.3.3-.6.8-.7.4-.1.9-.1 1.3-.3.4-.3.6-.8.9-1.1.6-1 2-1.3 3.2-1.6a2.6 2.6 0 0 0-.3 0c.5-.2 1-.4 1.3-.8.7-.8.5-1.9.9-2.8.2-.6.8-1.1 1.4-1.4l1.5-.7c.6-.5.6-1.3.3-2-.2-.7-.6-1.4-.6-2.1 0-.7.5-1.3 1-2 .5-.8 1.2-1.6 2-2.3.4-.5.9-1 1-1.7.1-.3 0-.7.3-1 .3-.5 1.3-.7 1.5-1.3a3.6 3.6 0 0 1-1.4-3ZM1277.2 448.3a3 3 0 0 1-1 .1c-1 0-1.7-.7-2.6-.8a202 202 0 0 1-3.7 7.3 1 1 0 0 1-.3.5c-.3.1-.7 0-1-.2-1.6-.8-3.5-.6-5.2-.4-3 .4-6 .9-8.3 2.6-1 .7-1.9 1.6-3 2.2-.6.4-1.3.6-1.8 1.2-.3.4-.4.8-.6 1.3-1.1 2.4-4.2 3.2-6.3 5l3.5 2.6c.3.1.5.3.7.6.5.9 0 2 0 3s.6 2 1.6 2.3c2.6-.4 4.4-3 4.7-5.7.1-1.4-.1-3-1.2-3.8-.5-.4-1-.6-1.2-1-.5-1 .5-2 1.5-2.1 1-.2 2 0 2.9-.2.8-.1 1.6-.6 2.3-1 2.4-1.4 5-2 7.8-1.7.2 0 .4 0 .6.2.4.3.1 1 0 1.5 0 1.1.8 2.2 2 2.6a8 8 0 0 0 3.3.3c.5 0 .9 0 1.3-.3l.7-1.1c1-2 3-3 5.2-3.5 2-.6 4.3-.7 6.3-1.3 2-.7 4-2.1 4.6-4.2.1-.3.2-.5 0-.8-.1-.5-.7-.7-1-1.1-.4-.9.5-1.7 1-2.5 1.6-2.4-.1-5.9 1.5-8.3l1.8-2c1-1.3 1.1-3 1.2-4.8 0-1 0-2.1-.2-3.1-.3-1-1.4-2.9-2.6-3-.6-.2-1 .3-1.6.5-.7.2-1.4.3-2 .7-1 .6-1.6 1.8-1.7 3-.2 1.1 0 2.3 0 3.5a12.7 12.7 0 0 1-9.2 11.9ZM768.3 422.4l-.8.5c-.6.5-.8 1.4-1 2.2v.6c0 .3.2.5.4.7l.6 1.2.1.4.2.2c.6.3 1.5.7 2 .2.3-.4.3-1 .5-1.4l.5-1.6v-.6c.1-.5-.1-1-.2-1.6a8.8 8.8 0 0 1-.2-2.5 11 11 0 0 1-2 1.7Z"/>
    <path d="m1472.4 287.7-1.3-1a5.8 5.8 0 0 0-2.7-.3c-2.4.1-4.7.3-7.1.6.4 1.4.6 2.8.7 4.2-1 .2-1.9-.2-2.4-1a3 3 0 0 1-.2-2.6c.1-.5.4-1 .4-1.5 0-.8-.5-1.4-1.2-1.7a5.7 5.7 0 0 0-2-.4 41.9 41.9 0 0 0-10.4-8.7c-1.2-.8-2.5-1.5-3.6-2.4-.3-.3-.6-.7-1-.9-.7-.4-1.5-.6-2.2-.8-1-.4-1.9-1-2.8-1.5-1-.4-2.1-.7-3.1-.3-3.5-1.8-7.9-1.7-11.8-1.8-3.8-.1-7.6-.5-11.3-1.2-1.3-.2-2.7-.4-3.8.3-1 .8-1.3 2.3-1 3.6.4 1.3 1.3 2.3 2.1 3.3l-3.5 1.8c-.3.1-.6.3-1 .2l-.6-.3-2.2-2.2c-.9-1-1.7-2.4-3-3a6.9 6.9 0 0 0-3.6-.2l-5.6.5c-4.5-1-9.2-1.8-13.8-1-1.3.2-2.7.7-4 .7-1.8 0-3.5-.6-5-1.2-.6-.1-1-.3-1.4-.7-.7-1 0-2.2-.1-3.4-.1-1.3-1.3-2.4-2.3-3.3a8.8 8.8 0 0 0-2.7-1.8 8 8 0 0 0-2.6-.3 46 46 0 0 0-11.5 1.4c-2.1.5-4.2 1.1-6.4.8-1.8-.3-3.4-1.3-4.9-2.4a59.2 59.2 0 0 1-6.7-5.5c-1-1-2.2-2.1-3.5-2.8a58.5 58.5 0 0 0-13-1.7c-7.6 0-14.9-2.7-22.5-3-1.2 0-2.4 0-3.4.7a6.2 6.2 0 0 0-1.6 1.7l-.3.6c0 .3.2.5.3.7a15.4 15.4 0 0 1 2.7 5.8l-5.5-.5a4.2 4.2 0 0 0-1.6 0c-.8.3-1.4 1-2.2 1.4-2.3 1-4.6-1.5-7.1-1.8-2.1-.1-4 1.3-6.1 1.4-3.3.2-5.9-2.8-9-3.1-2.2 2.1.1 6.5-2.1 8.5-1.5-1.6-3.8-2.1-5.7-3.3-1.8-1.2-3.3-3-4.6-4.7-.4-.4-.8-1-.9-1.6 0-1.6 2.2-2.2 2.9-3.7-1-1.7-1.8-3.5-3.5-4.5-1.4-.9-3.1-1-4.6-1.9-.8-.4-1.4-1.1-2.3-1.5a7.3 7.3 0 0 0-3-.4l-10.4.3c.2 1.3.2 3-1 3.5-.4.3-1.1.7-.8 1l-9.3.2c-1.4 0-3 0-4.1-.8-1.3-1-1.9-2.5-2.4-4-3 .8-6.1 0-9.2-.4-3-.5-6.4-.7-8.9 1.2-.6.4-1.3 1-2 .7-.3-.2-.5-.5-.7-.9l-1.8-3.6c-3 1.3-6.5.4-9.6-.6-1.4-.4-3-1-3.4-2.4 4.9-3.1 10-6.4 15.9-6.8a5.8 5.8 0 0 0-.7-7 10.8 10.8 0 0 0-3.2-2 32 32 0 0 0-15.6-4c-1.5 0-3 .4-4.1 1.4-.6.5-1.3 1.3-2.1 1-.4 0-.6-.3-.8-.6-.8-1 .5-1.8 0-3-2.3.2-6.2.2-8.2-1 1.5-.2 3-1.7 4.4-2.3-1.8-.2-3.1-1-4.7-1.9-1-.6-2.1-1.3-3.2-1-.8.1-1.4.7-2 1.1-1.2.7-2.5.8-3.8 1-2.2.5-3 2.5-5 3.7-.4.2-.7.4-1 .8l-.1 1a8.2 8.2 0 0 1-1.1 3c-2.5-.2-5-.8-7.2.2-1.5.6-3 1.1-4.3 2-1.8 1.2-2.5 1.4-4.4 2.2a15.1 15.1 0 0 0-3-1.6 6 6 0 0 0-1.1-.4 7.6 7.6 0 0 0-1.8 0 20.4 20.4 0 0 0-5 .5c-.9.3-1.8.7-2.7.7h-.3a.5.5 0 0 0-.2.1 7.5 7.5 0 0 0-1.4 2.4 33 33 0 0 0-11.2.9 16.9 16.9 0 0 0-5.6 3l-.5.4-.9.1-2.5.2c-.8 0-1.5.1-2.2.5a45.8 45.8 0 0 0-2.8 3.4c-.3.6-.8 1-1.2 1.5l3 4c-2.8.1-5.5.4-8.2.8-1.4.2-2.8 0-4.2-.1-1.9-.2-3.7-.7-5.5-.3a46 46 0 0 1-7.3 2.1c-.1 1.1.3 2.2.6 3.4.3 1.4.4 2.8.3 4.3l2.5 3.7a6 6 0 0 1 1.1 2.3c-2.3-2-5.5-2.7-8-4.4l-6.2.5c-.7 0-1.3 0-2 .3-2 .6-3.6 2.5-5.7 2.9-.1 1.7 1.3 3.3 1.3 5-1-.5-2.3-.9-3.5-1l-.4-.2v-.2a26 26 0 0 1 1.4-6.4.9.9 0 0 0 0-.4.9.9 0 0 0 0-.3l-1.4-2.2a9 9 0 0 0-1.3-1.8s-.1-.2-.3-.2a.6.6 0 0 0-.3 0l-1.3.6a6.7 6.7 0 0 1 1.2 5l-.1.3-.3.3-2.4 2.4c-.7.7-1.6 1.1-2.4 1.6-.6.3-1.3.6-2 .7a3.8 3.8 0 0 1 2 1 9.5 9.5 0 0 1 2.1 2.8c.4.7.6 1.5 1 2l.3.4v.3a77 77 0 0 1-.8 2.1 5.2 5.2 0 0 1-.7 1.6l-.7.8a4 4 0 0 0-1 1.6c.6 1.4 1 2.9 1 4.3l4.7 1.1a8.5 8.5 0 0 0-2.2 3.9c.2 0 .2 0 .3.2a16.1 16.1 0 0 1 2 3.8l-.1.3c-.8 1-1.6 2-2.6 2.6l-.6.6c-.2.3-.3.7-.3 1a7.5 7.5 0 0 1-.5 2c-.7 0-1.4 0-2 .2l-1.5 1-1 .7a7.3 7.3 0 0 0-1.8 2.1 6.6 6.6 0 0 0-2.7-.7 513 513 0 0 0-1.4-.2c0-.5.4-.9.8-1.2 1-.9 2-1.5 3-2.3a12.9 12.9 0 0 0 3.2-4.6c.8-1.7 1.3-3.5 2-5.2a9 9 0 0 0-2-3.5c-.5-.7-1.2-1.4-2-1.7-.3-4.2-.3-8.4-.8-12.6a7.3 7.3 0 0 0-.6-2.2c-.4-.9-1-1.6-1.5-2.4l1.5-2.6a13.5 13.5 0 0 1 2.2-2.8v-.2a8.7 8.7 0 0 0-.9-4.1 66.1 66.1 0 0 0-10.1-2 1.5 1.5 0 0 0-.4 0l-.6.1-2.1 1.3a1.9 1.9 0 0 0-.5.3c-.2.2-.2.4-.3.7a216.5 216.5 0 0 0-1.8 5.5l-.2.5-.6.5a24.8 24.8 0 0 0-6.6 6.3v3.1l.3.8 1.1 3c.2.4.4.9.3 1.3 0 1.1-1.2 2-1.4 3 .5.1 1 0 1.6 0a7 7 0 0 1 3.6 1c.5.3.3 1 .6 1.4l.7.5a11 11 0 0 1 2.6 2.5l.2.5-.2.3-2.2 2.4-.2.2-.3-.2-2.6-1.9a8.2 8.2 0 0 1-1.1-.9l-.6-.6c-.5-.4-1.2-.5-1.8-.7-1-.4-1.7-1-2.6-1.4a19.5 19.5 0 0 0-3.9-1.4c-5.5-1.6-11-4-16.6-4.5-.8 0-1.6-.1-2.2-.5-.9.8-1.6 1.7-2.4 2.7a8.9 8.9 0 0 1 3.2 1.5 4.6 4.6 0 0 1 1.8 3c-1 .2-1.8.9-2.4 1.7-.7.7-1.3 1.6-2 2.2a3 3 0 0 0-1.4-1.6l-2-1c-.6-.4-1.2-1-1.6-1.7a50.1 50.1 0 0 0-4.8 2.2l-1.3.6c-2.2 1-4.6.5-7 .4h-.7a2 2 0 0 0-.7.6l-1 .9-.4.4-.7.1c-1.6.2-3.2.1-4.8 0 .3-1 1.3-1.4 2-2a10 10 0 0 0 2.6-2.5l-2.6-.5h-1.3a4.9 4.9 0 0 0-1.6.6l-3.4 1.8-2.2 1.2a46.3 46.3 0 0 1-6.4 2.2c-2.1.7-4 1.8-6.2 2.6-.5.3-1 .5-1.4 1-.5.5-.5 1.3-.6 2a7.1 7.1 0 0 1-.5 1.9s0 .2-.2.3l-.4.3c-1.4.5-3 .4-4.4.8-.4.1-.8.3-1.3.2a2.1 2.1 0 0 1-.6-.3l-1.5-1a1.9 1.9 0 0 1-.6-.6l-.1-.7c-.1-1.2 0-2.5.2-3.7l4.6-.3c-.3-.4-.4-.8-.5-1.2a12.9 12.9 0 0 0-1.8-3.4.5.5 0 0 0-.2-.2h-.4c-1.8.4-3.6.2-5.4 0-1-.2-2.2-.4-3-1l-.7-.6a2.7 2.7 0 0 0-1.3-.3 14.1 14.1 0 0 0 2.5 4.8l.3.6-.1.4a18 18 0 0 1-1.2 2.4l-.2.4c0 .3.2.5.3.7l1.6 2c.4.6 1 1.2.9 2 0 .5-.2 1-.5 1.3-.4.9-1 1.7-1.5 2.4-.7-.6-1.5-1-2.3-1.3a10 10 0 0 0-1.3-.6c-.7-.3-1.4-.3-2-.4l-1.6-.1h-.4a1.7 1.7 0 0 0-.4.3l-4.8 3.3c-.6.4-1.2.8-1.6 1.3-.5.5-.8 1.1-1.4 1.3-.3.1-.6.2-.6.4v.4c.9 1.4 2.1 2.6 2.2 4.2l-3.3 1.2h-.3c-.2 0-.2-.1-.3-.2-.7-.7-1.7-.9-2.6-1.2-1.9-.7-3.6-2-5.6-2.4a1 1 0 0 0-.4 0 1 1 0 0 0-.3.2 7 7 0 0 0-2.2 2.1c0 .1-.2.2-.1.4l.1.2 2.6 2.8c-.4.8-.7 1.7-.8 2.6-.9-.8-2-1.2-3.1-1.6-1.1-.4-2.2-.9-3.4-1.2-.6-.1-1.3-.3-1.7-.8a56 56 0 0 0 0-9.3 1.5 1.5 0 0 0-.6-.5c-2-1.4-4.5-2.4-6-4.3.7 0 1.3-.7 2-1 1-.2 2 .3 2.8.7 4.5 2.2 9.6 2.6 14.3 4.2l1.2.3 1-.3 6.1-2a5 5 0 0 0 1.2-.4l.9-.8 2-2.3c-.4-1.3-.4-2.8-.5-4.2v-.3a.5.5 0 0 0-.2-.1 8.4 8.4 0 0 1-2.8-2.3l-.5-.7a4 4 0 0 0-.8-.5l-4-2.3-1.6-.8a21 21 0 0 0-5.8-2.7c-.6-.2-1.2-.3-1.7-.6-.4-.2-.8-.5-1.3-.6-.4-.2-.9-.2-1.3-.3-2.9-.2-5.7-1.2-8.6-1.2-.7-.5-1.3-1.4-2-2-1.7-1.2-4.1-.9-5.6-2.3a5.9 5.9 0 0 1-3.5 2 .4.4 0 0 1-.2 0 25.2 25.2 0 0 1-3.8-4.1l5.7-2c-1.3-.2-2.4-1-3.6-1.6a16.5 16.5 0 0 0-3.5-1.3c-1.8-.4-3.4-1.5-5.2-2a4 4 0 0 0-1-.3c-.5 0-1 .2-1.4.3-4 1.3-8.3 1.6-12.4.9-.3 0-.5-.1-.8 0l-.7.3a20.7 20.7 0 0 0-5 5.8c-2-.4-4 0-6-.3l-1.1-.1a4.3 4.3 0 0 0-1 .2l-3.8 1.2c-1 .3-2 .6-2.8 1a6.2 6.2 0 0 0-2.4 2c-.9 1.2-2.4 1.8-3.8 2.6-1.5 1-2.8 2.2-4.1 3.3s-3 2.2-4 3.6l-.5.8-1 .5a8.4 8.4 0 0 0-2.3 1.5c-1.2 1-1.9 2.6-2.8 4-2 2.5-3.6 5.3-5.7 7.9l-1.6 2.2-2 1.7a12.4 12.4 0 0 0-2.9 3.1c-.6 1.1-1 2.4-1.8 3.5-1 1.2-2.1 2-3.3 3-2.8 1.9-6 3-9 4.8l-2.6 1.7c-.9.5-1.8.8-2.7 1.4-1.2.7-2 1.8-3 2.8-.4.5-.9 1-1 1.7-.5 1.2 0 2.5 0 3.8 0 3.6 1.4 7.2 1.4 10.8 0 1 0 2 .3 3a6.1 6.1 0 0 0 2 2.7c.6.6 1.4 1 2.1 1.5l1.8 1c.2.2.5.4.8.4.4 0 .6-.3 1-.5.8-.6 2-.7 3-1 2-.6 3.8-1.7 5.2-3.2 1-1 1.7-2.2 2.7-3.2.2-.2.5-.4.8-.4.2 0 .3.2.5.3a15.7 15.7 0 0 1 3.2 4.3c3.1 5.8 5.8 12 6.6 18.5l4-.2h.5c.4-.2.6-.6.7-1l1.6-3.1.1-.2a.5.5 0 0 1 .3 0c1.5 0 3 .2 4.5.6a20 20 0 0 0 2.7-7c.3-2.5 1.2-5 1.2-7.6l.1-.4.3-.1c.7-.3 1.4-.6 2.1-.7.6-.2 1.1-.3 1.6-.6.6-.4 1-1.1 1.3-1.8l2.4-5a31.7 31.7 0 0 1-4.7-4.9 6.3 6.3 0 0 1-1-1.7c-.2-.3-.2-.6-.2-.9a13.4 13.4 0 0 1 3-8.6c2-2.4 5.3-3.3 7.4-5.6 1.6-1.8 3.3-3.6 5.6-4.4-.3-1.2-.6-2.5-.7-3.7 0-.8 0-1.7.4-2.4.2-.5.7-.9 1-1.2a14 14 0 0 1 7.6-2.6c1.6-.2 3.3-.1 4.6.7 1.2.8 2 2.2 3.2 3-.4.1-.1.6-.2 1 0 .3-.3.5-.5.7-3 2.1-6.4 3.6-9 6.2-.7.8-1.3 1.6-2.2 2.3-1 .8-2.2 1.4-2.7 2.5-.7 1.6-2.2 2.9-2.9 4.4a1 1 0 0 0-.1.5 1 1 0 0 0 .1.4c.9 1.7 1.7 3.4 1.9 5.3l-.2 2.2a8.2 8.2 0 0 1-.6 3.3s-.1.2 0 .2v.1l3.3 1.3.4.2.4.4.7.8a5 5 0 0 1 1.3 2.3l3.8-1.1c1-.4 2-.7 3.2-.9 1.6-.3 3.2-.4 4.8-.8l2.6-.7c1.9-.5 4-.7 5.9-.4 1.5.2 2.7 1.5 4 2.2l.3.2-.1.4a1 1 0 0 1-.4.3 6 6 0 0 0-3.6 2.9 23 23 0 0 0-5.3-.2h-.8l-.6-.3c-.4-.3-.8-.4-1.2-.5a3.6 3.6 0 0 0-1.3-.2 3.6 3.6 0 0 0-1.7.7c-1 .7-2.3.2-3.4.4-1.2.2-2.3.5-3.3 1.1-.3.2-.6.5-1 .6l.2 2.6v.4l.4.5c.3.3.8.5 1.2.7l1 1 .2.2h.1l1.2-.7c-.1 2.5-.6 5-1.3 7.5l-3.3.1a25.3 25.3 0 0 1-2-3c-.2-.4-.5-1-1-1.2-.8.7-2 .9-3 1.5a3.9 3.9 0 0 0-1.7 1.9l-.3 1c-.2.5-.4 1-.8 1.3.3 1.5.4 3 .4 4.5v2.2c0 .7.2 1.5.6 2.2-.4.3-1 .3-1.5.4a10.8 10.8 0 0 0-3.6 1l-.5.4-.2.5-.6 1.4c-1.3 0-2.7.1-4 .3l-.3-1.3v-.1a.3.3 0 0 0-.2 0l-2.8-.8a3.2 3.2 0 0 0-1-.2l-1 .3a244 244 0 0 0-3.7 1.6c-1 .5-2.2.8-3.4 1.2l-2.3 1.1-1.2.5c-.5.3-1 .8-1.5 1a.5.5 0 0 1-.2 0 28.4 28.4 0 0 1-2.8-1.5c-1.3-.8-2.5-1.8-4-2l-1.7.8c-.5.3-1.1.4-1.7.6-.8.4-1.6.9-2.5.7a.3.3 0 0 1-.2 0V363a17.8 17.8 0 0 1-3-1 1.9 1.9 0 0 1-.8-.5 2 2 0 0 1-.3-.6 3.6 3.6 0 0 1 0-1.9l.2-.5-.2-.2-.7-1.1c-.3-.4 0-1 .3-1.5a6 6 0 0 1 1-1.2l1.2-1.2h.2l.8.4h.1l1.2-2.3-1.6-.6a4 4 0 0 1-1-.3.6.6 0 0 1-.1-.2.6.6 0 0 1 0-.2l-.2-1.1v-.3l.3-.2.9-.5.4-.3c.1-.2.2-.3.1-.5-.4-1-.3-2.1-.3-3.2l-3.4 2c-.4.2-.8.5-1 .9l-.4.5-.7.2h-2.1c-.2 0-.3.2-.5.3l-.7.7-.7 1c-.2.3-.3.7-.3 1a9.4 9.4 0 0 0 0 3.2v1l.6 3.7.2.8c.3.6 1 .9 1.2 1.5.3.6 0 1.4.1 2.1.1.5 0 1 .3 1.5.1.1.3.3.3.5s-.2.4-.4.5c-.9.6-1.7 1.3-2.3 2.1l-.7-1.3c-.4.3-.8.3-1.3.3h-1.3c-.5 0-1 .3-1.2.6l-.1.3h-.4a4.3 4.3 0 0 0-2.3.5c-1.8 1-4 1.2-6 1.8a.8.8 0 0 0-.3.2l-.2.4c-.3 1-1 2-1.4 3-.4.8-.5 1.6-.7 2.4a5 5 0 0 1-1.1 2.2l-1 .8-1.5.9c-.9.6-2 .4-3.1.7-1.1.3-2.2.5-3.2 1l-.6 4-1.8.7a32.8 32.8 0 0 0-7.8 3.2c-.3 0-.4-.2-.6-.3l-1-.7-2-1 .3.7c.6 1.5.6 3.2.6 4.8l-1.5-.2-1.4-.2-2.7-.5-.7-.1-1.5.3-3.2 1a.7.7 0 0 0-.3 0l-.1.5v1.5l.5 2.1c.9 0 1.8.2 2.8.4a17 17 0 0 0 2.6.4c.3.1.4.5.6.7l1.6 1.4c1 .7 2 1.4 2.7 2.3l1 1.5.6.7c.4.5.6 1.2.8 1.8 1 3-1 6.1-.6 9.2v1l-.4.7-1.2 1.4a.9.9 0 0 1-.3.3.9.9 0 0 1-.4 0l-4.2-.1-5-.2c-1.7-.1-3.4-.2-5-.5-1.6.2-3.1.2-4.6.1a2.4 2.4 0 0 1-.6 0l-.8-.4a5.8 5.8 0 0 0-1.4-.5l-1.6-.4a1 1 0 0 0-.6 0c-.1 0-.2 0-.3.2l-3.4 2.6c-.7.5-1.5 1-2.4 1.2l1.8 1.3c.2.3.5.5.6.9.1 1.6-.1 3.3-.1 5v.5l.2.6c.4 1 .4 2 .3 3-.2 1-.6 2-1 3l-.3 1-.2.7c-.3.5-1.2.5-1.4 1 .3.9.4 1.8.3 2.7v1.1c0 .3.2.5.4.7.3.4.6.8 1.1.8.3 0 .7 0 .9.2l.1.3a8.8 8.8 0 0 1 0 4.3c-.2.5-.4 1-.5 1.7 1-.5 2.2-.8 3.2-.3l.6.2h.5l1.5-.6.4-.4c.4-.2.9 0 1.3 0l1.9.5c.8.3 1.2 1.2 1.5 2 .3.8.7 1.7 1.4 2.1.4.3 1 .4 1.4.4.5 0 1 0 1.3-.2.7-.4 1-1.1 1.5-1.7a4.1 4.1 0 0 1 2.2-1.2c.8-.2 1.6-.2 2.5-.2l5.9-.1h.5l.4-.5 2.2-2.7c.6-.9 2-.8 3-1h.2v-.1c0-.6-.1-1 0-1.6 0-.5.3-1 .7-1.5l.7-.7c.4-.3.6-.8 1-1v-.2c.1 0 0-.1 0-.2l-1.3-2.5c.2-.9.5-1.7 1-2.5 0-.2.2-.4.4-.6l.3-.8c.4-.7 1-1.2 1.7-1.8l.3-.4c.3-.6.2-1.2.5-1.7 1.4-.6 2.9-.9 4.4-1 .3 0 .7 0 1-.2l.6-.4 2.3-2 .3-.3.2-.5.2-3.4c0-.5 0-1 .2-1.4.3-.5.7-.7 1.2-1l1-.2a33.1 33.1 0 0 1 3.8-.6h.7c1.8.5 3.6 1 5.5 1 .4 0 .8 0 1.2.2l1.2-1.4.6-.6.8-.4c.8-.2 1.7-.3 2.4-.7.8-.4 1.3-1 2-1.4a8.5 8.5 0 0 1 2.5-.8c.5 0 1-.2 1.6-.1l.7.1 1.3.3 1 .4.5.3.4.3c.5.4.4 1.1.4 1.7 0 .7.2 1.3.4 2l.5 2.2 2 1 1.8 1.2c1.3 1 2.1 2.7 3.5 3.7.7.5 1.5.8 2.4 1 .7 0 1.6 0 2 .5.4.3.5.8.8 1.1l1 .7c.3.2.7.2 1 .2.4 0 .8.2 1 .4.3.2.4.5.5.8l1.1 1.3.2.3c.2.2.3.2.5.2l1.1.2a7 7 0 0 0 1.2 2l1 1c.2.3.4.8.4 1.3a3.2 3.2 0 0 1-.5 1.5c-.3.4-.7.8-.9 1.3a4.9 4.9 0 0 0 0 2.9 29 29 0 0 1 2.4-.6l.3-1.8c0-.2.1-.5.3-.7 0-.2.3-.3.5-.5l1.3-.8c.2 0 .4-.1.5-.3a.8.8 0 0 0 0-.4v-1.5l-.1-.6a1.7 1.7 0 0 0-.2-.5 3.5 3.5 0 0 0-1.9-1.3c.3-.6 1-.9 1.2-1.5.2-.4.2-.8.1-1.2v-.3h.3c1.3.1 2.8.3 3.8 1.1l.4.5c0 .2 0 .4.2.5.1.5.5.8 1 1l.6-3c-.6-.8-1.3-1.2-2.2-1.8a16.2 16.2 0 0 0-5.8-2.2c-1-.2-2.2-.3-3.1-1a8.1 8.1 0 0 0 2.1-1.4c-1-.6-2.2-1.3-3.4-1.3-.6 0-1.3.2-1.8-.2l-.5-.5c-.4-.6-1.1-.9-1.7-1.3a9.1 9.1 0 0 1-2.9-4.8c-.1-.5-.3-1-.6-1.4l-1.3-.8-2.3-1.2a1.9 1.9 0 0 1-.7-.6c-.3-.6 0-1.5-.4-2 .5-.4.5-1 .5-1.6 0-.5 0-1.1.3-1.6s.8-.7 1.4-.9c1-.3 2.2-.5 3.3-.6.2 0 .5.1.5.3l-.1.3-.6.5a4.8 4.8 0 0 0 1.8 3.1c.5-.5.8-1 1-1.6.5 0 1 0 1.4.2.4.2.8.5.9 1v1l.4.5 1.4 1.5-.9.5 1.4 1.5 1.5 1.5a14.5 14.5 0 0 0 3.5 1.9l5.2 2.3c1 .4 1.9 1.1 2.8 1.6.8.5 1.5 1 2 1.7 0 .2.2.4.4.5l.4.2c.3.2.4.6.4 1 0 .6.1 1.3-.1 1.8l-.6 1.2c-.4 1 0 2.3.5 3.4a1 1 0 0 0 .2.4l.7.2c.6.2.8.8 1 1.4.3.5.7 1.2 1.3 1.3.1 1 .5 2 1.2 2.6l1 1c.4.7.4 1.6.9 2.3l.8 1.3c.4.9 0 2 .5 2.8l.5.7c.3.4.4 1 .6 1.4.3.5.9 1 1.4 1.4.3.2.7.5 1.1.6l1 .2h2.5a4.3 4.3 0 0 1-1.4-3.3l.1-.4a.6.6 0 0 1 .3-.1l2.1-.6a5.4 5.4 0 0 1-1.1-2.5c1 .2 1.8.6 2.6 1.1l.3.2c.2 0 .3-.3.3-.6v-2.2c0-.2-.2-.4-.3-.5a15.4 15.4 0 0 0-3.4-3c0-.6.4-1 .9-1.3a6.5 6.5 0 0 1-2.1-5.6l1.7 2 1 .8c.5.2 1 .1 1.6 0 .7 0 1.4-.1 1.9-.7l-2.1-2.4c1.1-1 2.8-1 4.3-1.5l.8-.2c.5 0 1 .4 1.4.6.7.3 1.5.1 2.2.2h.4c.2.2.1.5.1.8a2 2 0 0 0 .9 1.8c1.4-.7 2.5-2 4-2.8 1.4-.7 3.1-.8 4.8-1.1l1-.4c.3-.2.5-.5.5-.9v-.2a.5.5 0 0 0-.3-.1l-2.8-1a4.2 4.2 0 0 1-.7-1.7c0-.5 0-1-.2-1.4l-.5-.9c-.6-1.2-.2-2.7.7-3.6l.9-1c.2-.4.4-.8.7-1l.5-.5.2-.6.5-2.2c.2-1 .7-1.9 1-2.9l.2-.2H849.2c.4 0 .7-.4.8-.8 0-.3-.2-.6-.4-.9l1.2-.8.8-1.4 1.6-1.3c.8-.7 1.2-2 2.2-2.6a3.7 3.7 0 0 1 1.2-.4 8.6 8.6 0 0 1 2.1-.2l.1 1.3c0 .1 0 .2.2.3l.2.1 2.7.5c.7.1 1.4.3 2 .6.8.3 1.4.7 1.8 1.3a9.8 9.8 0 0 0-4.4 2.6v.2l.2.2c1 .2 2.1.6 3.2 1 .2 0 .5.2.6.5v.4a2.8 2.8 0 0 1-.7 1.7c.8 0 1.5.3 2.3.6h.8c2.4-1.1 4.5-3 7.2-3.3.7 0 1.5 0 2-.5l.3-.8.4-1.1a18 18 0 0 1-4 .4h-.5c-.2 0-.4-.2-.5-.4a4 4 0 0 1-1.3-3c0-.3 0-.6.2-.9.3-.3.7-.5 1-.6 1.7-.7 3.5-1.5 5.3-1.4h1c.4-.1.8-.5 1.2-.7 2-1.2 4.4-1 6.5-1.7l.9-.2c.3 0 .6.3.6.6a8.4 8.4 0 0 1-4 1.8c-.8 0-1.7.1-2.2.7.8.2 1.4 1 1.9 1.6l.1.4-.1.3a35.9 35.9 0 0 1-2.3 3l-.4.4a2 2 0 0 1-.6.3l-2.7.7 2.5 1.7c.5.5 1 .9 1.7 1.2l3.7 1.6 1.8 1.1 2.2 1.6c.5.3 1 .7 1.3 1.1l.8 1.1a7 7 0 0 0 2.7 2.4c.7.3 1.5.6 2.2 1.1 1 1 1.1 2.4 1.2 3.8-.4.5-1 .9-1.5 1.2l-2.4 1.4c-.4.3-.7.5-1.1.6-.8.3-1.6.2-2.4.2-1.3-.1-2.5-.3-3.8-.1-.9 0-1.7.4-2.6.4a6.9 6.9 0 0 1-3.6-1.1c-1.2-.7-2.2-1.5-3.5-1.9l-2.4-.7c-1-.4-1.7-1-2.4-1.5h-6.6l-1.6.6-2.7 1-1.6.7c-.9.6-1.5 1.4-2.4 2l-.4.2h-.9l-7-.4h-.4l-.2.4a30 30 0 0 0-1 2.7l-4.8.7H841l-.6.3c-1 .5-1.7 1.7-2.7 2.5-.4.4-1 .8-1.3 1.4v.2c.8.7 1.6 1.2 2.2 2l.3.6c0 .3-.3.7-.4 1l-.5 1.2a2 2 0 0 1-.7 1l2.5 2.4.7.7.3.6 1.2 3.5 3.8-.2c.7 0 1.5 0 2.1.4l.6.7a3 3 0 0 0 2.9 1c1.3-.3 2.2-1.4 3.5-1.9 1.3-.5 2.9-.2 4.3.1l.5.2.1.5c.3.8 1.3 1.2 2.1 1.3a14.4 14.4 0 0 0 7.6-1.5 2 2 0 0 0 1-1.5 27.5 27.5 0 0 0 2.8 2c.2 0 .4-.2.5-.3l.7-.4c.3-.2.7-.4 1-.2 0 .2-.1.5-.3.7l-.6.9a.3.3 0 0 0-.1.1l.1.2a10 10 0 0 1 1.4 2v.3l-.7.9c-.3.6-.3 1.3-.2 2 0 .7.2 1.4 0 2.1 0 .4-.2.8-.4 1.2l-1.5 2.4c-.2 1.6-1.3 2.7-2 4.1l-1 3.2c-.1.7-.4 1.4-.7 2-.2.5-.4 1-.8 1.3l-.9.5a8.5 8.5 0 0 1-2.3.9c-1.2.2-2.4-.2-3.5-.8-.6-.3-1.2-.8-2-.8a.8.8 0 0 0-.4 0c-.4.2-.4.7-.3 1-.4 0-.5-.5-.7-.8-.5-.8-1.6-1-2.5-1-1 .1-2.1-.4-3.2-.2-.9.2-1.5 1-2.4 1.3l-1.1.3c-1 .4-1.7 1.4-2.6 1.3-.5 0-.8-.3-1.2-.5-2.1-1.2-4.7-1.2-7-2.1l-.8-.4h-5.2a3.9 3.9 0 0 0-3.5-1.9l-1.6-.1-1.3-.7c-.5-.1-1.2 0-1.7-.3-.4-.3-.5-.8-.9-1.1-.4-.4-1-.5-1.5-.5l-5.3-.5a2.9 2.9 0 0 0-1.5.2c-1.8.7-3 2.3-3.8 4-.2.3-.3.7-.3 1 0 1 .7 1.7.7 2.5s-.5 1.5-1.1 2l-2 1c-1.8-.5-3.5-1.6-5.2-2.5a10.3 10.3 0 0 0-2-.9l-1.8-.3a31.5 31.5 0 0 0-4.2-.3c-.3 0-.6 0-.9-.2-.2-.2-.3-.6-.3-.9a12 12 0 0 0-1.2-3.7c-1.7-.4-3.5-1-5.1-1.7-.6-.3-1.2-.6-1.9-.7-1.2 0-2.3.5-3.5.4l-1.3-.5a53.6 53.6 0 0 1-3.5-1.7c-.4-.2-.8-.4-1-.8-.2-.4-.2-.9-.5-1.2s-.7-.5-1.2-.5H774l-.5-1.7a.9.9 0 0 1 0-.5.9.9 0 0 1 .2-.4l2-1.4.4-.4.1-.6c0-1 .1-2 .4-3v-.4l-.1-.1-1-.6a.9.9 0 0 1-.2-.3.9.9 0 0 1-.1-.4l-.1-1.6v-.5c0-.2.2-.4.4-.6l1.2-1.2.2-.2-.1-.2-.3-.6-.1-.1h-.2c-1 .4-2 1-3 1.8v-2.4h-.2l-1.8-.2a5.4 5.4 0 0 0-1.3 0c-1 .1-1.9.8-2.8 1.2a6.4 6.4 0 0 1-3.7.6c-.4 0-.7-.3-1-.5l-.7-.4a2 2 0 0 0-.5 0 12 12 0 0 0-5.4.8l-1.5.8c-.6.2-1.2.3-1.7 0-.3 0-.5-.3-.8-.4h-.8l-4.8.1c-2.9.1-5.8.6-8.6 1.2a7.2 7.2 0 0 0-2.9 1c-.6.5-1 1.1-1.6 1.5-1.3.8-2.9.7-4.3 1.1-1.3.4-2.3 1.2-3.5 1.9a5 5 0 0 1-1.2.5c-1 .2-2 0-3-.2-1.9-.4-3.9-.7-5.9-.4-.7-.1-1.5-.3-2-1l-.4-.7-.7-.1h-2.6a.7.7 0 0 0-.3.4l-1.2 3a12.3 12.3 0 0 1-1.9 3.3l-.8.8-1.1.6c-1.4.6-2.7 1.3-4 2.1-1.5.9-3 2-3.4 3.7-.6 2-1.8 3.8-2.6 5.7l-.4 1c0 .6.2 1.1.4 1.7a23.5 23.5 0 0 1 1 3.8l-.3.4a29.8 29.8 0 0 1-4.7 4 28.2 28.2 0 0 0-3 2.4l-.4.3a2 2 0 0 1-.4.1l-2.6.6c-.5 0-1 .2-1.3.4a4 4 0 0 0-1.1 1c-1 1-1.6 2-2.1 3.2-.4 1-.7 1.9-1.5 2.4l-1.8.7a3.2 3.2 0 0 0-2 3l.2 1.5a5.4 5.4 0 0 1-.4 1.7c-.2.5-.5 1.1-1 1.2-1.3.3-2.3 1.6-3.3 2.4 0 .2-.2.3-.3.4l-.2.6-.8 2a3.5 3.5 0 0 0-.2 2c.1.1.2.3.1.5 0 .2 0 .4-.2.5-.6 1-1.4 2-2.3 2.8a10.9 10.9 0 0 1 .1 3.8l.2.3c1 .9 1.9 1.8 2.3 3 .2.5.2 1.1.3 1.7v1c0 .5.3 1 .5 1.5.4.8.5 1.8.5 2.7 0 2.1-.4 4.2-1.3 6.1-.1.3-.3.5-.3.8a5.4 5.4 0 0 0-.3 1.4c0 .5 0 1-.2 1.5l-.5 1.1-1.4 1.9-.5.6-.5.3-1.4 1 1.6 2.2c.8.8 1.9 1.5 2.1 2.7.2.7 0 1.5-.1 2.3a7.3 7.3 0 0 0 1.3 5.1c.5.7 1.2 1.3 2 1.4h.7c.8 0 1.4.3 2 .7.7.4 1.2 1 1.8 1.3l.7.6.2.5.4 1.5c.4 1.5 2.7 1.7 3.7 3l.7.9c.4.7.8 1.4 1 2.2.1.7 0 1.5.2 2.2.2 1.1.7 2.2 1.2 3.2.9 1.7 3.1 2.5 5 2.4h.4c.2.1.3.3.4.6a9.7 9.7 0 0 0 5.2 4.6c.7.2 1.5.4 2.2.9 1 .6 1.7 1.8 2.8 2.4a6 6 0 0 0 3.7.7c4.4-.4 8.6-2.6 13-2.8 1.4 0 2.7-.2 3.8.4l.8.4c.3.2.7.2 1.1.2.8 0 1.7-.3 2.5 0 .6.3 1 .8 1.6 1 .5.1 1.1 0 1.6-.3l3.2-1.1 3.6-1.5 2.6-1.2 3.3-1.1c2-.7 4-1.5 6.2-1.1 1 .2 2-.2 3-.3h.9c.4.1.8.4 1.2.7 1.7 1.4 2.9 3.4 4 5.3.2.5.4 1 .8 1.3a3 3 0 0 0 2.7.9c1.3-.3 2.3-1.4 3.7-1.3.5 0 1 .3 1.6.3l1.1-.2 2.1-.7c0 .3-.3.7 0 1l.2.1.7.3.6.3c.2.3.3.8.3 1.1 0 .4.1.8.3 1 .1.4.5.6.8.6h.3l.2.1 1 1.3.2.4.2.7c0 1-.2 1.9-.4 2.8l-1 3-.4 1.3v.2h.3c.3 0 .5.3.5.6l-.2.7-.5 1c-.7 1.6-1 3.3-1.9 4.7-.2.4-.4.8-.3 1.1 0 .2.2.3.3.5.2.4.1.9.2 1.3.2.6.6 1.1 1.1 1.6l1.8 1.8.9 1 .6 1.3c.7 1 1.8 1.4 2.5 2.3.4.5.6 1.2 1 1.8.6.7 1.3 1.2 2 1.8.7.6 1.3 1.3 1.5 2.2 1 1.1 1.6 2.7 2.1 4.2.2.3.3.7.2 1 0 .4-.4.8-.2 1.1 0 .2.2.3.4.4.6.5.9 1.4 1.4 2l1 1.3c.5.8.5 1.9 1 2.7.3.5.2 1.2.2 1.8 0 .3 0 .6-.2.8-.3.3-.7.3-1 .5-.2.2-.3.6-.3 1 0 1.5 1.1 2.7 1.8 4 .5.9.8 1.7 1 2.5.4 1.9.3 3.7.1 5.6-1 .9-2 2-2.8 3.2l-3 4.5c-.4.7-.9 1.5-1.1 2.3-.4 1-.5 2-.6 3a42.8 42.8 0 0 0-.4 7.9c0 .8.4 1.6.6 2.4l.4 1.1.7 1a16.5 16.5 0 0 1 2.5 3.7c.4.7.6 1.5.9 2.3l1.5 4.5.7 1.7c1 1.8 2.9 2.8 4.4 4.2.7 3 .3 6.2.7 9.2 0 1 .2 1.8.4 2.7l.4 1.8c.6 2.8 1 5.5 1.9 8.2.3 1 .8 2 1.4 2.8a19.2 19.2 0 0 0 2.3 2.6l1 1.1.6 1.2 1 2c.7 1.8 1.5 3.5 2.7 5l1.1 1.3c.7 1 1 2.3.9 3.5a2.3 2.3 0 0 1-.5 1.3c-.3.3-.8.5-1 1 0 .4.2.8.4 1.2l.9 1.5c.4.7.7 1.5.6 2.3l-.1 1.2c0 .4 0 .9.4 1.1v-1.2c0 .8.7 1.4 1.3 1.9.3.3.7.6 1.1.6h.6l.2.3c.4.8 1.2 1.4 2.1 1.3.5 0 1-.2 1.4-.3.3-.2.7-.3 1-.6l.5-.5.6-.3a34.2 34.2 0 0 1 5.9-1.4c.4 0 .8-.1 1.1-.3.4-.2.7-.6.6-1l6-.5a.9.9 0 0 1 .4 0l.3.3c.7.8 2 1 2.9.5l.9-.4c.5-.2 1 0 1.5 0 .6.1 1.2 0 1.4-.5v-.5l3.6-.6.7-.1 1-.5a19 19 0 0 0 4.1-3c1-.9 2-1.9 2.8-3 .1-.7.6-1.2 1-1.8a78 78 0 0 0 4.7-6.1c.2-.4.5-.8.6-1.3l.2-.4c.2-.4.6-.6 1-.8 1.6-.8 3.2-1.9 4.7-3.2 0-.6.6-1 .9-1.7.2-.4.2-1 .3-1.4.2-1.4 1-2.7 1.3-4l.4-2.3c.2-.7.5-1.4.4-2.1v-.3h-.7l-.4-.3v-.2l-.4-1.5c.1-.4.2-1 .1-1.4l2-.7 3.1-1 4-1.1 1-.5c.4-.2.6-.5.8-.8.4-.4.7-1 1-1.5a3.1 3.1 0 0 0 .3-1.7 2.1 2.1 0 0 1-.8-.5l.5-2.8c.1-1 .3-2.2.1-3.2v-.2h-.2l-.4.2c-.2 0-.4-.3-.4-.5-.4-1.1-.2-2.3-.5-3.4a7 7 0 0 0-1.5-2.8c-.1-.1-.3-.2-.3-.4a1.2 1.2 0 0 1 0-.4v-1.3l.3-.8c.3-.5 1-.5 1.6-.9l.8-.8 1.3-1.6.6-.6c.2-.3.6-.4.9-.6l1.4-.8c1.7-1 2.7-2.8 4.3-3.9a14.3 14.3 0 0 1 1.8-1.1c.7-.4 1.5-.6 2.2-.9a35.5 35.5 0 0 0 4-1.8c1-.8 1.4-2 2.1-2.9.5-.6 1.1-1 1.5-1.7.6-1 .5-2.3 1-3.3-.7-1.4-.4-3-.3-4.5v-4.3c0-1.6 0-3.2-.3-4.7a17.6 17.6 0 0 0-1-3 4.3 4.3 0 0 0-.7-1.2l-1-.5a1.1 1.1 0 0 1-.3-.3l-.2-.4a12.3 12.3 0 0 0-2-4.4l-.5-.7a2.6 2.6 0 0 1 0-.9v-3.6c0-.1 0-.2.2-.3.5-.5.8-1.1 1-1.8-.3-.2-.4-.6-.6-.8l-.8-.4a1.8 1.8 0 0 1-1-.8 2.3 2.3 0 0 1-.3-.7l-.2-1.6a3 3 0 0 1 0-.7l.2-.7 1.9-3.5c.2-.4.3-.8.7-1l.4-.4.2-.3c.2-.6.3-1.1.3-1.7l1.1-1.6.7-1c.2-.7 0-1.6.5-2.2l.3-.3h.9a1 1 0 0 0 .4-.3l.9-1 .6-.7.9-.5a4.9 4.9 0 0 0 2.6-3.5c.3-1.7 2-3 3.3-4 1.4-1 3-1.9 4.3-3l2.4-2c1.3-.8 2.8-1.4 4-2.4 2.5-2.5 4.7-5.2 7.4-7.5 1-.8 1.9-1.7 2.4-2.8.4-1 .5-2.2 1.2-3a30.4 30.4 0 0 0 5.1-6.7c1.2-2.2 1.7-4.8 2.7-7l1-2.3 1.4-3c.4-1 1-1.8 1.2-2.7l.3-2.2a6 6 0 0 0-.4-3.2l-1.5.2h-.4l-.4.4a3.7 3.7 0 0 1-1.2.7c-1.8.7-4 .7-5.7 1.6-.5.3-1.3-.2-1.9-.2-.6 0-1.3 0-1.7.4l-.5.4-.6.1c-.9 0-1.7.4-2.5.8a15 15 0 0 1-6 1c-.4 0-1 0-1.3.3-.8.3-1.6.6-2.5.5a5.3 5.3 0 0 1-2.2-.9l-1-.7-.7-1.1c-.3 0-.5-.4-.7-.7-.6-.7-1.7-1-2.5-1.5l1.6-.7.5-.4a.8.8 0 0 0 0-.4V552.4a.5.5 0 0 0-.2-.2c-.6-.7-1.3-1.2-2-1.7l-1.7-1c-2.3-1.7-3.4-5-5.8-6.4l-2-1-1.1-.8a15 15 0 0 1-3.5-3c-1-1.3-1.3-3-1.8-4.4l-1.1-3a2.5 2.5 0 0 0-.4-.7c-.2-.3-.6-.4-.9-.6l-2.3-2c-1.1-.6-1.3-2.3-1.5-3.6l-.1-1.8c-.2-1.2-.7-2.4-.4-3.5a.8.8 0 0 1 .1-.3c.2-.2.5-.2.7-.5l-.3-.8a4.6 4.6 0 0 1-.6-2.3l-.2-.4a5 5 0 0 0-.7-1.4l-1-.8c-.7-.6-1.2-1.4-2-2l-1.4-1a1.3 1.3 0 0 1-.3-.5l-.1-.5a20.3 20.3 0 0 1 0-1 3 3 0 0 1 0-.7.6.6 0 0 1 .2-.2 373.7 373.7 0 0 1 .8-.5c-.4-.8-1.2-1.2-1.7-1.8-1.2-1.2-1.7-2.8-2.8-4l-1-1.2a2.7 2.7 0 0 1-.7-1.3c0-.6-.6-1-1-1.6a18.3 18.3 0 0 1-1.8-4.8c-.3-1-.5-2-1.1-2.7l-.8-.8a5.5 5.5 0 0 1-.6-1.3c-.4-1-1.2-2-1.7-3a3.5 3.5 0 0 1-.6-1.7c0-.2.2-.6.4-.5.2 0 .3.2.4.4.6 2.2 1.4 4.4 3 6 .8 1 1.9 1.8 2.6 2.9 1.1-.9 1.6-2.3 2-3.6.4-1.3.7-2.7 1.7-3.7a6.7 6.7 0 0 1 0 2.6l-.3 1.1-.6 1.8 2 .1a64 64 0 0 1 1.8 3.1c.4.8.7 1.5 1.3 2.2.7 1 1.8 1.7 2.3 2.9l.2.7.4.4.8.7c.2.2.5.4.6.7l.3.9.7 1c-.2.8.3 1.5.6 2.2.2.5.2 1 .6 1.4l.9.5c.6.3 1.3.5 1.9 1 .4.2.8.6 1.2 1l.6.7.4 1.3c.3.6 1 1.1 1.1 1.8.2 1.1 0 2.2 0 3.3a6.3 6.3 0 0 0 .3 3.2l.8 1.1a21.4 21.4 0 0 0 2 2.2l.5.2c.6.1 1.1.4 1.7.7 1.3.9 2 2.4 2.6 4l.9 2.5a8.2 8.2 0 0 0 2.6 3.4l.7.6c.6.8.4 2 1.1 2.6.2.2.6.3.8.6.4.4.1 1.2.5 1.7a2 2 0 0 1 .3 1.3c0 .3-.1.6-.4.7l-.2.1v.2c.2.7.5 1.4.4 2.1-.1-.2-.3-.3-.5-.2-.1 0-.2.1-.1.3a.9.9 0 0 0 0 .3l1 1.5.3 1c0 .5.3 1 .4 1.6l.1.4.4.7c.6 1.2-.2 2.7.3 4l.6 1 .3.3h.3c1 0 2-.1 2.9-.5.7-.2 1.4-.6 2.1-.5h.6c.3 0 .4-.2.6-.3l2.3-1.7.6-.4h1.1c1 0 2.1-.1 3.1-.3a5 5 0 0 0 2.5-1c.4-.4.7-1 1.1-1.3 1.4-.3 2.8.1 4.2-.3 1.5-.5 2.5-1.9 3.9-2.6.8-.4 1.6-.5 2.5-.7 1.5-.4 3-.8 4.5-1.4.7-.3 1.5-.6 2-1.3a4 4 0 0 1 .4-2.2c0-.2.3-.4.4-.5l1.3-1 .6-.4.6-.2 1.4-.2 1.1-.2c.7-.2 1.4-.6 2-1l.2-.2H949.5c.3 0 .6 0 .9-.2l.8-.6c.4-.2.7-.5.8-.9 0-.4-.1-.8.1-1.1l.7-.4.8-.4c.5-.2 1 0 1.4 0h.9l.6-.5.1-.8.2-1.5a9.2 9.2 0 0 1 3.8-1.4h.3c.3-.1.5-.4.6-.6v-.9c-.1-.8-.5-1.6-.3-2.4 0-.9.7-1.5 1.2-2.2l.4-.3h2.3c.1-.7.1-1.3.5-1.8l.8-.9.9-.8.3-.4.2-.6c.3-.8.5-1.6 1-2.3l.4-.4.1-.6-.1-1a1.4 1.4 0 0 0-.5-.3l-.8-.5a1 1 0 0 1-.4-.3l-.2-.4c0-.4-.4-.8-.7-1l-1.4-1.6a3.5 3.5 0 0 0-1.6-1c-.7-.2-1.5 0-2.2-.2a6 6 0 0 1-2.9-1 4.2 4.2 0 0 1-1.3-1.3l-.4-1-.7-2a5.5 5.5 0 0 1 0-2.6l.2-1.2.1-1.2-.1-.5h-.6l-.4.5-.7.8a52.4 52.4 0 0 0-5.7 6.1l-.9 1c-.5.5-1.2.8-1.6 1.4a45.9 45.9 0 0 0-7-.2 1 1 0 0 0-.6.1c-.3.2-.4.6-.7.5 0-.5-.2-1-.4-1.6l-.4.4c-.6-.5-1-1.3-.8-2l.5-1.4c.5-1 .7-2.2.7-3.4 0-.3 0-.5-.2-.7-.2-.3-.5-.3-.8-.3l-1.2-.1h-.5a.8.8 0 0 0-.3.4l-1 2-.2.7v2l-.9-2c0-.3 0-.5-.2-.6l-.4-.2c-.4-.3-.6-1-.5-1.5.2-.5 0-1.1 0-1.7a2.9 2.9 0 0 0-.7-1.6c-.5-.5-1.3-.8-1.8-1.3a2.6 2.6 0 0 1-.7-1l-.2-.6a2.3 2.3 0 0 0-.4-.6c-.3-.4-.7-.7-1.2-1a1 1 0 0 1-.5-.4 89.7 89.7 0 0 1-2-3.6l-.4-1.3-.3-1.2c.2-.6-.4-1.3-.3-2v-.1c0-.2.3-.3.5-.3l2-.1h.3c.2-.3 0-.6.2-.8l.3-.2a5 5 0 0 1 1.1-.2c.4 0 .8.1 1.1.3l.5.6.1.2h.5a19 19 0 0 1 2-.5c0 .4.1.7.3 1l3.8 7.2c.2.5.5 1 1 1.3.5.3 1 .4 1.6.5 2 .4 3.5 1.7 5 3 .5.5 1.1 1 1.8 1.3.3.2.7.4 1 .4h.7c.4 0 .7.2 1 .3 1.3.4 2.6.2 3.7-.4l1-.6a7.8 7.8 0 0 1 1.5-.6l2-.6h.8l1.2.3.5.3a51 51 0 0 0 1.5 5.3c1.5-.1 2.8.3 4.2.3l1 .1 1.3.5 2.9 1 1.7.4c1 .3 2.1.6 3.2.7h2.6c6.3-.1 12.5-1.5 18.7-1.9 1 .9 2 1.8 2.7 2.8a6.3 6.3 0 0 1 1.2 3.7 20 20 0 0 1 3 .6l.7.4c1.3 1.4 3 2.4 4.4 3.6l.5.5c0 .2 0 .5.2.7v.1l-.1.2c-.6.4-1 1-1.5 1.5l2.4 2.5 2 2 .6.5.8.1 1.3.2h1c.4 0 1-.3 1.4-.5a14.2 14.2 0 0 1 4.2-1.6l.3 2.1c.1 1.6-.2 3.3-.1 5a13 13 0 0 0 .3 2.7l.5 1c.3.7.4 1.5.4 2.3v.2c.4 2.6 1.4 5 1.5 7.5 0 .5 0 1 .2 1.5l.6.9 1.4 1.7 1.8 2.3c1.3 1.9 1.7 4.2 2.2 6.4.2.8.5 1.6 1 2.1 1 1 1.4 2.4 1.9 3.7l1 3.9.7 1.8.9 2.5.8 2.3c0 .2.1.5.3.7l.7.7a31.8 31.8 0 0 1 2.8 2.5h.4c1.2-1 2.5-2.2 3-3.7l.1-.5c.2-.2.4-.2.6-.2l2.4-.6-.9-1-.2-.4.2-.3 1.3-2.2.3-.4.6-.2h1.6c.2-2 .1-4 0-5.9v-.9l.2-.5.8-2c.1-.4.3-.9.7-1.2l-.8-5a26 26 0 0 1-.3-3v-1.4l.4-1 .7-1.4c1 .1 2.1.2 3.1 0a9.5 9.5 0 0 0 4.9-3.2 3 3 0 0 1-.6-1.2v-.3l.2-.2 4.2-2.5c.9-.6 1.9-1.2 2.2-2.2l5.5-4.9 2-1.5c.9-.4 1.8-.7 2.6-1.3 1-.8 1.4-2 2.3-2.9l.3-.3v-.6l-.4-2.3c1.4.3 3 .2 4.4 0l2.3-.2h.5c.6-.3.9-1 1-1.7.9.1 1.8.5 2.4 1.2l.9-1 1.5.9a4.9 4.9 0 0 0 1-4.1 5.5 5.5 0 0 1 3.3.3 4.5 4.5 0 0 1 1.8 2.1c.5.8.7 1.8.9 2.7.2 1.2.4 2.5 1.1 3.6l1.6 2.1 1 1.1.8.5h.8l.6.2.2.2c.1.1.1.3 0 .4 0 .4-.5.7-.5 1 0 .3.1.5.3.7 1.2 1.6 2.6 3 3.3 4.8.5 1.4.6 3 .6 4.5v1a7.2 7.2 0 0 1-1.4 3c1 .3 2 .6 2.9.7s2 .1 3-.2c1-.4 1.8-1 2.7-1.6 1-.6 2-1.1 2.6-2 .3-.4.5-.8.8-1 1 1 1.3 2.7 1.6 4.2l.7 4c.2 1.5.5 3 1 4.5 0 .6.6 1 1 1.3l.6.4c.3.2.4.7.4 1 0 1.4-.4 2.8-.6 4.2l.4 1 .6 1.5c.2 1 0 2-.5 2.7-.3.5-.3 1-.2 1.6l.2 1.7c0 1.8-1.2 3.4-1.5 5.2a5.4 5.4 0 0 0 .7 3.8l.2-1.1c.1-.4.2-.8.5-1.2l2.3 2 .8.6.6 1c.3.3.5.7.6 1.1l.3 1c.5 1 2 1.6 2.4 2.8a3.7 3.7 0 0 1-.1 2c-.2.5-.4 1-.3 1.4.2 0 .3.3.4.5l1.2 2 .3.9c.2.6 0 1.3.1 2l.6 1 1 1.2c.2 0 .3.1.4.3a1 1 0 0 1 0 .2l.2.6.1 1.2 2.4.8c1.4.6 2.6 1.6 3.7 2.6l2.9 2.6.4.3h.3l2.4-.3c0-.8.1-1.5-.1-2.2a6.1 6.1 0 0 0-.8-1.5l-.4-.5v-.3c-.2-.4-.4-.9-.7-1.2l-.7-.7a3 3 0 0 1-.4-.7c-.1-.5 0-1-.3-1.5l-.2-1.1V583c0-.7 0-1.3-.2-1.9a5 5 0 0 0-.8-1.3 8.7 8.7 0 0 0-2.4-2.3 13.3 13.3 0 0 0-4-2.4h-.1a2.8 2.8 0 0 0-.4-.4 2.3 2.3 0 0 0-1.3-.4 5.3 5.3 0 0 1-1-.6l-.2-.1a10.9 10.9 0 0 1-1.4-2.3c-.4-1-.6-2-.8-3a14.2 14.2 0 0 0-.7-2l-.2-.4a1.5 1.5 0 0 0-.9-.5 4.3 4.3 0 0 0-1 0c-.4 0-1-.3-1.4-.2 0-3.3 1.4-6.6 2.8-9.5 1-2.1 1.8-4.5 1-6.7l3.2-.3-.6 2.7v.5c.1.3.5.3.9.2a7.2 7.2 0 0 1 5.2 1.4 9.2 9.2 0 0 1 3.2 4.4c.2.6.4 1.3 1 1.7.6.5 1.5.3 2.3.4 1.3.1 2.5 1 3.5 1.9l.6.6c.3.6-.2 1.3-.5 2a2.9 2.9 0 0 0 1.4 3.5c5.3-3.2 9.4-8.3 14.8-11.2l.8-.5.2-.8c.3-2.8.4-5.6.3-8.4 0-3.4-.8-7-3.4-9.2a13.3 13.3 0 0 0-3.8-1.8 47.8 47.8 0 0 1-4-6.8l-1.2-2c-.6-.7-1.6-1.3-1.8-2.2a3 3 0 0 1 0-1.5c.7-2.6 3-4.4 5.2-6 1-1 2.2-1.8 3.5-2.4a5.3 5.3 0 0 1 4-.2l1.4.8c.8.5 1.6.8 2.4 1l-1.5.5c1.1.8 1.8 2.2 1.7 3.6.8 0 1.6 0 2.4-.3-.1-1.1 0-2.3.4-3.3.1-.4.3-.8.7-1s.8-.4 1 0c2 .3 4.2-.3 6.1-.9l2.6-.7c.7-.2 1.5-.4 2-1 .4-.6.4-1.5.3-2.2l1.3 1c.5.1 1 .1 1.5-.2.3-.3.4-.7.8-.9l.8-.1c1.9-.2 3.9-.4 5.6-1.4 2.5-1.4 4.1-3.9 6.6-5.3 1-.7 2.2-1.3 3.1-2a15.5 15.5 0 0 0 2.6-3.5l2-3.2c1.3-2 2.5-3.9 3.4-6 .3-.6.6-1.3 1-1.8.5-.5 1.3-.8 2-.5 0-2.3 1.5-4.4 1.5-6.8v-.6l-.5-.5-1.6-1.2c-.2-.2-.6-.5-.6-.8 0-1 1.6-1 1.9-1.8a8.2 8.2 0 0 0-.6-5.5c-.4-.9-1-1.6-1.6-2.3a23.3 23.3 0 0 1-3-5c-.5-1.2-1-2.6-2-3.5a8.2 8.2 0 0 0-2.6-1.4c.3-1.5 1.5-2.7 2.8-3.5 1.2-1 2.6-1.7 3.5-3 .4-.5.7-1.1 1.3-1.5.6-.4 1.4-.4 2.1-.5.7 0 1.4-.2 2.1-.4.6-.2 1.3-.5 1.5-1.1.2-.8-.7-1.6-1.5-1.7-.9-.1-1.8.1-2.6-.1-1-.3-1.9-1.2-3-1.5-1.5-.2-2.8 1-3.8 2.1-.4.4-.9 1-1.5 1a2.3 2.3 0 0 1-1-.3 3.8 3.8 0 0 1-1.7-1c-.3-.6-.4-1.4.1-1.8-1.5-.1-3-.4-4.2-1.4-1.1-1-1.5-3-.4-4 .6-.6 1.6-.7 2.5-.7.9 0 1.8.2 2.7 0 1.9-.3 3-2.6 4.3-4 .6-.7 1.2-1.4 2-1.8 1.3-.8 3-.7 4.1-1.8l1.5 1.6.3.4c.2.6-.6 1-1.1 1.3a5 5 0 0 0-2.3 2.3c.5 0 1 .6.8 1.1 0 .6-.5 1-1 1.3-.3.4-.8.7-1 1.2.7.4 1.4-.2 2-.6 1-.5 2.3-.5 3.2-1l2-1.5c.5-.4 1-.5 1.7-.7l3.6-1h.6c.3.1.4.5.5.7.4.5 1.2.6 2 .6.6 0 1.4.2 1.6.9.2.6-.4 1.2-.8 1.7-.5.4-1 1.2-.5 1.7.2.3.6.5.5.7 0 .2-.2.3-.3.3-.6.4-1 1-1.1 1.7l.1.7c.3.3.7.4 1.1.6.4.1.8.5.8.9.7.2 1.5-.3 1.5-1l2.2.9c.4.1.7.3 1 .6 1 .8.7 2.4 1.5 3.3-.8-.4-2 .3-2.8.1-.1.4 1.2 2.4 1.2 2.8.1 1.1.8 2.2.5 3.3-.1.7-.5 1.3-.7 2-.1 1 .2 2 .4 2.8a4.7 4.7 0 0 1 1.7-.4l1.6-.1 1.1-.5a21.9 21.9 0 0 1 6-2.4c.3 0 .5-.2.7-.3l.4-.7a23.1 23.1 0 0 0 .3-8.8 6.9 6.9 0 0 0-1.3-2.2 39.3 39.3 0 0 0-4.3-4.7l-1.6-1.6c-.2-.2-.4-.4-.4-.7-.2-.6.4-1.2.4-1.9 0-.2-.2-.5 0-.8l.3-.3c.8-.4 1.6-.9 2.5-1.2l2-1c.8-.5 1.6-1 2.3-1.7l1-1c.3-.6.2-1.5.1-2.2s0-1.6.5-2.2l1-.6a8.1 8.1 0 0 0 1.8-1.3l.6.3c1.2-.4 2-1.8 3-2.7.7-.7 1.6-1.2 2.5-1.6.4-.2.9-.4 1.3-.2.3.1.5.5.7.8.5.6 1.4.7 2.2.7a13.5 13.5 0 0 0 7.3-3l.7-1.1c.5-.7 1-1.1 1.6-1.6a16.3 16.3 0 0 0 2.8-3.2c2.2-3.5 6.4-5.4 8.3-9l1-2c1.2-2.6 3.4-4.7 5-7.2a9.6 9.6 0 0 0 1.5-4c.2-1.4.2-3 .5-4.4.2-1.5.7-3 .8-4.6v-2.2c.3-1 .9-2.1 1.7-2.8 1.2-1 1.4-2.6 1.4-4 0-1-.3-1.8-.5-2.7a7 7 0 0 0-.7-1.9c-.9-1.4-2.5-2-3.6-3.2-.3-.3-.6-.7-1-.9l-1-.3a5.7 5.7 0 0 0-2.7 0 6 6 0 0 0-.9.4l-1 .6-.6.3-.5.4-1 1c-1-.3-2-.5-3-1l-.5-.4a1.5 1.5 0 0 1-.3-.5l-1-2.4c0-.2-.1-.5-.4-.6a1 1 0 0 0-.3 0h-6c4-6.2 9.7-10.4 15.6-14.6l8.2-6a29.7 29.7 0 0 1 5.6-3.4c8-3.4 17.5.5 25.7-2.4 1.6-.6 3.3-1.4 5-1.5 1.8 0 3.8 1 4 2.7 0 .8-.2 1.9.5 2.3h1.1l12.9-2.2a17.3 17.3 0 0 1-2.1-3c-.2-.3-.4-.7-.3-1 0-.5.3-.8.6-1.1l8.2-8.8a56 56 0 0 0 12.7-1.3c0 1.6.2 3.1.5 4.6 0 .3.2.6.4 1 .4.4 1.1.6 1.8.4a5.1 5.1 0 0 0 1.7-1l5.4-4 1.6-1.5c.6-.8.9-2 1.5-2.8 1.3-1.6 3.6-1.8 5.7-1.8a8.8 8.8 0 0 1-1.8 7.5c-2 2.5-5.3 3.6-7.9 5.5-2 1.6-3.7 3.7-5.6 5.4-2.5 2.2-5.6 3.7-7.4 6.4-.6.9-1 1.8-2 2.3-.4.3-1 .4-1.5.5-1.6.4-3.3.6-5 .8.4 1.6-.8 3-1.7 4.4-3 4.3-2.2 6.5-2.8 11.8 2.9 6.5 1 14.7 5 20.6 2.9-1.7 6-3.8 7-7.2.2-.7.2-1.5.6-2.2 1-1.8 3.4-2 5.4-2.1a8 8 0 0 1 2.3-6.2c1.6-1.7 3.8-2.7 6.1-3a4.5 4.5 0 0 1-1.2-5.1 4.5 4.5 0 0 1 4.6-2.5l.8-6.9v-.9c-.4-1.8-3.9-1.2-4.3-3-.2-1 .8-1.8 1.6-2.5a8.9 8.9 0 0 0 2.4-3.6c.6-1.7 1-3.8 2.6-4.3 1-.4 2.3 0 3.3.6.6.3 1.4.6 2 .3.4-.2.6-.5.9-.8a3 3 0 0 1 4.3 0c.2.3.3.5.6.6.3.1.6 0 1-.1a55.1 55.1 0 0 0 8.1-3.5c.6 0 1 .3 1.5.7 1.3 1 3 1.5 4.5 1.6.8-2.4 3.3-4 5.6-4.8 2.4-1 5-1.6 6.9-3.2 1-.8 1.7-1.8 2.8-2.4 1.3-.7 2.8-.8 4.3-1.3 1.6-.5 3-1.6 4.6-2.2 3-1.1 6.4-.4 9.6.3.6 0 1.1.2 1.7 0 .8-.3 1.2-1.2 1.6-2l.2-1c0-.5-.6-1-1-1.4-3.2-2.9-4.4-7.6-8-9.9l.2-.1h.4c1.4.2 2.8.2 4.3.2.4 0 .7 0 1-.3l.7-.5c1-.7 2.2-.8 3.3-.8 1.1 0 2.2 0 3.3.2l1.7.5c2.4.6 5.2.5 7.5-.6l6.2 2.8c.9.4 1.8.8 2.7.8a3 3 0 0 0 2.8-2.6v-2.4a4 4 0 0 1 3-3.6c.9-.2 1.7 0 2.5-.2 1.9-.3 3.4-1.5 4.8-2.7l-7-6.2ZM1047.3 249.4h.2-.3Z"/>
    <path d="M766.1 433.4c0 1.2 0 2.5-.2 3.8l-.3 2.2a4 4 0 0 1 2.1 1l1.7-1.2.3-.2a.9.9 0 0 1 .4 0l1.6.2c-.2-2-.4-4 .2-5.9 0-.2.2-.5.1-.8l-.1-.4c-.5-.8-1-1.5-1.7-2.1-.3-.3-.4-.6-.8-.5l-1.1.8c-.3.2-.5.4-.8.4h-2.3c.6.7.8 1.7.9 2.7ZM1440.7 665a5.1 5.1 0 0 1-1.6 1.3 1 1 0 0 1-.4.2h-.4a3 3 0 0 0-.6-.1h-.5l-.4.3c-.5.3-1 .6-1.6.7 0 0 .6 1 .8 1.1.4.3.8-.1 1.2-.3a7.4 7.4 0 0 1 3-1.2l.5-.1c.3-.2.3-.6.2-1 0-.3-.3-.6-.2-1ZM1371.5 641h.2c.2-.1.7-.3.7-.6 0-.1 0-.3-.2-.4l-.4-.5-.5-.7-.5-.5-.6-.7-.5-1a2.9 2.9 0 0 1-.3-.9v-.6h-.2a4 4 0 0 1-1.3 0v.5l.6 1.5v.5l.4.6c.4.6 1 1 1.5 1.5.3.5.6 1 1 1.3ZM776.9 357.5c0 .2.3.3.5.5 1.2.7 2.2 1.7 3.1 2.8.5-.2.8-.6 1-1l.6-1.4c.4-.9 1.2-1.6 1.6-2.5 0 0-1-1-1-1.2-.2-.3-.5-1-.8-1.2-.4 0-1.1.4-1.5.5a35 35 0 0 1-3.7 1.2h-.2v.2l.2 1.6c0 .2 0 .4.2.5ZM869.2 455.9c.3-.3.5-.6 0-.6-.4 0-.9.4-1.2.6-.6.3-1.3.5-2 .6h-1.3c-.5 0-1-.3-1.5 0-.5.2-.6.9-1 1a1.3 1.3 0 0 1-.6.1h-1c-.2.4.1.8.5 1l1.2 1a.7.7 0 0 0 .3.2h.2c1.6-.2 3-1.4 4.5-1.5h.3l-.1-.4-.5-.6c.2.2 2-1.3 2.2-1.4ZM834.1 455.8l-4.1.5c-.5 0-1 0-1.5-.2-.4-.2-.7-.7-1.1-.8-.5-.1-1 .2-1.3.6-.2.1-.4.3-.3.5l.2.1a7.7 7.7 0 0 0 4.2 1.1c.2 0 .5 0 .6.2.1.3 0 .7.2.8a5.3 5.3 0 0 1 4.1-.4c.3 0 .6.2.8 0a1 1 0 0 0 .4-.2c.2-.3.8-.9.5-1.1-.3-.3-1 .2-1.4.1-.2 0-.5-.3-.3-.6-.4.3-1-.1-1-.6ZM793.9 444.6c0-.1.4-.6.4-.9-.1-.3-1.1.2-1.4.3l-1.8.2c-1.2 0-2.4 0-3.6-.2l-4.9-.7a20 20 0 0 0-.6 3v.2h.1a18.1 18.1 0 0 1 6.1 2l.3.2h.4c.2 0 .3.2.4.3l1.1.6 2.1 1h.1l.1-.2.5-.7c.1-.3.3-.6.3-1 0-.3-.4-.6-.5-1-.3-.6 0-1.5.3-2.2l.5-.9ZM1417.3 782.2c-.1-.4 0-.8.3-1.2.2-.3.5-.7.5-1a1 1 0 0 1-.8-.4c.4-.1.7-.4.7-.8 0-.3-.6-.5-1-.3.3.5-.5 1.1-1.1.9a3.9 3.9 0 0 0 1.4-2c-1 0-1.2 1.5-2.2 1.9-.8.2-1.6-.6-1.3-1.2.1-.2.3-.4.2-.6h-1.6c-.2-.3-.3-.7-.2-1-.9.3-1.8.8-2.2 1.6-.3.7 0 1.4-.2 2.1-.5 2-3.8 2.5-5 4.3-.5.8-.5 1.8-1 2.6-.7 1-2 1.4-3 2-2.2 1.4-3.6 3.8-6.3 4.5-.5.1-1 .2-1.5.6-.3.3-.3.7-.7 1h-1.3c-1 .2-1.4 1.3-2.2 1.9-.3.2-.7.3-1 .6-.2.3-.2.8-.3 1.2a3 3 0 0 1-2 2l-1.2.5c-.3.2-.5.6-.7.9-.6 1-1.2 2.1-.8 3.2a1.3 1.3 0 0 1-1-.4c-.7.4-.8 1.2-.5 1.8.4.5 1.3.8 2 .7.8.4 1.7.7 2.6.7.1.3.4.4.6.7.2.1.2.3.2.5l.2 1c.5-.3 1.1-.6 1.6-.4l.6.3c.3 0 .5-.2.7-.3.5-.3 1-.4 1.6-.5.5-.2 1-.6 1-1 0-.3-.2-.7 0-.9a.7.7 0 0 1 .4 0c.3 0 .7 0 .7.2a4 4 0 0 0 1-1c.2 0 .3-.3.5-.4.5-.3 1.5 0 1.8-.5.3-.4 0-.8 0-1.1.2-.6.9-.8 1.3-1.2.9-.8.6-2.2 1.6-3l.7-.4c.4-.2.6-.7.5-1 0-.5.3-1 .5-1.4a.9.9 0 0 1 .2-.3c.1-.2.3-.2.4-.3.6-.4.6-1.1 1.2-1.4.3 0 .4.4.7.4l.3-.2 1-1a.5.5 0 0 1 .2-.2h.2c.2 0 .3-.3.3-.4a1 1 0 0 0-.4-.5l.7.1.6.3c.4 0 .8-.2 1-.4l.6.5.7-.3a.5.5 0 0 0 .2-.2c.1 0 0-.3 0-.4l.6.7c0-.5 0-1-.3-1.4l-.3-.3v-.4c0-.7.2-1.3.8-1.8.5-.5 1.2-1 1.9-1.2 2.2-.8 1.7-4.2 3.9-5l1.5-.6c.5-.2 1-.5 1-1-.5.3-1 0-1.1-.4ZM1393.4 661h-.2c-.5 0-.9-.7-1.4-.7v3.4c.2.4.4.6.7.8l.4.2.4-.1c.4-.1.8.2 1.1.3.3-1.1-.5-2.7-1-3.7v-.2ZM1435.8 672.3c.1-.4.3-1 0-1.3a1.2 1.2 0 0 0-.5-.4 2 2 0 0 0-1-.2 1 1 0 0 0-.7.5c-.6-.4-1.4-.6-2.1-.6a.7.7 0 0 0-.3 0 .6.6 0 0 0-.2.3 6.5 6.5 0 0 0-1.4 2v.3l.1.2c.7.8 1.8 1 2.8.8l2.4-.2h.5c.2-.1 0 0 .1-.3s.1-.7.3-1ZM1374.2 643.9v-.1a.5.5 0 0 0-.2-.1c-.5-.1-1 0-1.5-.3l-.7-.3-.6-.3c-.2 0-.3-.3-.6-.3a.8.8 0 0 0 .2.5c0 .2.2.3.3.4.5.6.7 1.4 1 2h.1c0 .1 0 0 .1 0l2.3-.1h.5c.1-.2-.1-.4-.2-.5l-.7-1ZM1385.4 810.8c-.7-.3-1.3-1-2-1h-.2v.1l.1.9c0 .1.2.3.1.5 0 .2-.2.3-.4.4l-.7.5s-.1 0 0 .2c0 .2.5.1.6.3 0 .2-.1.3-.3.3l-.4.2-.2.2-.6.8c.4 0 .9 0 1.2-.2.4-.3.4-.9.8-1.2l.6.2c.2 0 .4-.1.5-.3v-.2c.2-.2.5 0 .8-.1 0-.4-.4-.7-.8-.8 0-.2.2-.4.5-.6-.1 0 .5.4.7.3.4-.3 0-.4-.3-.5ZM1437.4 761.4c-.4-.3-.8-.8-.6-1.3a30.3 30.3 0 0 0-3 1.8 3.8 3.8 0 0 1-2.4-3.2c0-.3 0-.7-.2-1l-.6-.4c-.2-.3 0-.7 0-1 0-.9-1.3-1.5-2.2-1.1.5-.2 1 .3 1 .7 0 .5-.4.9-.8 1.2.3 0 .6.3.6.5 0 .3-.2.6-.5.7-.4 0-.8-.1-1-.4-.3-.3-.3-.7-.4-1l-1.4.1c.4-.5.6-1 .8-1.6.3-.6.3-1.3 0-1.8l-.3-.4c0-.3.2-.5.4-.8.3-.5 0-1.4-.7-1.3.7-.5 1.4-1 1.3-1.7 0-.8-.9-1.2-1.6-1.6-.7-.4-1.5-1.1-1.1-1.8-1.8-.3-2.5-2.4-4.3-2.6-.1.7-.2 1.5.3 2l.9.7c1.1.9 1 2.4.3 3.6 0 .2-.2.5 0 .6l.3.2 1.5.4c-.3.3-.2.8 0 1.1.2.4.5.8.4 1.2-.1.4-.6 1-.1 1.2.4-.5.6-1 .7-1.6-.1.5 0 1 .3 1.5.1.1.3.3.3.5.2.3 0 .7-.4.8a1 1 0 0 1-1 0c.5.6.9 1.4 1 2.2l1.4.6-1.4 3.7c-.2.5-.4 1.1-.2 1.6a2 2 0 0 1-1 .2 4.7 4.7 0 0 1-1 3.6c0 .2-.3.3-.5.4-.7.2-1.3-.5-2-.4-.2 0-.4.2-.6.4-1.1 1.1-.6 3 1 3.6.6.2 1.3.3 1.6.8l.1.6.6.6c.6.6.6 1.5.2 2.3a5.7 5.7 0 0 1-1.9 1.8c-1.2.7-1.5 2.2-1.9 3.4.4.2 1 .1 1.4 0l.2.7v.1h.3c.2 0 .5 0 .5.2l.3.2c.2-.3.3-.3.2-.6l3.6-2.8a30.2 30.2 0 0 0 4.8-4.8l1.4-1.7c.2-.2.4-.5.4-.8 0-.4-.5-.7-1-1 0 0-.2-.1-.2-.3 0-.1 0-.2.2-.3l2.8-2.2.2-.1.4.1 1 .8a9 9 0 0 1 1.5-2.5c.4-.6 1-1.1 1.3-1.7.3-.7.4-1.4 0-2-.3-.4-.8-.6-1.2-1ZM1393.8 667l.1.2c.3.2 1 1.2 1.4 1.3.4 0 1.2-.7 1-1-.1-.4-.9-.7-1.2-1-.1 0-1-.7-.9-1l-.4 1.4ZM1386.3 683.4c-.5-.3-1.1-.4-1.7-.6a9 9 0 0 1-2-.8c-.3.6-.2 1.3.1 1.9.3.6.8 1 1.3 1.5l3.2 3.6a8.4 8.4 0 0 0 4.4 2.7c1.2.2 3.5-.5 2-1.9l-6-5.5-1.3-1ZM1327.2 624c-.7-.3 0-1.6-.8-2-.3 0-.6.4-.8.7-.1.3-.2.7-.5 1-.2.2-.5.2-.8.3l-1.6.2c-.6.1-1.1.2-1.7.1a2 2 0 0 1-1.5-.8c-1 1.6.6 2.7 2.1 3l1.3.1 1 .3c2 .7 4.3 0 6.4-.8.3 0 .7-.2.8-.5l.4-1c.4-.6 1.4-.4 2-.8l.5-.5a6.4 6.4 0 0 0 1.3-4.3c0-.2 0-.5-.3-.7a.8.8 0 0 0-.3 0h-2.4l-.4.1v.3c.2.6.5 1.3.3 2-.3 1.4-2.3 1.7-3 3l-.2.2a.6.6 0 0 1-.3 0l-1.1.1h-.4ZM1232.8 635.4c-1.2.6-2.7.4-4 .9-1 .4-1.8 1.1-2.7 1.5l-2 .7a6 6 0 0 0-1.9 1.8l-1.6 2.2-.2.3c-.2.4.2.8.6.9l1.2-.2 1.2-.5a8.5 8.5 0 0 0 2.7-1.5 25.1 25.1 0 0 1 6.6-3.7c1-.4 3.4-1 3.8-2.2-.8-.1-1.3-1-2.1-1-.6 0-1 .5-1.6.7ZM1222.5 569.2l-.3-.2c-.3-.3-.7-1-1.1-1.1-.4-.1-.7.5-1 .7-.5.5-1.5 1.2-2.3 1.2-.4 0-.9 0-1.2.3-1 .5-.7 2-1.3 2.8-.3.5-.8 1-.5 1.5.2.4.9.5 1 1l2.6-2c0-.2.2-.3.3-.3l.4.1a2 2 0 0 0 2.6-1.5l1.4 1 .6.5c.1.4 0 .8-.3 1.1-.3.3-.6.6-.7 1l.8 1.3c0 .4.1.9.4 1.2l.7.6c1.2.7 2.4 1.1 3.7 1.4h.5l.3-.3c.3-.4.6-.9.6-1.3 0-.8-.7-1.5-.8-2.2-.1-1 .7-1.9 1.6-2.5.3 1.5.7 3 1.2 4.4.7-1.5 1.5-3 1.7-4.8 0-1.8-.6-3.5-1-5.3l-.4-2.8-.1-.4a.8.8 0 0 0-.3-.3l-2.5-1.4c-.3 1.1-.3 2.3-.2 3.5l-2.4.3c-.3 0-.6.1-.7.3-.3.3-.1 1-.5 1.3l-.6.2c-.6 0-1.2.3-1.7.6-.2 0-.3.2-.5.1ZM1235 614.6l-.2-.2a.5.5 0 0 0-.2 0l-4 .4 1.3 1.6.2.2.3.2c.7.2 1.5.5 2.2.5h.4l.1-.3c.3-.4 1-.5 1-1s-.8-1.1-1-1.4ZM1228.8 552.7a.5.5 0 0 0 0-.2l-.4-.1c-.9 0-3-.5-3.8-.1-1 .5.3 1.8.7 2.4.6.6 1.2 1.4 1 2.3a7.8 7.8 0 0 0-1.8 0l.4 2.7a2 2 0 0 1 1.2 0l-.4 3a12.6 12.6 0 0 1 2.4-1.6 57.3 57.3 0 0 1-.3-3.7c.8.4 1.6.9 2.5.9-.4-2-.9-3.8-1.5-5.6ZM1206.8 536.7l-.2.1c-.4.5-.2 1.1 0 1.7l2 5.3c0 .4.4.9.8.9a2.5 2.5 0 0 1 .5-1.7c.5.3 1.1 1 .8 1.5l-.5.4c-.6.5-.5 1.4-.5 2.1 0 .3.1.6.3.7l.6.1 3-.3c1 0 2.1.3 2.8 1 .6.5 1 1.3 1.7 1.4.1-.5.4-1 .7-1.3l3.7 3.3c.3.2.6.4.9.4.6 0 .8-.8.6-1.4-.2-.6-.7-1-1-1.5l-.5-.9c-1-2-3.6-2.9-5.8-2.6h-1a1.5 1.5 0 0 1-.5-.5c-1-1.3-1.2-3-1.4-4.6a2.3 2.3 0 0 1 0-.8c0-.4.4-.7.8-1a8.4 8.4 0 0 0 2.3-3c.5-1.2.4-2.7-.5-3.6-.2-.2-.4-.4-.4-.6-.1-.2 0-.5 0-.8.2-.4.9-1.5.6-2-.4-.6-1.4.3-2 0-.2 0-.3-.2-.5-.3-.6-.7-1.6-.8-2.5-.9a1.7 1.7 0 0 0-.8.1 1.6 1.6 0 0 0-.5.4 7.9 7.9 0 0 0-1.9 4.5c-.2 1.6 0 3.3.1 4.9l-1.5-1h-.3ZM1205.1 603.4c-1 2 .5 4.7-.6 6.6l-1 1.6c-.5.4-.9.8-1 1.4 0 .3.2.6.3.8l.3 2h1.6v.2a44.4 44.4 0 0 1 .7 4.5l-.3.7-.5 1-.2.7c0 .3.2.6.4.8.4.4.8.8 1.4.8.2 0 .4 0 .6-.2l1.6-.8a.8.8 0 0 0 .3-.3v-.4l.1-2.4.1-3c0-.7 0-1.5-.3-2.2l-.3-.9c0-.3.4-.6.7-.8.6-.4 1.3-.9 2.1-.9l-.2 1-.4.7c-.3 1 0 2.1.7 2.8.6.5 1.4.8 1.9 1.4-.4.5-.6 1-.6 1.6.6.1 1 .5 1.5 1l.3.2h.6c.4 0 .9-.3 1.3-.5.4-.3.8-.6 1.3-.7.1.5 0 1-.3 1.4-.2.4-.6.7-.9 1l-.1.3.1.3 1.6 1.5 2.2-1 .2-2.7v-.5c0-.2-.2-.3-.3-.4l-1.4-1.8c-.4-.6-1-1.1-1.7-1.3-.3-.1-.6-.2-.7-.5l1-.4.2-.2v-.3c-.4-1.7-1.9-2.9-3.2-4-.4-.5-.9-1-.9-1.5a15.6 15.6 0 0 1 3.4-2c.4-.1.8-.3 1-.6.3-.3.5-.8.8-1 .6-.1 1.3.5 1.7 0l.2-.3 1-1.6-2.8.8-3.6.6a6.8 6.8 0 0 0-3.3 1.6l-3.4-2.6-.3-.3c-.2-.2-.2-.5-.2-.7 0-.7 0-1.5.5-2 .2-.3.6-.4 1-.6 2-.6 4-.5 6.1-.4 1.2 0 2.5 0 3.7.4.8.2 1.7.6 2.6.5 1-.2 1.8-1 2.8-1l.6-.1.4-.5a14 14 0 0 1 2.9-3.6c-.3-.2-.7-.4-.9-.8-.6 1.2-2 1.9-3.3 2.4-.6.3-1.2.5-1.8.4-.5 0-1-.2-1.4-.4-1.6-.6-3.4-.2-5.2 0-1.7 0-3.6 0-4.9-1.2-1.9 1-3.3 2.9-4.6 4.6l-1.2 1.8ZM1208.3 643h.9l1.3-.2v-1.3l-.1-.5c-.1-.2-.3-.3-.5-.3-1-.5-2-1.2-3.1-1.2l-2 .1c-.2 0-1.5.5-1.7.4a27 27 0 0 1 4 2.4c.3.2.7.5 1.2.6ZM1217.7 556.6l-3.2-1.4c.3.3.5.7.6 1.1a14.8 14.8 0 0 1 .5 4.8h.3c1.3-.5 2.2-1.8 3.2-2.7l.5-.5v-.5c0-1.5-.7-1.5-2-.8ZM1219.8 559l-.3-.1h-.3l-.4 2.8c-.5 0-.9.5-1.1.9s-.5.8-.9 1l.6.5.4.7.5.7 1 1.3 1.3-2.1.7-1c.3-.5.7-1 1.2-1.4l.4-.4.2-.5c.4-1.3 0-2.7.5-4l-1.1 2-1.3 1.8c-.3-.8 0-1.6.4-2.4-.6 0-1.2.3-1.8.2ZM1213.3 550.2c-.6-.7-1.2-1.7-2-1.8-.7-.1-1.8 0-2 .9 0 .8.8 1.7 1.2 2.3.5.9 1 1.8 1.3 2.7.7-.1 1-.8 1.2-1.4l.5-1.3c.1-.3.2-.7.1-1l-.3-.4ZM931.6 659.1l-.6-3.6a10 10 0 0 0-2.5-5c-1.8-1.6-2.1 1.9-2.5 3a4.3 4.3 0 0 1-4.5 2.8c.2.9.7 1.7 1.4 2.2l-7.6 7.3c-1.7-.9-3.8 0-5.5 1l-.9.6-.7 1.3c-.7 2-1.5 4-1.4 6.1 0 1.8.8 3.5 1.2 5.2.5 1.7.6 3.7-.4 5.2-.6 1-1.9 2-1.6 3.1-.4-.2-.9 0-1.1.3-.3.4-.4.8-.4 1.2-.2 1.5-.4 3 0 4.5.3 1.5 1.2 2.7 1.5 4.1.1 1 0 1.8.3 2.7.6 2.3 3.2 3.4 5.4 4.2h.7c.3 0 .5-.1.7-.3a8.6 8.6 0 0 1 5.3-1.6c.5 0 1 0 1.4-.4.3-.2.3-.6.3-1 .6-7.8 4.5-15 7.5-22.2.9-2.1 1.7-4.3 1.3-6.6 0-.5-.2-1-.1-1.5 0-.6.5-1 1-1l-.5-6.7c1 .3 1.7 1.1 2 2 1-.6 1.4-2 1.3-3.3-.2-1.2-.7-2.4-1-3.6ZM671.2 305.3c.7-.5 3.3-.7 3.9-1.2 1.6-1.6 1.6-2.7 3.5-3.8 1.6-1-2.3-3.6-3.1-4.2l-.6-.5v-.8l1-3.4c-2.2 0-4.2-1.6-6.3-1.4-2.4.3-4 2.7-6.3 3.7a6 6 0 0 0-5.3-1.4 10.4 10.4 0 0 0-5 2.7c-.1.2-.4.5-.7.5-.4.1-.9-.2-1.3-.5l-3.7-3a2.8 2.8 0 0 0-1-.5 3 3 0 0 0-1 0l-5.7.5a1 1 0 0 0-.4.1c-.2.1-.3.4-.4.6a5.5 5.5 0 0 1-1.2 2c-.5.4-1 1-1 1.5.2.5.7.8 1.1 1 1 .3 2 .4 2.9.4l2.4.1c.8.1 1.7.6 2 1.4l-6.9 2.4a13.3 13.3 0 0 0 8.8 2.6c-1.5.5-3.1 1.1-4 2.4 4.7 1.7 9.8 1.6 14.7 2.8l1.6.2c.4 0 .7-.2 1-.4a64.2 64.2 0 0 1 8.4-2.9c1-.2 1.8-.4 2.6-1ZM645.8 265.3c-5.4-.5-10.8.7-16.2.2.6-1 1.2-2 2-2.7.7-.6 1.7-1.2 1.6-2 0-.4-.2-.8-.4-1-.4-1-.7-2-.7-3a9.1 9.1 0 0 1 3.1 1.8 43 43 0 0 1 4.8 4.7c0 .2.2.3.4.3h.5a55 55 0 0 0 6.3-1.7v-.5l-1.3-4.7a2.5 2.5 0 0 0-.3-.8 2.5 2.5 0 0 0-.5-.4l-2.7-2.2c-.6-.4-1.2-1-1.8-1.3a11.9 11.9 0 0 0-2-.7l-3.5-1.1 1.6-3 .2-.1h.3c2.8.9 5.6 1.8 7.8 3.6V247.4c0-.2-.2-.3-.4-.5l-4.4-4c3.7.1 7.5-.1 11.1-1l.8-1.3c.3-.4.5-1 .2-1.5l-.7-.4a7.8 7.8 0 0 1-3.2-2.6c-.2-.3-.3-.5-.2-.8 2.6.3 5.2.4 7.8.3-.8-.4-1.3-1.3-1.7-2.1-.3-.8-.6-1.7-1.1-2.5-.5-.8-1.2-1.3-1.6-2.2 0-.1-.1-.3 0-.4h.2l3.6-.4a3.7 3.7 0 0 0-.2-1.7l-.3-.8v-1l-.1-3.5a12.4 12.4 0 0 0-5.4-3.6c-.6-.1-1.2-.2-1.7-.6 1.9-1.6 4-3.2 6.4-3.4 2.1-.3 4.3.6 6.4.5a35.2 35.2 0 0 0-3.9-4.8c-.4-.5-1-1-1.2-1.5l-.6-1.2c-.4-.7-1.2-1.3-1.2-2 0-3 0-6 1.7-8.3.7-1 1.6-1.7 2.5-2.5a23.6 23.6 0 0 0 5.2-7.3 4 4 0 0 0-2-.5l-6.4-.4a41.5 41.5 0 0 1 11.8-1.2l.5-.1.4-.4c.9-1.2 2.2-2 3.5-2.8a19.2 19.2 0 0 1 4.1-2.1c1.4-.5 2.9-.6 4.3-1a24 24 0 0 0 4.2-1.7l1-.5c-.5-1-.7-2.3-1.8-2.8a33 33 0 0 0-17.8-1.3c-7.8 1-15.8 2-23 5.1l4.4-5a12.5 12.5 0 0 1-2.9-3.6c-3.7 1.4-7.6 2.9-11.5 2-2.5-.5-4.7-2-7.2-2.6a22 22 0 0 0-8 .2l-5.2.7c-1.5.2-3.3.1-3.8-1.2 4.8.4 9.6-.4 14.3-.9 6.2-.6 12.4-.8 18.7-.6h2a8.4 8.4 0 0 0 2-.7c1.8-1 4-1.5 5.8-2.4-6-4.3-13.2-6.2-20.4-7.8-2.3-.6-4.6-1.1-7-1.5-10.9-1.9-22-1.2-33-.6-2.7 0-5.5.2-8.1 1-2.7.6-5 1.7-6.6 4l-10.7-.9h-3c-1.3.2-2.7.9-4 1.5l-8.9 4.5a2 2 0 0 0-.7.5 23.4 23.4 0 0 0-.7 3.6 40.8 40.8 0 0 1 9.9 5.4 54.3 54.3 0 0 0-14.1-4.5c-1.4-.2-3-.4-4.2-1.1-1.3-.7-2.4-1.8-3.8-2-1.2-.2-2.4.5-3.5 1l-8 4.6-4-3a6.5 6.5 0 0 0-2-1 5.7 5.7 0 0 0-1.6-.2 41 41 0 0 0-6.3.7l-24.7 4.2 1.1 3c.1.2.2.5.1.7-.1.5-.8.6-1.4.6-1.5.1-3 .7-4.5 1.3a51.8 51.8 0 0 0-12.6 6.5 25.7 25.7 0 0 0-3.5 3.2c3.7-.2 6.6 3.4 10.2 3.3-.2.8-.7 1.9-1 2.6 0 .3-.1.5-.3.6-.2.3-.5.3-.8.4a457.6 457.6 0 0 0-22 6c-2 .6-4 1.2-6.1 1.2h-.6a1 1 0 0 0-.4.5l-1 2.2v.5l.4.3A47.5 47.5 0 0 0 454 208c4.4 1 8.9 1.3 13.3 2.4a37 37 0 0 0-17 2.8 18 18 0 0 1 10.2 9 71.2 71.2 0 0 1 23.7-2.4c1.5 0 2.9 0 4.3.4l3.3 1.2 7.8 3.4c.4.2.8.4 1 .7.5.6.3 1.4.5 2.1.3 1.2 1.6 1.8 2.8 2.3.8.3 1.7.7 2.1 1.5l.4 1c1.8 6 7.6 10.4 10 16l-5.9 6.6 3 1.5c.2.1.6.3 1 .3.3 0 .7 0 1.1-.2a6.1 6.1 0 0 1 3-.5 206 206 0 0 1 11 6.1c-3.7-1-7.6-1.5-11.6-1.6-2 2-2.2 5.1-1.7 7.9a2 2 0 0 0 .3 1l.8.4c1.4.7 2.8 1.5 4.3 2 3.3-1.6 6.7-3.3 10-5.1-1.6 1.8-.7 4.7-1.7 6.8a4.3 4.3 0 0 1-3.7 2.5l-1.5.1c-.4.3-.7.7-1 1.2l-3.3 6.1c-.2.5-.5 1.1-.3 1.6.4 1 2.2 1.3 1.9 2.3 0 .2-.2.4-.3.5a6.8 6.8 0 0 0 1.5 9.2c.6.4 1.4.8 1.8 1.5.6.8.5 2 .5 3 .1 2.6 1.1 5.2 2.8 7.3 1.6 1.9 3.7 3.3 5.1 5.3 1.3 2 1.9 4.1 2.9 6.2 1 2.2 2.7 4.2 5 5.1l1.4.4c2.3.3 4.6-.4 6.8.3s3.6 2.6 5.2 4.2c.3.3.6.6 1 .7h.9c1.7-.1 3.2-.6 4.8-1a38.1 38.1 0 0 0 3.3-8.5c.2-.6.3-1.2.3-1.9 0-1.2-.7-2.4-1.3-3.5a.8.8 0 0 1 0-.4c0-.2.2-.3.3-.5l4-3.2c1.4-1.1 3.4-2.4 3.4-4.2v-3.6c0-.4 0-.8.3-1.1.1-.3.4-.5.7-.8.8-.8 1-2.2 1.6-3.2a5.8 5.8 0 0 1 2.4-1.6c3-1.5 6.2-3 9.5-3.5l2.6-.4c1.2-.3 2.2-1 3.3-1.4 1.3-.5 2.6-.7 3.8-1.4l1.7-1.5c3.1-3 6.1-6.1 9.4-8.9a482.1 482.1 0 0 0 19-3.7c1.5-.4 3-.7 4.5-1.3a29 29 0 0 0 3.6-2l5.7-3.3c2.2-1.3 4.6-2.8 6.1-4.9ZM1011.4 813.5c-1.6-.5-2.8-1.5-4.3-2-1.6-.6-1.4.8-2.2 2-.2.1-.3.3-.4.6v.5l.2 2.1a51.1 51.1 0 0 0 7-.3l.2-2.2c0-.2 0-.4-.2-.5a.8.8 0 0 0-.3-.2ZM1163.2 600c.1 1.2.6 2.4 1.1 3.6l.8 2c.7 1.6 1.6 3.4 3.3 3.5 0 1.4 0 2.9.3 4.2 0 .2 0 .4.2.6l.4.2a7.3 7.3 0 0 0 3.1.6c.9 0 1.8-.1 2.5.4.5.5.7 1.3 1.4 1.5h1l3.2-1.1c.4-.2.8-.3 1.3-.2.4.1.7.4 1 .6.4.2.9.4 1.2.1l.3-.1c.3-.2.6 0 .8.2.7.6 1.4 1.2 1.7 2 0 .3 0 .5.2.6h.4c1.4 0 2.9-.6 3.8-1.7.3 0 .6.2.7.5l.2.8a29 29 0 0 0 2.2-9c0-.4 0-.7.2-1 .4-1 1.8-1.3 2.4-2.2 1-1.2.3-3 .6-4.4a4.2 4.2 0 0 1 2.4-2.7 9 9 0 0 1 3.6-.7 5 5 0 0 1-4.2-3.8 1.9 1.9 0 0 1 0-1.2c.1-.2.3-.4.2-.6 0-.2-.2-.4-.3-.5a7.6 7.6 0 0 1-2.3-3c.8-.9 1.3-1.7 2-2.7l1.1-.9 1.1-.4c.8-.4.7-1.6.4-2.5.7 0 1.4.1 2-.2.6-.3 1-1 .7-1.6l-6.1-3-.1-1.8c-1.2.2-1.8-1.9-3-1.6-.2 0-.4.3-.7.5-3 3.1-5.6 6.5-9.1 9-.9.7-1.8 1.3-2.5 2-1 1-1.5 2.2-2.4 3a8.6 8.6 0 0 1-4.7 2c-1 .2-2.2.4-2.8 1.2-.5.8-.4 1.8-1 2.4-.4.3-1 .4-1.4.4l-2.4.2c-.8.1-2 0-2-.9a6.2 6.2 0 0 0-2.8 5.7ZM1166.3 529.3l2.1-1.1c.2-.1.5-.2.6-.4.3-.3.5-.7.6-1 .5-1 1-1.7 1.7-2.5.3-.6.7-1.3.2-2-.6-.7-2-.3-2.7-.2l-3.2.3a2 2 0 0 0-.7 0 7.1 7.1 0 0 0-2.5 2.4c-.4 1-.5 2-.6 3l.1.5.3.2a9.5 9.5 0 0 0 3.6 1l.5-.2ZM1055.3 570.3a20 20 0 0 1-2.5-4c-.5-1.2-2.2-4.4-3-2-.7 2.5-.8 5.2-1.3 7.7a8.9 8.9 0 0 0-.1 2.3c.2 2 1.6 3.5 3 4.8a15 15 0 0 0 4.1-2.2c.2-.2.5-.4.6-.7.2-.5 0-1 0-1.6 0-.6.4-1.2.4-1.8.1-1-.6-1.8-1.2-2.5ZM1188 633.8c-.7-.4-1.4-.8-2.1-1l-2.3-.3h-2.8c-.6-.1-1.2-.2-1.6-.6-.7-.6-.6-1.8-1.3-2.4-1.7-1.8-5-1.6-7.4-1.7l-.6 1.2h-7l-.4-.1-.2-.4-.2-1.2c-1.3.1-2.7.2-3.8-.6l-1.2-.9c-.8-.5-1.9-.4-2.9-.3l-1.6.2h-.6a1.6 1.6 0 0 0-.4.4 9.3 9.3 0 0 0-2.3 4l4-.4c.1.8.4 1.7 1.1 2.1l1.5.3c2.2.3 4.4 1.7 6.4.9.4-.2.8-.4 1.1-.4h.9c4 .8 7.7 2.8 11.8 2.7 1.5 0 3-.5 4.5 0 1.3.2 2.3 1 3.6 1.3 2 .6 4.6-.4 6.5-1.3l-2.7-1.5ZM1151.5 620.1c0-1.7.6-3.4 1.2-5a1 1 0 0 0 .1-.5c0-.2-.2-.3-.3-.4a7.8 7.8 0 0 1-2-3 7.2 7.2 0 0 1-2.7-.2c-.8-1.5-1.3-3-1.9-4.6a18.2 18.2 0 0 1-4.1-1.6v-.4a12 12 0 0 1 1.5-2.9l-.2-.1-2.4-1.4c-.6-.3-1.2-.7-1.6-1.3-.5-.6-.8-1.3-1.2-1.9-.8-1.2-2.3-1.7-3.2-2.8a1.2 1.2 0 0 0-.4-.3 1.1 1.1 0 0 0-.5 0h-3.1c.1-.4-.3-.8-.6-1.2-1.5-2-3-3.9-5.2-5.2l-1.7-1c-1.7-1.3-2.6-3.4-4.3-4.8a1.9 1.9 0 0 0-.6-.4h-1c-.7 0-1.4-.3-2-.5a11 11 0 0 0-5.9 0c.3.3.5.7.6 1.1l.2.7.5.7 5.7 6.2 2.1 2.6c.5.8 1 1.7 1.6 2.4l2.3 1.6c1.6 1.4 1.7 3.9 2.7 5.8.7 1.2 1.7 2.2 2.6 3.3 2.2 2.6 3.8 5.7 5.3 8.8l1 1.8a15.4 15.4 0 0 0 2.5 3 15.6 15.6 0 0 0 3.9 2.4l4.3 2 .5.4.5.7 1 1.4c.2 0 .3.2.5.3h.7l3.7-.3c.2-1.8-.2-3.6-.1-5.3ZM1212.9 506.6a18.5 18.5 0 0 1 1.8-3.8c.4-.7.8-.9.6-1.6-.1-.4-.6-1-1-1l-.6.2a21.6 21.6 0 0 0-4.2 3.8 7.3 7.3 0 0 0-1.7 5.3 11 11 0 0 0 2.5 5c-.1-.3 1.2-3.5 1.3-4l1.3-4ZM1203.3 635.2c-.3-.2-.8-.1-1.1-.1a4.2 4.2 0 0 1-3-.8 2 2 0 0 1-1.9 1.4c-.7 0-1.5-.4-1.9.1-.3.4-.2.9-.3 1.3a3 3 0 0 1-.9 1.3c1.4-.3 2.8-.6 4.2-.5h1.2l.6-.3c1-.5 2.2 0 3.1-.5.7-.3.6-1.5 0-1.9ZM51.9 366.7l.6.1-.1-.4-.5.3ZM52.5 367.3l.4.4.5-.2-.2-.4-.7.1ZM60.6 366v-.7l-.7.2-1-.1v.4l-.3.5h-.7l-.9.5v.3l-.5.2-.6.6h-.3l-.8.4 1.2.2.9-.7.8.2 1.3-1h1l.3-.6.7-.2-.4-.2ZM67 365l-.6-.3-.1-.4h-.6l-.7.3-.1.5.4.6-.3.2-.6-.5-.6.4v.4h-.4l-.7.6h-.4l-.8.3h-1l.3.4 1 .2h1l.8-.7v.5l.3.2.3-.5.3-.5.4.2v.4h.4l.6-.6 1-.2v-.3l-.5-.2.7-.3v-.6ZM51.3 367.6l.4.3.3-.1-.3-.4-.4.2ZM47.3 367.8l.5.3v-.8l-.5.5ZM43 367l-.4.7 1 .1.7-.2-.5-.5H43ZM49.3 367.3l-.2.6.8-.5.5.2-.5-.7-.6.4ZM71.4 365.4v.3l.1.2h.6l-.1-.3-.6-.2ZM79.5 364.2l-.7-1 .4-.5-.3-.6-.8-.2-.2.2-.6.1-.5-.1-.4.1-.5-.6h-.2l-.7.9h-.3l-.6.4-.3-.2-.3.3-.3.5v.6l.5.4.6-.1.2.1.8-.6 1.2.2.6.3 1 .1.6-.3.7.4.1-.4ZM78.7 366.1l.5.6.5-.2-.5-.7-.5.3ZM69.2 364.2h-.7v.5l.4.6.5-.2.2-.2-.3-.2-.1-.5ZM70.6 364.2l-.2-.2-.1.5-.3.5.6-.2v-.6ZM70.3 365.6l.7.2-.3-.4-.4.2ZM20.5 366l.6-.1-.2-.5-.4.5ZM40.3 368l-1.4-.6h-.7l.3.4h.6l1.3.6h.8l-.4-.5h-.5ZM29.8 364.6l-.3.7h-.4l-.5.7.7.2.9-.6v-.8l-.4-.2ZM28.4 364.1l-.7.5-.3.5-.6.3.3.3.9-.4.2-.5.4-.5-.2-.2ZM38.5 365.5l-.4-.3-.7.3-.2.5h-.6l-.6.3-.4-.1-.4-.3-.3.3.4.4h.4l.6.2.8-.1.8.2v-.5l.6-.2v-.7ZM23.1 363.3l.2-.6h-.5l.3.6ZM21.2 364.3l.3.6.7-.4-.5-.4-.5.2ZM25.6 363l-.5.3v.4l.6.4h-.5v.5h.6l.5-.4.4-.1-.6-1-.5-.1ZM67.6 365.2l.5.4v-.4l-.3-.4-.2.4Z"/>
  </g>
</svg>